<?xml version="1.0" encoding="UTF-8"?>
<svg id="Layer_2" data-name="Layer 2" xmlns="http://www.w3.org/2000/svg" viewBox="0 0 482.09 400">
  <defs>
    <style>
      .cls-1 {
        fill: #fff;
        stroke-width: 0px;
      }
    </style>
  </defs>
  <g id="Layer_2-2" data-name="Layer 2">
    <g>
      <g>
        <path class="cls-1" d="m118.59,120.68c-1.17,0-1.86-.27-2.05-.82-.12-.51,0-.92.38-1.23.37-.31.81-.47,1.32-.47.47,0,1.58-.2,3.35-.59,1.68-.31,3.39-1.14,5.14-2.49,1.74-1.35,2.87-2.92,3.37-4.72.67-2.35,1.19-4.36,1.58-6.05,1.09-4.46,3.09-12.91,5.99-25.36,2.9-12.44,4.62-19.8,5.17-22.07.78-2.82.97-4.9.56-6.25-.41-1.35-1.59-2.04-3.55-2.08-8.73-.16-15.42.06-20.07.65-16.87,2-29.72,8.8-38.56,20.43-1.37,1.8-2.64,3.98-3.82,6.54-1.17,2.56-2,4.98-2.47,7.25-.35,2-.48,4.08-.38,6.25s.57,4.36,1.41,6.57c.84,2.21,1.88,4.25,3.11,6.1,1.23,1.86,2.81,3.48,4.72,4.87,1.92,1.39,4.01,2.32,6.28,2.79,2.62.63,5.35.61,8.19-.06,2.84-.66,5.19-1.95,7.07-3.84,1.88-1.9,2.68-4.12,2.41-6.66-.16-1.41-.58-2.68-1.26-3.82-.68-1.13-1.73-2.44-3.14-3.9s-2.39-2.55-2.93-3.26c-.78-1.02-1.27-2.13-1.47-3.35-.2-1.21-.11-2.37.26-3.46.37-1.09.91-2.15,1.61-3.17.7-1.02,1.58-1.81,2.64-2.38,1.06-.57,2.16-.94,3.32-1.12,1.15-.18,2.39.01,3.7.56,1.31.55,2.53,1.45,3.67,2.7,1.68,1.92,2.88,4.21,3.58,6.87.7,2.66.9,5.36.59,8.1-.31,2.74-1.18,5.41-2.61,8.01-1.43,2.6-3.29,4.88-5.58,6.84-2.29,1.96-5.21,3.42-8.77,4.4-3.56.98-7.47,1.23-11.74.76-3.09-.31-6.04-1.54-8.83-3.67-2.8-2.13-5.04-4.79-6.72-7.98-1.68-3.19-2.78-6.75-3.29-10.68-.51-3.93-.04-7.87,1.41-11.83,2.7-7.51,6.79-13.79,12.27-18.84,1.76-1.64,4.17-3.4,7.22-5.28,10.53-6.73,25.43-10.1,44.73-10.1h7.34c1.02,0,4.73.04,11.12.12,6.4.08,10.42.12,12.06.12,1.37,0,2.05.39,2.05,1.17,0,.82-.61,1.23-1.82,1.23-7.51,1.02-12.11,4.7-13.79,11.03-1.68,6.18-3.29,12.87-4.81,20.07-.16.59-.09,1.06.21,1.41.29.35.73.53,1.32.53h34.63c1.06,0,1.7-.53,1.94-1.58.31-1.45,1.03-4.55,2.14-9.3,1.12-4.75,1.79-7.7,2.03-8.83.35-1.56.6-2.82.73-3.76.14-.94.21-2.08.21-3.43s-.3-2.45-.91-3.32c-.61-.86-1.5-1.49-2.67-1.88-1.29-.39-3.09-.7-5.4-.94-.63-.12-.94-.53-.94-1.23,0-.66.31-1.06.94-1.17.31-.08.8-.12,1.47-.12h8.39c2,0,5.02.02,9.07.06,4.05.04,7.07.06,9.07.06,3.99,0,6.05.23,6.16.7.16.43.08.75-.23.97-.31.22-.78.4-1.41.56-.08.04-.14.06-.18.06-.2.08-.7.21-1.53.38s-1.43.36-1.82.56c-3.05,1.33-5.36,2.92-6.93,4.75-1.57,1.84-2.74,4.15-3.52,6.93-5.56,22.74-8.69,35.74-9.39,39.03-.08.35-.3,1.27-.68,2.76-.37,1.49-.64,2.62-.79,3.4-.74,3.44-.39,6.16,1.06,8.16,1.45,2,4.15,3.44,8.1,4.34.78.2,1.17.59,1.17,1.17,0,1.21-.84,1.82-2.52,1.82h-32.28c-.7,0-1.15-.45-1.35-1.35,0-.63.31-1.06.94-1.29.63-.16,1.08-.23,1.35-.23,3.56-.47,6.65-1.96,9.27-4.46,1.17-.94,2.09-2.35,2.76-4.23,1.41-3.83,2.56-8.12,3.46-12.85,1.21-4.89,2.05-8.53,2.52-10.92.12-.59,0-1.06-.32-1.41-.33-.35-.79-.53-1.38-.53h-34.45c-1.02,0-1.7.53-2.05,1.58-.08.27-.71,2.84-1.91,7.69-1.19,4.85-2.08,8.57-2.67,11.15-.86,3.29-1.01,6.22-.44,8.8s1.97,4.07,4.2,4.46l4.28.7c.55.16.88.43,1,.82.16.7-.03,1.2-.56,1.5-.53.29-1.3.44-2.32.44-3.37.04-8.32.06-14.85.06s-11.48.02-14.85.06Z"/>
        <path class="cls-1" d="m253.06,121.03c-2.11,0-3.79-.35-5.02-1.06-1.23-.7-2.61-2.11-4.14-4.23-.67-.9-1.51-1.06-2.52-.47-2.93,2-5.5,3.43-7.69,4.31-2.19.88-4.95,1.32-8.28,1.32-5.71.04-9.78-1.18-12.21-3.67-2.43-2.48-3.33-5.9-2.7-10.24,1.37-9.55,11.7-15.61,30.99-18.2,3.05-.39,5.11-.9,6.16-1.53,1.17-.7,1.88-1.66,2.11-2.88.78-4.73.47-8.17-.94-10.3-1.41-2.13-3.85-3.2-7.34-3.2-.82,0-1.97.13-3.43.38-1.47.26-2.57.54-3.32.85-2.03,1.02-3.61,2.31-4.73,3.87-1.11,1.57-1.54,3.68-1.26,6.34.12,1.49-.51,2.76-1.88,3.82-1.37,1.06-2.84,1.58-4.4,1.58-1.29,0-2.38-.43-3.26-1.29-.88-.86-1.22-2.23-1.03-4.11.27-2.58,1.75-5.01,4.43-7.28,2.68-2.27,5.79-4.01,9.33-5.22,3.54-1.21,6.88-1.82,10.01-1.82,5.99,0,10.21,1.42,12.68,4.26,2.47,2.84,3.58,6.96,3.35,12.36-.2,2.54-.72,5.66-1.58,9.33-.23.9-.74,2.81-1.53,5.72-.78,2.92-1.35,5.18-1.7,6.78-1.02,4.66-1.29,7.75-.82,9.27.43,1.1,1.17,1.66,2.23,1.7.67,0,1.35-.21,2.05-.65.98-.59,1.9-1.78,2.76-3.58.16-.35.34-.89.56-1.61.22-.72.4-1.26.56-1.61.27-.66.7-1,1.29-1,.39,0,.72.16,1,.47.27.31.39.72.35,1.23-.39,3.21-1.55,5.73-3.46,7.57-1.92,1.84-4.13,2.76-6.63,2.76Zm-23.13-25.59c-1.53.51-2.92,1.3-4.17,2.38-1.25,1.08-2.23,2.28-2.93,3.61-.7,1.33-1.24,2.73-1.61,4.2s-.42,2.89-.15,4.26c.27,1.37.74,2.6,1.41,3.7.67,1.1,1.68,1.96,3.05,2.58,1.37.63,2.97.9,4.81.82,1.96-.12,3.87-.68,5.75-1.7,1.29-.74,3.21-2,5.75-3.76.86-.51,1.51-1.7,1.94-3.58.31-1.37.92-3.78,1.82-7.22.9-3.44,1.53-5.93,1.88-7.45.2-.82.14-1.37-.18-1.64-.31-.27-.76-.37-1.35-.29-4.34.63-9.68,2-16.02,4.11Z"/>
        <path class="cls-1" d="m350.25,148.2c-2.97,1.72-6.4,2.53-10.27,2.44-3.87-.1-7.73-.83-11.56-2.2-3.84-1.37-7.26-3.17-10.27-5.4-1.76-1.29-4.29-3.23-7.6-5.81s-6.19-4.8-8.66-6.66c-2.47-1.86-5.17-3.8-8.1-5.81-2.93-2.02-5.66-3.6-8.19-4.75-2.52-1.15-4.73-1.81-6.6-1.97-1.88-.12-3.49-.06-4.84.18-1.35.23-2.83.82-4.43,1.76-.16.08-.34.21-.56.38s-.38.28-.5.32c-.35.2-.71.21-1.09.03-.37-.18-.62-.46-.73-.85-.27-1.17-.12-2.05.47-2.64.51-.51,1.15-1.23,1.94-2.17,2.86-3.01,6.95-7.26,12.27-12.74,5.32-5.48,10.13-10.49,14.44-15.03,4.3-4.54,8.3-8.88,11.97-13.03.9-1.02.63-1.53-.82-1.53-4.58,0-8.3.27-11.15.82-5.6,1.14-9.72,3.31-12.38,6.52-.94,1.25-1.7,2.17-2.29,2.76-.39.39-.96.67-1.7.82-.47.12-.89-.04-1.26-.47-.37-.43-.48-.88-.32-1.35.27-.66.57-1.21.88-1.64l8.51-13.97c.23-.35.57-.74,1-1.17.55-.55,1.09-.7,1.64-.47.35.12.64.35.85.7.21.35.26.7.15,1.06-.04.23-.17.58-.38,1.03-.22.45-.34.71-.38.79-.35,1.37.18,2.05,1.58,2.05h.94c3.48,0,7.69-.08,12.62-.23,1.25-.04,3.55-.15,6.9-.32,3.35-.18,5.94-.26,7.78-.26,1.68,0,2.52.37,2.52,1.12-.08.86-1.12,2.33-3.11,4.4l-5.28,5.4c-2.54,2.66-6.54,6.95-11.97,12.85-5.44,5.91-9.27,10.04-11.5,12.38-3.17,3.37-5.44,5.81-6.81,7.34-.59.74-.9,1.25-.94,1.53-.04.27.2.57.7.88.23.12.73.32,1.5.62.76.29,1.68.69,2.76,1.17,1.08.49,2.18,1.05,3.32,1.67,4.77,2.62,8.32,4.62,10.65,5.99,2.33,1.37,4.69,2.81,7.07,4.31,2.39,1.51,5.13,3.16,8.22,4.96,12.76,7.67,23.85,9.23,33.28,4.7,2.97-1.45,5.5-3.21,7.57-5.28.98-.98,1.7-1.58,2.17-1.82.39-.23.81-.21,1.26.09s.68.67.68,1.14c0,1.21-.12,2.05-.35,2.52-.7,1.72-1.43,3.13-2.17,4.23-2.39,3.33-5.52,6.2-9.39,8.63Z"/>
        <path class="cls-1" d="m342.57,121.03c-5.71.23-10.44-1.03-14.17-3.79-3.74-2.76-6.17-6.5-7.31-11.24-.74-2.93-.74-6.69,0-11.27.9-4.19,2.54-8.08,4.93-11.68,6.57-10.02,15.5-15.03,26.76-15.03,4.81,0,8.63,1.23,11.45,3.7,1.72,1.45,2.99,3.35,3.82,5.69s1.12,4.91.88,7.69c0,1.68-.92,2.72-2.76,3.11-3.6.78-8.99,2-16.17,3.64-7.18,1.64-12.57,2.88-16.17,3.7-.98.23-1.58.84-1.82,1.82-.82,3.72-.9,7.04-.23,9.98.74,3.21,1.85,5.64,3.32,7.31,1.47,1.66,3.57,2.79,6.31,3.37,2.35.51,5.03-.02,8.04-1.58,1.84-.98,3.13-2.01,3.87-3.11.74-1.09,1.09-2.1,1.06-3.02-.04-.92-.02-2.09.06-3.52.08-1.43.41-2.77,1-4.02.74-1.76,2.31-2.64,4.7-2.64,2.07.12,3.44.86,4.11,2.23.67,1.37.59,3.19-.23,5.46-1.25,3.6-3.9,6.66-7.95,9.19-4.05,2.52-8.54,3.86-13.47,4.02Zm-8.75-30.52c-.23.7-.2,1.21.12,1.53.31.31.82.41,1.53.29l22.6-5.05c1.06-.23,1.58-1.33,1.58-3.29,0-1.37-.06-2.63-.18-3.79-.12-1.15-.36-2.35-.73-3.58s-.85-2.25-1.44-3.05c-.59-.8-1.4-1.42-2.44-1.85-1.04-.43-2.24-.55-3.61-.35-2.9.43-6.15,2.63-9.77,6.6-3.62,3.97-6.17,8.15-7.66,12.53Z"/>
        <path class="cls-1" d="m394.22,120.79c-6.38,0-10.59-.02-12.62-.06-2.03-.04-6.24-.06-12.62-.06-.7,0-1.02-.33-.94-1,.12-.78.63-1.29,1.53-1.53.2-.08.41-.12.65-.12,1.96-.08,3.87-1,5.75-2.76,1.76-1.76,2.88-3.74,3.35-5.93l3.17-13.56c.74-3.21,2.01-8.97,3.79-17.29,1.78-8.31,3.35-15.31,4.73-20.98,1.37-5.67,2.74-10.66,4.11-14.97v-.53c0-.12-.11-.22-.32-.32-.22-.1-.38-.17-.5-.21-.12-.04-.28-.08-.5-.12-.22-.04-.34-.06-.38-.06-5.48-.66-10-1.06-13.56-1.17-3.21-.23-6.33-.28-9.36-.15-3.03.14-5.81.51-8.33,1.12-2.52.61-4.99,1.89-7.4,3.84-2.41,1.96-4.59,4.64-6.54,8.04-.82,1.41-1.52,2.52-2.08,3.35-.57.82-1.29,1.68-2.17,2.58-.88.9-1.85,1.51-2.91,1.82-1.06.31-2.23.37-3.52.18-1.6-.23-2.86-.83-3.76-1.79-.9-.96-1.4-2.09-1.5-3.4-.1-1.31.03-2.69.38-4.14.35-1.45.92-2.9,1.7-4.34.82-1.53,1.88-2.91,3.17-4.14s2.59-2.27,3.9-3.11c1.31-.84,2.94-1.56,4.9-2.14,1.96-.59,3.69-1.06,5.19-1.41,1.51-.35,3.44-.59,5.81-.7s4.28-.2,5.72-.23c1.45-.04,3.43.02,5.96.18,2.52.16,4.36.28,5.52.38,1.15.1,2.96.26,5.43.5s4.01.39,4.64.47c1.33.12,3.17.29,5.52.53s4.32.41,5.93.53c.82.12,1.35-.23,1.58-1.06,4.54-10.49,11.13-18.85,19.78-25.09,8.65-6.24,18.72-10.07,30.23-11.47,2.74-.31,6.65-.47,11.74-.47,3.48,0,6.66.42,9.54,1.26,2.88.84,5.24,1.98,7.1,3.4,1.86,1.43,3.32,3.1,4.37,5.02,1.06,1.92,1.62,3.91,1.7,5.99.08,2.07-.33,4.23-1.23,6.46-.9,2.23-2.29,4.34-4.17,6.34-4.38,4.77-11.15,8.27-20.31,10.48-9.16,2.21-21.97,3.34-38.44,3.37-1.21,0-3.24-.04-6.08-.12-2.84-.08-4.82-.12-5.96-.12-.86,0-1.39.2-1.58.59-1.61,3.17-6.61,24.44-15.03,63.8-.23,1.1-.39,1.86-.47,2.29-.08.43-.2,1.07-.35,1.91-.16.84-.23,1.42-.23,1.73v1.38c0,.61.08,1.02.23,1.23.16.22.34.53.56.94.21.41.5.7.85.88s.77.38,1.26.62c.49.23,1.05.42,1.67.56.63.14,1.35.26,2.17.38.74.12,1.08.51,1,1.17-.27.7-.86,1.12-1.76,1.23Zm12.15-83.05c-.08.2-.08.38,0,.56.08.18.23.26.47.26,7.63.55,16.24.49,25.83-.18,9.59-.66,16.77-1.49,21.54-2.47,7.43-1.56,13.09-3.97,16.96-7.22,1.29-1.09,2.44-2.37,3.46-3.82,1.02-1.45,1.78-2.96,2.29-4.55.51-1.58.77-3.17.79-4.75s-.38-3.1-1.2-4.55c-.82-1.45-1.99-2.72-3.49-3.82-1.51-1.09-3.62-1.98-6.34-2.64-2.72-.66-5.88-1-9.48-1-5.71,0-10.76.65-15.14,1.94-5.01,1.45-10.06,3.95-15.14,7.51-5.09,3.56-9.45,7.51-13.09,11.86-3.56,4.31-5.85,7.98-6.87,11.03l-.59,1.82Z"/>
      </g>
      <g>
        <path class="cls-1" d="m36.33,274.11c-4.89,0-9.51-.77-13.85-2.32s-8.2-3.77-11.56-6.66c-3.37-2.9-6.03-6.59-7.98-11.09-1.96-4.5-2.93-9.51-2.93-15.03,0-4.66,1.09-9.08,3.26-13.26,2.17-4.19,5.28-7.63,9.33-10.33,4.05-2.7,8.54-4.05,13.47-4.05,3.91,0,7.52,1.05,10.83,3.14,3.31,2.09,5.84,4.85,7.6,8.28s2.44,7.01,2.05,10.77c-.23,2.97-1.29,5.79-3.17,8.45-1.14,1.6-2.5,2.94-4.11,4.02-1.61,1.08-3.27,1.61-4.99,1.61-1.49,0-2.82-.35-3.99-1.06-1.33-.74-2.29-1.83-2.88-3.26-.59-1.43-.78-2.96-.59-4.61.16-1.25.51-2.45,1.06-3.58.47-.98,1.25-2.33,2.35-4.05,1.09-1.72,2.01-3.3,2.73-4.73.72-1.43,1.16-2.75,1.32-3.96.23-2.39-.44-4.17-2.03-5.34-1.58-1.17-3.77-1.76-6.54-1.76-3.52,0-6.88.95-10.07,2.85-3.19,1.9-5.77,4.53-7.75,7.89s-2.96,7.04-2.96,11.03c0,5.99,1.13,11.43,3.37,16.32,2.25,4.89,5.55,8.79,9.89,11.71s9.33,4.31,14.97,4.2c6.22-.12,11.48-1.78,15.76-4.99,4.29-3.21,7.28-7.38,8.98-12.5,1.7-5.13,2.12-10.76,1.26-16.9-.35-2.7-.94-5.58-1.76-8.63s-2-6.53-3.52-10.45c-1.53-3.91-2.65-6.78-3.37-8.6-.72-1.82-2.1-5.02-4.14-9.6l-3.11-6.87c-1.72-3.99-2.89-7.19-3.49-9.6-.61-2.41-.91-4.84-.91-7.31s.6-5.18,1.79-7.81c1.19-2.62,2.82-5.02,4.87-7.19,2.06-2.17,4.62-3.94,7.69-5.31,3.07-1.37,6.33-2.05,9.77-2.05,6.53,0,11.55,1.88,15.05,5.63s5.25,8.53,5.25,14.32c0,1.17-.09,2.32-.26,3.43-.18,1.11-.48,2.31-.91,3.58-.43,1.27-1.14,2.3-2.14,3.08-1,.78-2.22,1.17-3.67,1.17-1.8,0-3.17-.55-4.11-1.64-.94-1.09-1.41-2.35-1.41-3.76,0-1.13.37-2.54,1.12-4.23,1.92-4.11,2.72-7.51,2.41-10.21-.2-2.11-1.11-3.92-2.73-5.43-1.62-1.51-3.61-2.26-5.96-2.26-1.49,0-2.98.35-4.49,1.06s-2.93,1.7-4.25,2.99c-1.33,1.29-2.41,2.99-3.23,5.11s-1.23,4.44-1.23,6.98c0,2.27.45,4.93,1.35,7.98.9,3.05,1.78,5.56,2.64,7.51.86,1.96,2.02,4.4,3.46,7.34,2.23,4.5,3.93,8.01,5.11,10.54,1.17,2.52,2.47,5.62,3.87,9.27s2.42,7.12,3.02,10.39c.61,3.27.93,6.62.97,10.07.04,7.59-1.41,14.38-4.34,20.37-2.93,5.99-7.19,10.7-12.77,14.15-5.58,3.44-12.04,5.17-19.4,5.17Z"/>
        <path class="cls-1" d="m129.83,227.92c-2.11,0-3.79-.35-5.02-1.06-1.23-.7-2.61-2.11-4.14-4.23-.67-.9-1.51-1.06-2.52-.47-2.93,2-5.5,3.43-7.69,4.31-2.19.88-4.95,1.32-8.28,1.32-5.71.04-9.78-1.18-12.21-3.67-2.43-2.48-3.33-5.9-2.7-10.24,1.37-9.55,11.7-15.61,30.99-18.2,3.05-.39,5.11-.9,6.16-1.53,1.17-.7,1.88-1.66,2.11-2.88.78-4.73.47-8.17-.94-10.3s-3.85-3.2-7.34-3.2c-.82,0-1.97.13-3.43.38-1.47.25-2.57.54-3.32.85-2.03,1.02-3.61,2.31-4.73,3.87-1.11,1.57-1.54,3.68-1.26,6.34.12,1.49-.51,2.76-1.88,3.82-1.37,1.06-2.84,1.58-4.4,1.58-1.29,0-2.38-.43-3.26-1.29-.88-.86-1.22-2.23-1.03-4.11.27-2.58,1.75-5.01,4.43-7.28,2.68-2.27,5.79-4.01,9.33-5.22,3.54-1.21,6.88-1.82,10.01-1.82,5.99,0,10.21,1.42,12.68,4.25,2.47,2.84,3.58,6.96,3.35,12.36-.2,2.54-.72,5.66-1.58,9.33-.23.9-.74,2.81-1.53,5.72-.78,2.92-1.35,5.17-1.7,6.78-1.02,4.66-1.29,7.75-.82,9.27.43,1.1,1.17,1.66,2.23,1.7.67,0,1.35-.21,2.05-.65.98-.59,1.9-1.78,2.76-3.58.16-.35.34-.89.56-1.61.22-.72.4-1.26.56-1.61.27-.67.7-1,1.29-1,.39,0,.72.16,1,.47.27.31.39.72.35,1.23-.39,3.21-1.55,5.73-3.46,7.57-1.92,1.84-4.13,2.76-6.63,2.76Zm-23.13-25.59c-1.53.51-2.92,1.3-4.17,2.38-1.25,1.08-2.23,2.28-2.93,3.61-.7,1.33-1.24,2.73-1.61,4.2-.37,1.47-.42,2.89-.15,4.26.27,1.37.74,2.6,1.41,3.7.67,1.1,1.68,1.96,3.05,2.58,1.37.63,2.97.9,4.81.82,1.96-.12,3.87-.68,5.75-1.7,1.29-.74,3.21-2,5.75-3.76.86-.51,1.51-1.7,1.94-3.58.31-1.37.92-3.78,1.82-7.22.9-3.44,1.53-5.93,1.88-7.45.2-.82.14-1.37-.18-1.64-.31-.27-.76-.37-1.35-.29-4.34.63-9.68,2-16.02,4.11Z"/>
        <path class="cls-1" d="m144.92,227.57c-.55,0-.94-.19-1.17-.56s-.27-.77-.12-1.2c.16-.43.47-.72.94-.88,2.47-.59,4.62-1.67,6.46-3.26,1.84-1.58,3.01-3.43,3.52-5.55.78-2.93,1.55-6.12,2.29-9.57,1.21-5.09,2.21-9.51,2.99-13.26l.41-1.64c.27-1.29-.13-2.44-1.2-3.43-1.08-1-2.4-1.5-3.96-1.5-.35,0-.72-.1-1.12-.29-.39-.2-.59-.51-.59-.94,0-.67.27-1.06.82-1.17,2.43-.43,4.48-.92,6.16-1.47,3.64-1.29,6.67-3.09,9.1-5.4.51-.47.96-.94,1.35-1.41.39-.47.82-.96,1.29-1.47.51-.51,1.04-.67,1.58-.47.51.27.7.74.59,1.41-.23.7-.35,1.23-.35,1.58-.23.9-.38,1.58-.44,2.05-.06.47-.02.73.12.79.14.06.36-.09.68-.44.31-.35.72-.92,1.23-1.7,2.35-3.52,5.75-7.61,10.21-12.27,4.42-4.42,7.98-7.55,10.68-9.39,1.53-.94,3.78-2.02,6.75-3.23,2.86-.9,5.42-1.09,7.69-.59,3.6.94,5.79,3.11,6.57,6.52.39,1.84.27,3.48-.35,4.93-.59,1.45-1.56,2.52-2.9,3.23-1.35.7-2.79.9-4.31.59-1.25-.23-2.32-.71-3.2-1.44-.88-.72-1.5-1.48-1.85-2.26-.35-.78-.78-1.54-1.29-2.26-.51-.72-1.04-1.26-1.58-1.61-.55-.35-1.43-.37-2.64-.06-1.21.31-2.74,1.02-4.58,2.11-1.8,1.02-3.23,2.09-4.28,3.23-6.42,6.14-11.19,12.07-14.32,17.78-2.5,4.07-4.68,8.04-6.52,11.91-.39.78-.63,1.47-.7,2.05l-3.7,16.2c-.43,1.88-.68,3.44-.76,4.7-.51,3.6,1.55,5.81,6.16,6.63.74.12,1.24.26,1.5.44.25.18.44.54.56,1.09.12.43-.02.78-.41,1.06-.39.27-.78.41-1.17.41h-26.12Z"/>
        <path class="cls-1" d="m231.73,227.92c-2.11,0-3.79-.35-5.02-1.06-1.23-.7-2.61-2.11-4.14-4.23-.67-.9-1.51-1.06-2.52-.47-2.93,2-5.5,3.43-7.69,4.31-2.19.88-4.95,1.32-8.28,1.32-5.71.04-9.78-1.18-12.21-3.67-2.43-2.48-3.33-5.9-2.7-10.24,1.37-9.55,11.7-15.61,30.99-18.2,3.05-.39,5.11-.9,6.16-1.53,1.17-.7,1.88-1.66,2.11-2.88.78-4.73.47-8.17-.94-10.3s-3.85-3.2-7.34-3.2c-.82,0-1.97.13-3.43.38-1.47.25-2.57.54-3.32.85-2.03,1.02-3.61,2.31-4.73,3.87-1.11,1.57-1.54,3.68-1.26,6.34.12,1.49-.51,2.76-1.88,3.82-1.37,1.06-2.84,1.58-4.4,1.58-1.29,0-2.38-.43-3.26-1.29-.88-.86-1.22-2.23-1.03-4.11.27-2.58,1.75-5.01,4.43-7.28,2.68-2.27,5.79-4.01,9.33-5.22,3.54-1.21,6.88-1.82,10.01-1.82,5.99,0,10.21,1.42,12.68,4.25,2.47,2.84,3.58,6.96,3.35,12.36-.2,2.54-.72,5.66-1.58,9.33-.23.9-.74,2.81-1.53,5.72-.78,2.92-1.35,5.17-1.7,6.78-1.02,4.66-1.29,7.75-.82,9.27.43,1.1,1.17,1.66,2.23,1.7.67,0,1.35-.21,2.05-.65.98-.59,1.9-1.78,2.76-3.58.16-.35.34-.89.56-1.61.22-.72.4-1.26.56-1.61.27-.67.7-1,1.29-1,.39,0,.72.16,1,.47.27.31.39.72.35,1.23-.39,3.21-1.55,5.73-3.46,7.57-1.92,1.84-4.13,2.76-6.63,2.76Zm-23.13-25.59c-1.53.51-2.92,1.3-4.17,2.38-1.25,1.08-2.23,2.28-2.93,3.61-.7,1.33-1.24,2.73-1.61,4.2-.37,1.47-.42,2.89-.15,4.26.27,1.37.74,2.6,1.41,3.7.67,1.1,1.68,1.96,3.05,2.58,1.37.63,2.97.9,4.81.82,1.96-.12,3.87-.68,5.75-1.7,1.29-.74,3.21-2,5.75-3.76.86-.51,1.51-1.7,1.94-3.58.31-1.37.92-3.78,1.82-7.22.9-3.44,1.53-5.93,1.88-7.45.2-.82.14-1.37-.18-1.64-.31-.27-.76-.37-1.35-.29-4.34.63-9.68,2-16.02,4.11Z"/>
        <path class="cls-1" d="m335.8,223.71c-2.39-4.5-7.12-6.67-14.2-6.52-3.95,0-7.66,1.36-11.12,4.08-3.46,2.72-5.33,6.13-5.61,10.24-.12,2.07.42,3.79,1.61,5.17,1.19,1.37,2.83,2.05,4.9,2.05,2.5-.23,4.29-1.4,5.37-3.49s1.61-5.21,1.61-9.36c-.12-1.64.53-2.97,1.94-3.99,1.41-1.02,3.03-1.53,4.87-1.53,2.43.08,4.47,1,6.13,2.76s2.65,3.89,2.96,6.4c.31,2.5.06,5.17-.76,7.98-.35,1.02-.79,2.07-1.32,3.17-.53,1.09-1.26,2.37-2.2,3.82-.94,1.45-1.97,2.78-3.08,3.99-1.12,1.21-2.48,2.37-4.08,3.46-1.61,1.09-3.3,1.93-5.08,2.49-1.78.57-3.84.83-6.19.79-2.35-.04-4.77-.49-7.28-1.35-9.04-3.05-11.54-15.96-7.51-38.74.81-4.63,2.48-12.15,5.03-22.52h0c.05-.23.09-.44.13-.62.39-1.8.64-3.54.73-5.22.1-1.68-.01-3.39-.32-5.14-.31-1.74-1.03-3.24-2.14-4.49-1.12-1.25-2.59-2.11-4.43-2.58-1.49-.31-3.07-.35-4.75-.12-4.89.7-10.47,3.42-16.73,8.16-.67.51-1.2.64-1.61.38-.41-.25-.52-.77-.32-1.56l7.22-31.17c.16-.7-.12-1.27-.82-1.7-.59-.35-1.35-.06-2.29.88-5.48,6.07-10.9,9.39-16.26,9.98-.86,0-1.29.43-1.29,1.29,0,.23.08.46.23.68.16.22.35.32.59.32h.65c1.02,0,1.78.02,2.29.06.51.04,1.12.2,1.85.47.72.27,1.2.76,1.44,1.47s.25,1.64.06,2.82c-.78,4.23-1.58,8.24-2.41,12.03-.82,3.8-1.76,7.97-2.82,12.53s-1.94,8.46-2.64,11.71l-2.88,13.32c-.51,2.35-1.58,4.35-3.23,6.02-1.64,1.66-3.56,2.55-5.75,2.67-.98,0-1.62.27-1.94.82-.39.39-.34.81.15,1.26.49.45,1.05.67,1.67.67,9.94.16,17.35.23,22.25.23,1.06,0,1.81-.11,2.26-.32.45-.22.62-.58.5-1.09-.04-.27-.13-.5-.26-.67-.14-.18-.35-.29-.64-.35-.29-.06-.52-.09-.68-.09h-.82c-.9,0-1.67-.15-2.32-.44-.64-.29-1.15-.63-1.53-1s-.64-.92-.79-1.64c-.16-.72-.26-1.35-.29-1.88-.04-.53.02-1.29.18-2.29.16-1,.28-1.75.38-2.26.1-.51.26-1.31.5-2.41l3.35-14.5c1.09-4.7,3.32-8.72,6.66-12.06,3.35-3.34,7.15-5.39,11.42-6.13,2.97-.47,4.92-.03,5.84,1.32.92,1.35,1.09,3.77.5,7.25-.19,1.08-.4,2.21-.62,3.38h0c-1.32,5.69-2.46,11.05-3.43,16.09-1.25,6.52-2.07,13.12-2.47,19.81-.47,9.04,1.54,16.17,6.02,21.39,4.48,5.22,10.77,7.95,18.87,8.19,3.56.12,6.99-.54,10.3-1.97s6.09-3.32,8.36-5.66c2.27-2.35,4.12-4.95,5.55-7.81,1.43-2.86,2.24-5.69,2.44-8.51.27-3.99-.35-7.47-1.88-10.45Z"/>
      </g>
      <g>
        <path class="cls-1" d="m125.1,361.4c-1.68,0-3.17-.16-4.46-.47-1.88-.43-3.27-1.3-4.17-2.61-.9-1.31-1.35-2.65-1.35-4.02,0-1.92.86-3.48,2.58-4.7,1.72-1.21,3.66-1.82,5.81-1.82.39,0,.77.02,1.14.06.37.04.76.12,1.17.23.41.12.75.21,1.03.29.27.08.66.23,1.14.47s.81.38.97.44c.16.06.53.23,1.12.53.59.29.92.46,1,.5,2.66,1.13,4.72,1.7,6.16,1.7,2.19,0,4.11-.88,5.75-2.64,3.21-3.44,5.93-9.9,8.16-19.37,5.36-20.62,9.76-37.76,13.21-51.42.35-1.41.84-3.62,1.47-6.63.2-1.68.31-3.24.35-4.67.04-1.43-.32-2.61-1.09-3.55-.76-.94-1.93-1.41-3.49-1.41h-8.92c-.51,0-1.71.02-3.61.06-1.9.04-3.13.1-3.7.18-.57.08-1.61.18-3.14.29s-2.68.28-3.46.5c-.78.22-1.81.47-3.08.76-1.27.29-2.47.65-3.58,1.06-1.11.41-2.3.87-3.55,1.38-2.43,1.02-4.74,2.67-6.95,4.96-2.21,2.29-3.95,4.77-5.22,7.45s-2.05,5.4-2.35,8.16c-.29,2.76.26,5.16,1.67,7.19,1.72,2.54,3.79,4.46,6.22,5.75,1.53.7,3.27,1.7,5.22,2.99,2.07,1.61,3.11,3.74,3.11,6.4,0,1.25-.4,2.37-1.2,3.35-.8.98-1.81,1.62-3.02,1.94-3.76.74-7.59-.7-11.5-4.34-3.09-2.86-4.89-7.59-5.4-14.2-.51-6.61.45-12.33,2.88-17.14,1.45-3.01,3.18-5.65,5.19-7.92,2.02-2.27,4.26-4.13,6.72-5.58,2.47-1.45,4.96-2.64,7.48-3.58,2.52-.94,5.38-1.63,8.57-2.08,3.19-.45,6.11-.75,8.78-.91,2.66-.16,5.75-.23,9.27-.23l32.11.12c.86,0,1.49.08,1.88.23.51.12.76.43.76.94,0,.31-.1.63-.29.94-.2.31-.43.49-.7.53-.31.08-.74.12-1.29.12-6.69.27-10.82,3.23-12.38,8.86-.78,2.82-1.9,7.01-3.35,12.59-1.45,5.58-2.54,9.75-3.29,12.53-5.05,19.25-8.65,32.4-10.8,39.44-.67,2.19-1.54,4.32-2.61,6.4-1.08,2.07-2.52,4.19-4.34,6.34-1.82,2.15-3.88,4.09-6.19,5.81-2.31,1.72-5.11,3.27-8.39,4.64-3.29,1.37-6.85,2.35-10.68,2.93-1.41.16-2.52.23-3.35.23Z"/>
        <path class="cls-1" d="m175.7,333.4c-.12-.82.2-1.35.94-1.58,2.47-.55,4.6-1.6,6.4-3.17,1.8-1.56,2.95-3.4,3.46-5.52.67-2.43,1.43-5.54,2.29-9.33l3.23-14.67c.27-1.33-.17-2.47-1.32-3.4-1.16-.94-2.4-1.41-3.73-1.41-.35,0-.71-.11-1.09-.32-.37-.22-.56-.52-.56-.91,0-.67.27-1.06.82-1.17l1.82-.35c3.01-.59,5.45-1.33,7.31-2.23,1.86-.9,3.79-2.29,5.78-4.17.12-.12.47-.52,1.06-1.2.59-.68,1.13-1.23,1.64-1.64.51-.41.94-.54,1.29-.38.7.31.86,1.15.47,2.52-.55,2.31-1.28,5.22-2.2,8.75s-1.59,6.14-2.02,7.87c-2.03,7.94-3.6,14.6-4.7,19.96-.23,1.29-.41,2.38-.53,3.26-.12.88-.15,1.86-.09,2.93.06,1.08.27,1.93.64,2.55.37.63.98,1.16,1.82,1.61.84.45,1.91.68,3.2.68,1.17,0,1.82.31,1.94.94.12.43-.01.78-.38,1.06-.37.27-.81.41-1.32.41h-24.89c-.74,0-1.17-.35-1.29-1.06Zm53.47,1.06c-2.86,0-5.19-.7-6.98-2.11-1.8-1.41-2.99-3.32-3.58-5.72-.59-2.41-.82-4.97-.7-7.69.12-2.72.55-5.6,1.29-8.66.27-1.41,1.08-4.77,2.41-10.1l4.58-17.43c.04-.08.08-.22.12-.44.04-.21.08-.36.12-.44.04-.08.07-.21.09-.38.02-.18.03-.29.03-.35s-.01-.16-.03-.29c-.02-.14-.06-.23-.12-.26-.06-.04-.14-.1-.23-.18-.1-.08-.23-.13-.38-.15-.16-.02-.33-.03-.53-.03-.86,0-2.09.02-3.7.06-1.61.04-2.86.06-3.76.06h-1.47c-1.06,0-1.7-.43-1.94-1.29-.2-.59-.13-1.12.21-1.58s.87-.7,1.61-.7c1.45,0,2.76-.06,3.93-.18s2.15-.24,2.93-.38c.78-.14,1.49-.37,2.11-.7.63-.33,1.09-.59,1.41-.76.31-.18.61-.5.88-.97.27-.47.44-.76.5-.88.06-.12.15-.45.26-1l.23-.76c.55-1.92.88-3.75,1-5.49.12-1.74-.01-3.41-.38-5.02-.37-1.6-1.17-2.95-2.41-4.05-1.23-1.09-2.85-1.82-4.84-2.17-1.61-.27-2.91-.26-3.9.03-1,.29-1.74.89-2.23,1.79-.49.9-.84,1.8-1.06,2.7-.22.9-.46,2.1-.73,3.61-.27,1.51-.59,2.77-.94,3.79-.59,1.76-1.66,3.18-3.23,4.25-1.57,1.08-3.35,1.61-5.34,1.61s-3.51-.67-4.55-2c-1.04-1.33-1.4-2.99-1.09-4.99.12-.94.35-1.74.7-2.41,4.58-8.41,11.91-12.25,22.01-11.5,11.15.82,16.16,8.16,15.03,22.01-.12,1.45.58,2.41,2.08,2.88,1.51.47,4.18.7,8.01.7,1.68,0,2.6.39,2.76,1.17.27.78.04,1.39-.7,1.82-.47.31-1.8.47-3.99.47-.98,0-2.02.02-3.11.06-1.1.04-2.58.06-4.46.06-.7,0-1.19.22-1.47.65-.27.43-.49,1.02-.65,1.76-.7,3.01-2.6,10.76-5.69,23.24-3.91,15.34-4.23,23.71-.94,25.12,1.09.47,2.28.5,3.55.09,1.27-.41,2.08-.85,2.44-1.32.9-1.17,1.46-2.5,1.67-3.99.21-1.49.21-2.82,0-3.99-.22-1.17-.31-2.43-.29-3.76.02-1.33.32-2.43.91-3.29,1.02-1.49,2.29-2.28,3.82-2.38,1.53-.1,2.84.37,3.93,1.41,1.09,1.04,1.64,2.28,1.64,3.73s-.49,3.36-1.47,5.72c-.98,2.37-2.05,4.31-3.23,5.84-2.58,3.44-6.63,5.17-12.15,5.17Z"/>
        <path class="cls-1" d="m328.25,399.96c-2.93.16-6.28-.18-10.04-1s-7.34-2.25-10.74-4.28c-6.14-3.8-10.92-8.08-14.32-12.85-.2-.23-.43-.6-.7-1.09-.27-.49-.47-.81-.59-.97-.35-.47-.84-.55-1.47-.23-.12.08-.48.27-1.09.59-.61.31-1.05.57-1.32.76-4.15,2.39-8.79,4.25-13.94,5.58-5.15,1.33-9.79,1.82-13.94,1.47-7.87-.43-13.71-2.88-17.55-7.34-1.96-2.15-2.6-4.72-1.94-7.69.43-2.43,1.67-4.12,3.73-5.08,2.06-.96,4.1-1.11,6.13-.44.86.31,1.7.89,2.52,1.73.82.84,1.57,1.78,2.26,2.82.68,1.04,1.42,2.17,2.2,3.4.78,1.23,1.63,2.37,2.55,3.4.92,1.04,1.96,1.99,3.11,2.85,1.15.86,2.53,1.44,4.14,1.73,1.6.29,3.38.31,5.34.06,1.96-.25,4.28-.99,6.98-2.2,2.7-1.21,5.65-2.88,8.86-4.99.63-.35.59-1.23-.12-2.64-1.45-2.7-2.35-6.39-2.7-11.06s-.3-9.41.15-14.2,1.19-10.16,2.23-16.11c1.04-5.95,2.04-11,3.02-15.14.98-4.15,2.02-8.49,3.14-13.03,1.11-4.54,1.77-7.24,1.97-8.1.2-1.64.32-3.09.38-4.34.06-1.25-.28-2.25-1.03-2.99-.74-.74-1.96-1.12-3.64-1.12-5.44,0-10.29,2.45-14.56,7.34-2.54,2.82-4.11,5.5-4.7,8.04l-4.34,17.43c-.27.98-.55,2.31-.82,3.99-.39,2.03-.21,3.86.56,5.49.76,1.62,2.14,2.44,4.14,2.44h.79c.14,0,.34.03.62.09.27.06.49.18.65.35.16.18.27.4.35.67.16.47-.01.82-.5,1.06s-1.24.35-2.26.35c-4.89,0-12.31-.08-22.25-.23-.78,0-1.34-.23-1.67-.7-.33-.47-.32-.93.03-1.38s.94-.68,1.76-.68c2.19-.12,4.11-1.01,5.75-2.67,1.64-1.66,2.72-3.67,3.23-6.02l2.93-13.32c.67-3.17,1.56-7.07,2.67-11.71,1.11-4.64,2.07-8.82,2.88-12.56s1.56-7.74,2.26-12c.08-.55.12-1.04.12-1.47s-.02-.8-.06-1.12c-.04-.31-.15-.59-.32-.82-.18-.23-.32-.44-.44-.62-.12-.18-.33-.31-.65-.41-.31-.1-.56-.18-.73-.23-.18-.06-.49-.1-.94-.12-.45-.02-.78-.03-1-.03h-2.26c-.55-.16-.82-.49-.82-1-.12-.43-.04-.75.23-.97.27-.22.63-.32,1.06-.32,5.36-.59,10.78-3.91,16.26-9.98.94-.94,1.7-1.23,2.29-.88.7.43.98,1,.82,1.7l-7.22,31.17c-.2.78-.09,1.3.32,1.56.41.25.95.13,1.61-.38,2.35-1.8,4.99-3.48,7.92-5.05,3.13-1.64,6.07-2.68,8.8-3.11,1.72-.23,3.33-.2,4.81.12,3.76.9,6.03,3.23,6.81,6.98.59,2.66.35,6.3-.7,10.92-.47,2.03-1.25,5.25-2.35,9.66-1.1,4.4-1.92,7.84-2.47,10.3-1.8,8.1-3.46,17.45-4.99,28.06-1.53,10.6-1.82,18.23-.88,22.89.16,1.02.36,1.59.62,1.73.25.14.77-.07,1.56-.62,5.83-4.11,11.23-8.2,16.2-12.27,5.4-4.34,9.48-7.51,12.24-9.51,2.76-2,5.29-3.6,7.6-4.81,1.84-.98,3.89-1.77,6.16-2.38,2.27-.61,4.84-.9,7.72-.88,2.88.02,5.6.51,8.16,1.47,2.56.96,5.01,2.77,7.34,5.43,2.33,2.66,4.12,6.07,5.37,10.21.51,1.8.82,3.79.94,5.96.12,2.17-.05,4.57-.5,7.19-.45,2.62-1.19,5.19-2.23,7.72-1.04,2.52-2.59,5.01-4.67,7.45-2.07,2.44-4.54,4.59-7.4,6.43-2.86,1.84-6.48,3.35-10.86,4.55-4.38,1.19-9.25,1.87-14.61,2.03Zm-31.34-24.01c-.12.08-.21.17-.26.26-.06.1-.1.18-.12.23-.02.06-.01.16.03.29.04.14.08.23.12.29.04.06.1.17.18.32.08.16.14.27.18.35,6.22,12.44,16.71,18.66,31.46,18.66,12.25,0,21.66-3.42,28.23-10.27,4.77-4.93,7.38-10.84,7.81-17.73.39-6.1-1-11.37-4.17-15.79-3.37-4.77-7.92-7.26-13.68-7.45-3.09-.12-6.38.49-9.86,1.82-4.27,1.68-9.31,4.85-15.14,9.51-4.89,3.95-11.84,9.43-20.84,16.43-2.43,1.92-3.74,2.93-3.93,3.05Z"/>
        <path class="cls-1" d="m310.34,333.4c-.12-.82.2-1.35.94-1.58,2.47-.55,4.6-1.6,6.4-3.17,1.8-1.56,2.95-3.4,3.46-5.52.67-2.43,1.43-5.54,2.29-9.33l3.23-14.67c.27-1.33-.17-2.47-1.32-3.4-1.16-.94-2.4-1.41-3.73-1.41-.35,0-.71-.11-1.09-.32-.37-.22-.56-.52-.56-.91,0-.67.27-1.06.82-1.17l1.82-.35c3.01-.59,5.45-1.33,7.31-2.23,1.86-.9,3.79-2.29,5.78-4.17.12-.12.47-.52,1.06-1.2.59-.68,1.13-1.23,1.64-1.64.51-.41.94-.54,1.29-.38.7.31.86,1.15.47,2.52-.55,2.31-1.28,5.22-2.2,8.75s-1.59,6.14-2.02,7.87c-2.03,7.94-3.6,14.6-4.7,19.96-.23,1.29-.41,2.38-.53,3.26-.12.88-.15,1.86-.09,2.93.06,1.08.27,1.93.64,2.55.37.63.98,1.16,1.82,1.61.84.45,1.91.68,3.2.68,1.17,0,1.82.31,1.94.94.12.43-.01.78-.38,1.06-.37.27-.81.41-1.32.41h-24.89c-.74,0-1.17-.35-1.29-1.06Zm33.04,1.29c-.39,0-.7-.12-.94-.35s-.35-.51-.35-.82c0-1.06.63-1.58,1.88-1.58,1.33,0,2.39-.08,3.17-.23,1.64-.35,2.86-1.01,3.64-1.97.78-.96,1.37-2.36,1.76-4.2,1.64-7.32,2.56-11.52,2.76-12.62l3.46-16.43c.2-1.13-.03-1.9-.67-2.29-.65-.39-1.5-.59-2.55-.59-2,0-3.19-.14-3.58-.41-.27-.23-.41-.59-.41-1.06,0-.7.61-1.06,1.82-1.06,1.88,0,3.37-.18,4.46-.53,6.1-2,10.82-5.44,14.15-10.33,2.66-3.48,4.52-6.67,5.58-9.57,1.8-5.17,1.27-9.75-1.58-13.76-2.86-4.01-7.18-6.13-12.97-6.37-4.11-.2-6.96.04-8.54.7-1.59.67-3.18,2.25-4.78,4.75-1.21,2-1.82,4.6-1.82,7.81,0,2.74-.92,4.85-2.76,6.34-1.84,1.49-3.93,2.17-6.28,2.05-2.07-.12-3.57-.84-4.49-2.17-.92-1.33-1.3-2.76-1.14-4.28.27-3.6,1.77-6.82,4.49-9.65,2.72-2.84,6.22-4.99,10.51-6.46,4.29-1.47,8.85-2.08,13.71-1.85,7.24.35,12.65,2.63,16.23,6.84,3.58,4.21,4.39,9.5,2.44,15.88-.9,2.93-2.35,5.79-4.34,8.57-1.61,2.27-2.68,3.82-3.23,4.64-.55.82-1.07,1.72-1.56,2.7-.49.98-.81,1.9-.97,2.76-.12.74.08,1.1.59,1.06.43-.08.96-.35,1.58-.82,6.34-5.05,13.26-7.42,20.78-7.1,1.17.08,2.25.33,3.23.76.98.43,1.93,1.15,2.85,2.17.92,1.02,1.51,2.38,1.76,4.08.25,1.7.24,3.86-.03,6.49-.23,1.57-1.13,6.01-2.67,13.32-1.55,7.32-2.69,12.52-3.43,15.61-.43,1.8-.2,3.39.7,4.78.9,1.39,2.23,2.2,3.99,2.44l1.64.23c.67.12,1,.49,1,1.12,0,.59-.29.94-.88,1.06-.23.08-.55.12-.94.12-.94,0-2.41.02-4.4.06-2,.04-3.54.06-4.64.06-.98,0-2.29-.02-3.93-.06-1.64-.04-2.97-.06-3.99-.06h-6.75c-.47,0-.8-.21-1-.65-.2-.43-.18-.86.06-1.29.27-.55.68-.82,1.23-.82.23,0,.55-.06.94-.18.39-.12.63-.18.7-.18,2.86-.43,4.83-2.11,5.93-5.05.78-2.03,2.06-7.31,3.84-15.82,1.78-8.51,2.92-14.39,3.43-17.64.27-2.19-.1-3.79-1.12-4.78-1.02-1-2.68-1.4-4.99-1.2-2.19.16-4.64,1.02-7.34,2.58-2.7,1.57-4.77,3.11-6.22,4.64-1.41,1.53-2.6,3.27-3.58,5.22-.98,1.96-1.61,3.62-1.88,4.99-.82,3.76-1.58,7.05-2.26,9.89-.69,2.84-1.32,5.59-1.91,8.25-.7,3.01-.82,5.26-.35,6.75.59,2,2.05,2.99,4.4,2.99,1.88,0,2.82.49,2.82,1.47,0,.16-.02.3-.06.44-.04.14-.1.24-.18.32-.08.08-.18.15-.29.21-.12.06-.23.1-.32.12-.1.02-.23.04-.41.06-.18.02-.31.03-.41.03h-.85l-23.71-.12Z"/>
      </g>
    </g>
  </g>
</svg>