<?xml version="1.0" encoding="UTF-8"?>
<svg xmlns="http://www.w3.org/2000/svg" version="1.1" viewBox="0 0 534.6 531.7">
  <defs>
    <style>
      .cls-1 {
        fill: #ff0025;
      }
    </style>
  </defs>
  <!-- Generator: Adobe Illustrator 28.7.1, SVG Export Plug-In . SVG Version: 1.2.0 Build 142)  -->
  <g>
    <g id="Layer_2">
      <g id="Layer_3">
        <g id="logo-lovina-expanded">
          <g>
            <path class="cls-1" d="M202.8,178.1c-.2,0-.6-.2-1.1-.3-.5-.1-.8-.2-1-.3-.6,0-1.1-.1-1.6-.3-1.6-.7-2.9-1.3-4-1.9-1.1-.6-2-1.4-2.8-2.3-.5-.6-1.4-1.5-2.6-2.7l-.5-.5c-.3-.3-.5-.5-.6-.8-.1-.3-.2-.6-.2-.9,0,0,0,0,0,0s-.1-.1-.1-.2c-.4-.6-.7-1-.8-1.3-.2-.4-.4-.8-.5-1.1s-.2-.6-.3-.8c-.2-.6-.5-1.2-.8-1.9,0-.1-.1-.4-.1-.9,0,0,0-.2,0-.5,0-.2,0-.4-.2-.4-.3-.5-.6-1.2-.7-1.9-.1-.7-.2-1.3-.3-1.7v-.4c-.3-.3-.5-.8-.5-1.3v-1.1c0,0,.1-1.2.1-1.2,0-.7-.1-1.2-.4-1.6-.2-.3-.2-.6-.2-.8s0-.4,0-.7.1-.5.2-.7c.2-.5.2-1,.2-1.5s0-1-.1-1.6c0-.6-.1-1-.1-1.3,0-.6.1-1.1.3-1.6.2-.3.2-.7.2-1.1,0-.4,0-.7,0-.8,0-.2,0-.4,0-.7s0-.6.2-1.4c.3-.7.5-1.5.7-2.5s.3-1.6.4-2v-1.2c0-.2,0-.4.1-.6,0-.2.1-.4.2-.6.3-.4.5-.9.6-1.5s.1-1,.2-1.3c0-.9.1-1.5.4-1.8,0-.1,0-.3.1-.4,0-.2.1-.3.2-.3,0-.1,0-.3,0-.4,0-.2,0-.3,0-.3.2-.2.4-.4.5-.7s.1-.6.1-1c0-.4,0-.8.2-1,0-.5.1-1,.4-1.4.3-.3.6-.7.7-1.2s.2-.9.2-1.5.2-1.1.6-1.5c0,0,.1-.2.2-.2s.1-.2.1-.2c0-.6.3-1.5.8-2.6.4-.9.6-1.5.7-1.8,0-.2.2-.6.5-1.1s.3-.9.3-1.3c0-.1.1-.4.4-.8.7-.7,1.1-1.6,1.1-2.8,0-.1,0-.2.1-.4,0-.1,0-.2.1-.4.2-.3.5-.9.8-1.6.4-.9.9-1.7,1.3-2.4.4-.8.7-1.5.8-2.1,0-.5.1-.8.3-.9.3-.5.4-1,.4-1.5s0-.8.1-.9c.4-.4.8-1,1-1.8,0-.1.1-.3.3-.7.1-.3.3-.6.5-.9,0,0,.2-.2.2-.3s0-.2,0-.3v-.4c0-.3,0-.5-.2-.6s-.4-.2-.7-.2c-1.7,0-3,0-3.8-.2-.4,0-.9,0-1.5.1-.6.1-1.1.2-1.3.2-.2,0-.4,0-.7.1-.2,0-.5,0-.7,0s-.4,0-.6,0l-7.4-.4c-.8,0-1.5,0-2.1.2s-1,.7-1.2,1.4c-.1.2-.3.5-.5,1s-.5.8-.8,1.1-.5.6-.6,1.1c-.2.5-.3.8-.4,1,0,.1-.2.3-.4.6s-.3.5-.4.7l-1.8,2.2c-.2.3-.4.7-.6,1.2-.2.5-.6.9-1,1.2-.1,0-.2.2-.2.3,0,.4-.2.8-.4,1.1s-.4.7-.7.9-.4.5-.6.6h-.1c-.3.9-.9,1.8-1.8,2.9-.2.3-.6.7-1,1.3-.2.2-.4.4-.6.8-.2.4-.4.7-.6,1l-1,1.3c-.9,1.2-1.7,2.2-2.3,2.8-.2.2-.3.4-.5.8s-.3.6-.5.8c-.5.8-1.1,1.5-1.7,2.2-.6.8-1.2,1.4-1.8,1.9,0,0-.2.2-.3.3-.1.2-.2.3-.2.4-.1.4-.3.7-.6,1s-.6.6-1.1.8c-.3.1-.5.4-.8.8l-1.8,2.4c-.2.2-.4.5-.6.6-.6.4-1.2.9-1.8,1.5s-1,1.1-1.2,1.3c-.2.3-.5.7-.8,1.1-.3.5-.7.8-1,1.2s-.7.6-1.1.7c0,0,0,0-.1,0s0,0-.1,0c-.5.7-1,1.3-1.6,1.9-.6.5-1.4,1.2-2.4,1.9l-1.7,1.3c-.5.5-1,1.1-1.7,1.6s-1.1.9-1.3,1.1c-.6.5-1.6,1.2-2.8,2.1-.2,0-.5.3-.9.8l-1.5.9c0,.1-.2.2-.5.3s-.4.2-.5.3c-.8.6-1.9,1.3-3.4,2-1.4.8-2.3,1.3-2.8,1.6-.2.2-.7.3-1.2.5-.4.1-.8.3-1.3.5-2.2.8-4,1.5-5.5,2.1-.1,0-.3.1-.6.1l-2.5.6c-2.3.6-4.1.9-5.3.9-2.6,0-4.5,0-5.8-.1-.4,0-.9-.1-1.4-.3-.8-.5-1.9-.8-3.3-.9-.8-.2-1.5-.4-2.2-.8-1.4-.8-3.2-2.1-5.2-3.9l-.4-.6c-.2-.6-.4-1-.6-1.2-.4-.5-.7-1-.9-1.6s-.5-1.2-.7-2.1c-.2-.8-.5-1.5-.6-1.9-.2-.5-.3-1.4-.4-2.6,0-.8,0-1.5-.2-2.2-.2-1-.4-2-.4-3.1s0-.9,0-1.1c0-.4.2-.9.2-1.5s.1-1.1.2-1.4c.2-2,.4-3.5.7-4.6.2-.8.4-1.4.5-1.9.3-1.5.7-2.6,1.1-3.5,0-.5.3-1.1.7-1.8s.7-1.3.7-1.8c0-.4.2-.8.6-1.2.3-.4.5-.9.7-1.4.2-.5.3-.9.4-1.2.1-.2.6-1.1,1.4-2.4.7-1.4,1.5-2.8,2.4-4.2.2-.4.5-.7.6-.9.2-.2.5-.6.8-1s.5-.7.7-.9c.9-1.2,1.6-2.1,2.2-2.6.5-.4,1-1.1,1.6-2.1.6-.9,1.4-1.6,2.2-2.2.5-.3.7-.5.7-.6,0-.2-.2-.4-.7-.6-1.9-1.3-3.8-2.8-5.7-4.6l-.4-.5c-.2-.5-.8-1.5-1.5-2.8l-.8-1.2c0-.1-.3-.6-.6-1.4-.3-1.5-.7-3.1-1.3-4.6l-.2-1.1c0-.2,0-.5.2-.9,0-.4.2-.7.2-.8-.2-1-.3-1.5-.3-1.8.1-.8.2-2,.2-3.6v-.8c.2-.7.4-1.2.4-1.5s0-.4-.1-.8c0,0,0,0,0-.2,0-.1,0-.2,0-.2.3-.4.5-1,.6-1.6.1-.7.2-1.2.3-1.6.2-.7.4-1.2.8-1.8.2-.3.4-.7.5-1.2s.2-.7.2-.8c0-.2,0-.4.1-.7,0-.3,0-.5.2-.7.3-.5.8-1.6,1.4-3.2,0-.3.2-.7.5-1.3.1-.2.4-.7.8-1.4.4-.7.6-1.3.7-1.9,0-.3.2-.6.4-.9.6-.7,1.1-1.5,1.5-2.3.4-.9.7-1.5.8-1.7,0-.2,0-.4.3-.6.7-.7,1.5-1.6,2.2-2.6s1.3-1.7,1.5-1.9l.9-1c1.3-1.6,2.4-2.8,3.3-3.5l2.9-3.1c.1-.1.5-.5,1.2-1.1s1.3-1.1,2.1-1.5l.5-.3c.7-.7,1.5-1.3,2.4-1.8s2.1-1.1,3.6-1.9l.9-.4c.6-.5,1.4-.9,2.4-1.1,1.1-.4,2-.7,2.6-1.1.6-.4,1.7-.8,3.3-1.2,1.5-.5,2.9-.8,4.2-.9,3-.8,5.6-1.2,7.9-1.5.3,0,.8,0,1.5,0h2.9c0,0,0-.1,0-.1h1.2c1.2,0,2.4,0,3.6.1,1.2.2,2,.3,2.3.3l1.2.2c.2,0,.4.1.7.2.3,0,.5.1.7.1.9,0,1.8,0,2.8.3,1,.2,2,.4,3,.6.8.2,1.9.5,3.4.8l3.4.9,1.8.6c1.4.4,2.6.8,3.7,1.2,2.4.8,4.2,1.5,5.4,2l1.6.4c.8.1,1.5.3,2.2.6,2.9,1.1,6.8,2.1,11.6,3,.8.2,1.7.2,2.6.2,1.5,0,3.1-.2,4.9-.7.2,0,.4,0,.6-.3,1.4-.8,2.8-1.2,4.1-1.2s1,0,1.8.2l1.1.4c.7.2,1,.7,1,1.4s0,.7-.2,1c-.4.5-.7.9-1.1,1.2-.2.3-.5.9-.9,1.6-.4.7-.9,1.4-1.3,1.9-.4.5-.8,1-1.1,1.6-.5.8-1,1.5-1.6,1.9l-.4,1.1-.4,1.2c0,.2-.6,1.1-1.6,2.5s-1.6,2.2-1.9,2.4c-.2.4-.5.9-.9,1.6-.3.7-.5,1.2-.6,1.6,0,.5-.2.8-.8,1.2-.5.2-.9.8-1.2,1.6-.3,1-.8,1.8-1.5,2.6-1,1.3-1.7,2.4-1.9,3.4-.3.9-.8,1.7-1.4,2.4,0,0,0,0-.2.1,0,0,0,0,0,.2,0,.5-.2.9-.4,1.2-.2.4-.5.8-.8,1.2-.3.4-.6.8-.8,1.1-.2.5-.5,1-1,1.6-.6,1-1,1.5-1.1,1.6-.1.2-.3.6-.6,1.1-.3.5-.5,1-.6,1.4,0,0-.1.2-.2.3-.1.2-.2.3-.4.4-.4.4-.7.9-.8,1.3-.2.5-.3.8-.3.9-.2.7-.5,1.2-.8,1.5,0,0-.2.1-.3.2-.2,0-.3.2-.3.4-.2.5-.4,1.1-.8,1.6s-.5.8-.6,1c-.6,1-1,1.7-1.2,2.1,0,0,0,.2-.2.4s-.2.4,0,.5c0,.2.4.3.9.3.8.2,1.8.4,2.9.6l1,.2c1.2,0,2.3,0,3.5.3s2.5.5,4,.9c.2,0,.6.1.9.3.4.2.6.2.8.3.3.2.7.4,1.2.6.6.2,1.1.4,1.3.4s.5,0,.6-.3c.1-.2.2-.5.3-1s.4-1.1.8-1.9c.3-.7.6-1.2.7-1.6,0,0,.1-.2.2-.4s.2-.4.2-.6c0-.5.2-.9.8-1.2.6-.6,1-1.2,1.1-1.8,0-.4.1-.6.4-.8.3-.5.4-.9.4-1.2s0-.6.2-.8c.9-1.2,1.6-2.3,2.1-3.1.2-.1.3-.3.3-.6s.1-.4.3-.7c.2-.2.4-.4.4-.5.8-.7,1.1-1.5,1.1-2.4,0-.2,0-.4.2-.7.1-.2.3-.4.4-.5.2-.2.3-.4.5-.7.1-.3.3-.5.4-.7,0-.2.2-.6.4-1s.3-.8.5-1.2c.2-.3.4-.6.7-.8l.3-.3c.3-.8,1-2,2.1-3.4l1.1-1.6.8-1.3c.2-.5.5-1,.8-1.4.7-.8,1.3-1.8,1.8-2.9.5-1.1.9-1.8,1-2.2.1-.2.3-.4.5-.7s.4-.5.7-.8c0-.1.3-.4.7-.8.4-.4.6-.8.9-1.2.2-.4.4-.8.5-1.2,0-.3.3-.7.6-.9.3-.3.5-.5.6-.6,0-.1.3-.4.5-.7.3-.3.4-.7.5-1.1.2-.8.8-1.5,1.6-2.2.9-.8,1.5-1.7,1.9-2.7.2-.5.4-.8.6-1.1.7-.8,1.1-1.4,1.3-1.8.3-.3.5-.7.7-1.1.1-.1.4-.5.8-1.1.4-.6.9-1.1,1.4-1.6.8-.8,1.4-1.7,1.8-2.7.1-.3.4-.6.8-1,.4-.4.7-.6.9-.8.5-.3.9-.7,1.1-1.1.8-1,1.5-1.8,2.2-2.4,1.5-.8,2.4-1.6,2.7-2.7.3-.4.7-.7,1.2-.9.9-.6,1.8-1.6,2.9-2.8.4-.4.7-.7.9-.8.8-.5,1.4-1,1.8-1.5.3-.5.8-.9,1.5-1.2.2,0,.5-.3,1.1-.8l.9-.6c.1,0,.3-.1.5-.1.3-.4.6-.8,1-1,.4-.3.6-.4.7-.5.6-.3,1.1-.6,1.5-1.1.9-.9,2-1.6,3.3-2.2.5-.2,1.1-.6,2.1-1,1.6-.8,2.9-1.5,3.8-2.2.2,0,.4-.2.7-.3s.5-.2.7-.3l5.4-2.2c.3-.2.6-.3.9-.3,2.2-.5,4.2-.8,6-.8s2.4.4,3.4,1.2c.3.2.5.4.6.8v.3c0,.5-.2.8-.6.8-.6.1-1,.2-1.1.2-.2,0-.4,0-.6,0-.3,0-.6-.1-.8-.1-.8,0-1.4.2-2.1.8l-2.1,1.1c-1.2.6-2.1,1.1-2.8,1.5s-1.3.9-1.9,1.6c-.2.2-.5.4-1,.6-.3.2-.8.6-1.5,1s-1.3.9-1.8,1.4c-.2.2-.4.3-.7.5s-.5.3-.5.4c-1.5,1-3,2.4-4.5,4.2l-1.5,1.3c-.3.2-.9.8-1.9,1.8-.2.2-.5.6-.9,1l-1.2,1.3-1.6,1.7c-.1.2-.4.5-.7.8-.3.3-.6.5-.8.8l-2.2,3.1c-.2.2-.5.6-.8,1s-.7.8-1,1.1c-.3.2-.7.6-1.1,1.1-.4.5-.7.8-.9,1-.8.8-1.3,1.4-1.5,1.9-.1.3-.4.7-.7.9-.3.3-.6.5-.8.8l-.6.9c-.4,1.1-1.1,2.2-2.1,3.2-.4.4-.7.7-.9.9s-.3.5-.3.8c-.8,1.3-1.8,2.8-3,4.4-.2.2-.3.4-.4.6-.1.2-.2.3-.3.4-.4.5-.8,1-1.2,1.4s-.7,1-.9,2c-.4.8-.9,1.6-1.7,2.5-.1.2-.2.4-.4.7-.1.3-.2.5-.4.6-.5.5-1,1.1-1.4,1.8-.4.6-.8,1.4-1.3,2.4-.1.3-.4.8-.7,1.4,0,.1-.1.2-.2.4s-.2.2-.3.4c0,0-.3.2-.5.5s-.4.5-.5.8c0,.3-.2.6-.4,1-.2.3-.4.6-.4.8-.4.7-.7,1.3-.9,1.9,0,0,0,.2-.2.4s-.2.3-.2.5c-1.4,1.4-2.3,2.9-2.7,4.4,0,.2-.2.6-.5.9-.2.4-.4.7-.5.8-.2.6-.6,1.2-1,1.8s-.7,1-.8,1.1l-.7,1.4c-.3.6-.6,1.2-.9,1.6-.5.8-.9,1.8-1.3,2.9-.4,1.1-.7,1.8-.9,2.2,0,.2-.2.6-.5.9-.3.3-.5.6-.6.8-.3.5-.7,1.2-1,1.9-.4,1-.9,1.8-1.4,2.6-.2.3-.3.8-.5,1.2s-.3.9-.4,1.2c0,0,0,.1,0,.3s0,.2,0,.3c-.4.3-.8.8-1.2,1.7-.2.5-.4.9-.7,1.2-.5.5-.8,1.1-.8,1.8s-.2,1-.6,1.8c-.2.5-.4.9-.5,1.2-.4.7-.6,1.4-.8,2.1-.1,1.2-.6,2.4-1.4,3.5-.4.4-.6.8-.6,1.2s-.1.4-.3.8c-.9,1.2-1.4,2.5-1.5,4.1,0,.5-.2,1-.5,1.5s-.6.8-.7,1c0,.1-.2.3-.3.4-.1.2-.2.3-.2.3,0,.5,0,.8-.2,1.2-.1.3-.4.8-.8,1.2-.5.8-.8,1.5-.9,2.1,0,0-.2.4-.4,1.1l-.2.6c0,.3.1.5.1.6,0,.3,0,.6-.2.8-.1.2-.4.5-.7.8-.2,0-.3.2-.3.3s0,.3,0,.4c0,.5,0,1,0,1.4s-.3.9-.5,1.4-.4.8-.4,1.1c-.4.8-.6,1.4-.8,1.9-.1.5-.2.9-.2,1.4,0,.4-.1.7-.3,1.1-.5,1.6-.7,2.5-.8,2.7,0,.2-.2.7-.2,1.2,0,.7-.2,1.2-.3,1.6-.5,1.3-1,3-1.5,5.1-.2.5-.3,1-.3,1.6,0,.6,0,1-.1,1.3-.2,1.6-.3,2.6-.3,2.9,0,.6,0,1.1.1,1.4v.3c-.3.4-.4.9-.4,1.5s0,.6,0,.8c0,.3,0,.6,0,.8,0,.2,0,.5,0,1v2.1c0,0,.2,1.3.2,1.3,0,.2.1.7.2,1.4,0,.7.1,1.3.1,1.8s.1,1.3.3,1.9c.2.6.4,1,.4,1.1.2.7.5,1.5,1,2.2.2.7.7,1.5,1.2,2.4.5,1,1,1.8,1.6,2.2.2,0,.4.3.6.6.2.3.4.5.5.6,1.5,1.1,3,1.7,4.3,1.7s1,0,1.5-.2l1.4-.4c.1,0,.6-.2,1.3-.3s1.4-.5,1.9-1c.2-.2.6-.3,1.2-.3.6-.2,1.2-.6,1.8-1,.8-.7,1.6-1.3,2.6-1.8.1-.1.3-.3.5-.5s.4-.4.5-.6c.2-.2.4-.5.7-.9.3-.4.6-.7.8-.9.4-.5.6-1.1.8-1.8.3-.8.5-1.6.6-2.4,0-.8.1-1.8.1-3.1s.2-1.4.5-1.8.8-.7,1.3-.7,1,.1,1.5.4c.7.3,1.2.7,1.5,1.2s.5,1.1.6,1.9c0,1,0,2.1-.1,3.2-.2,1.1-.3,1.8-.3,2.1l-.2,1.3c0,.2,0,.4-.2.7s-.2.4-.2.5l-.8,1.3c-.7,1.2-1.1,1.9-1.3,2.1,0,.2-.3.4-.5.7-.3.2-.5.4-.7.6-.5.5-1,1.1-1.7,1.6s-1.4,1-2,1.4c-1.8,1-3.8,1.7-6,2.2-.9.2-2.2.5-4.1.6-1.1,0-1.9.2-2.3.2-.8,0-2,0-3.4-.4h0ZM108.6,150.8c.6,0,1,0,1.2-.1.1,0,.3,0,.6,0s.4,0,.5-.1l1.2-.2c.7-.2,1.2-.3,1.4-.3l2.4-.9c.2,0,.5-.1.9-.3.3-.1.6-.2.8-.3.3-.1,1.2-.6,2.6-1.3,1.3-.7,2.1-1.1,2.4-1.2.6-.2,1.2-.4,1.8-.8s.9-.6,1-.7c.4-.2.7-.5.9-.7s.5-.4.6-.5c.5-.5,1.1-.9,1.7-1.3.6-.4,1.2-.7,1.8-.9.2,0,.4-.2.6-.5.5-.5.9-.8,1.2-1l1.3-1.1c1.4-1.1,2.5-2.2,3.2-3.2.1,0,.3-.2.7-.3.3-.1.5-.3.6-.4,0,0,.2-.2.5-.3.2-.1.4-.3.4-.4.2-.4.5-.8.9-1.2s.8-.8,1.2-1.1c.5-.4.9-.8,1.1-1,.2,0,.3-.1.5-.4.1-.3.4-.7.8-1,.4-.4.7-.7.9-.9.2-.2.5-.4.8-.7s.6-.6.8-.9c.2-.3.4-.6.5-1,0-.1.2-.3.3-.5l.4-.4c.1-.1.5-.4,1-.9s1-1,1.3-1.6c.3-.8.8-1.4,1.5-2.1.6-.5,1.1-1.1,1.6-1.8s.9-1.3,1.1-1.7c.5-1,1.1-1.7,1.8-2.2.8-.8,1.4-1.5,1.9-2.4.1-.2.4-.6.9-1.2.5-.6.7-1.1.8-1.5,0-.1,0-.3.2-.4,0-.1.3-.4.7-.8.4-.4.7-.9.8-1.4,0,0,0-.2.2-.3s.2-.2.3-.2c.8-.8,1.4-1.8,2.1-3.1l2.4-4.1c.9-1.6,1.7-2.8,2.4-3.8.2-.3.4-.7.6-1.1.2-.4.4-.7.4-.8.2-.4.3-.7.5-1.1.2-.3.4-.7.5-1.1l.6-.9c.1-.2.2-.4.2-.6s0-.2-.2-.3c-.1,0-.3-.2-.5-.2-2.2-.7-4.9-2-7.8-3.8-1.4-1-2.8-2.7-4.1-5.1l-.2-.6s0-.1,0-.2c0-.4.2-.6.6-.6s.4,0,.7,0c.3,0,.5,0,.7,0,1.7.3,3.1.8,4.2,1.6,1.6,1.3,3.9,2.3,6.9,2.9l1.8.4c.4,0,.7.1.8.1.6,0,1-.3,1-1.1,0-.5.2-.9.6-1.5.4-.5.6-.9.8-1.2.1,0,.2-.2.2-.3,0-.2.1-.3.2-.4l.9-1.8c.2-.2.4-.4.7-.7.3-.2.4-.5.5-.6.4-.4.6-.8.6-1.2,0-.5.2-1,.4-1.3s.5-.9,1-1.5c.5-.7.9-1.4,1.2-2.1.2-.2.4-.6.6-1s.4-.8.6-1c.8-1.2,1.5-2.3,2.1-3.4.3-.8.6-1.4.9-1.8.2-.4.6-.8,1.1-1.1.1-.1.2-.3.3-.6s.1-.4.2-.5c.1-.3.2-.6.4-1s.2-.7.4-.8c1.2-1.5,2.1-2.8,2.6-4,0-.2.2-.4.3-.6s.3-.3.4-.5c.3-.3.6-.7.8-.9.2-.3.3-.6.4-.9,0-.3.2-.6.4-.9.1-.2.3-.5.6-.8s.5-.5.7-.7c.6-.8,1.2-1.7,1.9-2.8,1.2-1.8,2.2-3.2,2.9-4,0,0,0-.2.2-.3s.2-.2.2-.2c.8-1.5,1.9-2.9,3.4-4.3.3-.2.6-.6,1.1-1.2v-.2c.1-.2,0-.4-.3-.4h-.8c-.5,0-1.2,0-2.1,0-2,0-3.6-.1-4.6-.4-.3-.1-1.2-.3-2.6-.6-1.6-.2-3.3-.5-5-.9s-2.7-.7-3-.8l-2.5-.6c-1.6-.5-3.5-1.1-5.8-1.8l-2.2-.8-1.9-.6c-1.4-.4-2.6-.7-3.5-1s-1.9-.4-2.8-.4c0,0-.2,0-.2,0s-.1,0-.2,0l-1.5-.4c-1.5-.3-2.7-.6-3.5-.7-.8-.1-1.6-.2-2.5-.1h-.5c-2.2-.4-4.1-.6-5.7-.6s-1.2,0-2.2.1c-1.6,0-3,.2-4.1.4-1.2.2-2.3.5-3.4,1-.2,0-.3,0-.5.1s-.4,0-.5.1c-.9.2-1.7.4-2.3.6s-1.2.5-1.9.9c0,0-.1.1-.2.2-.1,0-.2,0-.3.1-2.2.6-4.5,1.9-6.9,3.8l-2.1,1.7c-.7.3-1.1.7-1.4,1-.3.4-.7.8-1.1,1.1-.4.3-.7.5-.8.6,0,0-.3.2-.7.5-.4.2-.7.5-.8.8l-1,1.2c0,.1-.4.5-.9,1.2-.5.7-1.1,1.2-1.7,1.7-.3.7-.6,1.2-.8,1.6-.3.4-.6.8-1.1,1.1-.3.9-1,2-2.2,3.5-.5.6-1,1.7-1.6,3.2-.2.6-.4,1.2-.6,1.6-.2.3-.4.7-.8,1.3s-.5,1.2-.6,1.7c0,0,0,.2-.2.5-.5.2-.8.7-.8,1.3s0,.7-.2.9c-.3.4-.6.9-.8,1.4s-.3,1-.5,1.7c-.1.6-.2,1.1-.4,1.5,0,0-.2.1-.2.2,0,.1,0,.2-.1.3-.3.6-.6,1.2-.8,1.8-.2.7-.3,1.3-.4,1.9,0,.7-.2,1.1-.2,1.3,0,.4,0,.8-.2,1.2,0,.2-.1.4-.3.8-.2.4-.2.7-.2,1s0,.6.2.8c0,.5,0,.8-.2,1.1,0,.7-.1,1.2-.1,1.5s0,.7,0,1.1c0,.4,0,.9,0,1.5.2.5.4,1,.3,1.6,0,.6,0,1,0,1.2s0,.3,0,.5,0,.3,0,.5c.2.1.3.4.3.8,0,.7.3,1.4.5,2.2s.4,1.2.5,1.4c.2.5.5,1.1,1,1.7s.8,1,1,1.3c.4.7.8,1,1.2,1s.7-.2,1.2-.5c0,0,.2-.1.3-.2.2,0,.3-.2.3-.4.5-.8,1.2-1.5,2.4-2.1.1,0,.2,0,.4-.1.1,0,.2,0,.2-.1.2-.4.6-.7.9-.9.3-.2.7-.5,1.1-.7.4-.2.7-.4,1-.5.1,0,.4-.2.8-.4.4-.2.8-.4,1-.7,1.1-1,2.4-1.8,4.1-2.4l2-.8c.7-.2,1.5-.6,2.4-.9,1-.3,2.1-.8,3.3-1.2,1.9-.7,3.5-1.1,4.8-1.1h.6c1.4-.2,2.4-.2,3-.2,1.1,0,1.9,0,2.4.1.3,0,.6-.2.9-.4.3-.8.6-1.6,1-2.2.3-.3.6-.8.8-1.4,0-.4,0-.8.3-1.2s.3-.7.3-.8c0-.2.2-.4.3-.7.1-.3.2-.6.3-.9,0-.3,0-.6,0-.8,0-.3,0-.5.1-.6.2-.2.3-.4.4-.7,0-.2,0-.4,0-.7,0-.2,0-.4,0-.7,0-.2.2-.5.2-1s.2-.8.4-1.1c0-.2.1-.6.1-1.2v-4.2c0-.5.1-.9.1-1.2,0-1-.3-1.9-.9-2.6-.2-.5-.3-.9-.3-1.1-.5-1.4-1.5-2.7-3.2-3.9-1.2-.8-2.8-1.2-4.5-1.1-.4,0-1,.1-1.7.1s-1,0-1.8-.2c-.7-.2-1-.6-1-.9s.2-.7.8-1.1c.3-.3.7-.5,1.2-.8,1.9-.7,3.8-1.1,5.7-1.1s3.8.3,5.9,1.1c1.5.6,3.1,1.6,4.9,2.9.2.2.5.4.9.8.4.3.8.6,1.2.8.1.1.3.3.7.6.3.3.6.6.7.9.3.5.6,1.4,1.1,2.7.2.8.5,1.5.8,2.1,0,0,0,.2,0,.2s0,.2,0,.2v1.9c0,.6,0,1.2.2,1.7,0,0,0,.2,0,.3s0,.5-.2.9c0,.2,0,.6-.1,1.1,0,.5,0,.9,0,1.2s0,.8,0,1c0,.2-.1.6-.3,1.1,0,.3-.2.7-.3,1.2s-.2.8-.2,1.2c-.1,1.1-.3,1.9-.4,2.5s-.5,1.2-1.1,1.8c0,0-.1.1-.2.2,0,.1,0,.2-.1.3-.5,1.5-1.5,3.3-2.9,5.4-.2.2-.4.8-.8,1.5,0,0,0,.1,0,.2s0,.3.2.5c.1.3.3.7.6,1.2s.5.8.7,1.1c0,0,.1.2.2.4.1.2.2.3.2.5v.2c0,.2,0,.5.2.8s.2.6.3.8c0,.1.1.4.2.8s.2.8.2,1.2-.1.9-.3,1.2c-.1.2-.1.3,0,.4,0,.1,0,.3,0,.5,0,.5-.1.8-.4,1.2,0,.3-.1.7-.1,1.3,0,.8-.1,1.6-.3,2.3-.2.7-.6,1.6-1,2.7-.1.2-.4.7-.7,1.4s-.6,1.4-.6,2c0,0,0,.2-.2.3-.1.1-.2.2-.3.2-.3.2-.5.6-.7,1.1s-.3.8-.3.9c-.1.5-.4,1.1-.9,1.8-.1.2-.4.5-.7.9s-.6.8-.6,1.1c-.3.7-.6,1.4-1.1,2-.4.6-.8,1.2-1.3,1.8s-.8.9-1,1.2c-.4.6-1,1.2-1.7,1.8s-1.1.9-1.3,1l-1.1.9c-.2.3-.6.6-1.2,1-.5.4-.9.7-1.1.8-.7.7-1.9,1.5-3.4,2.5l-4.5,2.2c-.1,0-.3.2-.5.2s-.3,0-.5.1c-.6.2-1.3.3-2.1.3-.2,0-.7,0-1.4.2-.7,0-1.3.1-1.8.1-1.1.1-2.3-.3-3.6-1.2-.2-.2-.4-.4-.4-.7s.1-.5.4-.7c.8-.4,1.4-.7,1.9-.8,1.2-.4,2.2-.8,3-1.4.1,0,.3-.2.5-.3.2-.2.4-.3.5-.4l1.3-.9c1.1-.6,1.9-1.2,2.4-1.8,0-.2.3-.4.6-.6l3.2-3.3c0,0,0-.2,0-.2s0-.2,0-.2c.2-.5.5-.9,1.1-1.2.8-.5,1.2-1.3,1.4-2.4.2-.6.4-1,.8-1.4.2-.1.4-.4.6-.8.5-1.5,1.1-2.6,1.7-3.4,1-1.7,1.6-3.2,1.9-4.3,0-.1,0-.3.2-.4.1-.2.2-.3.2-.3.1-.5.3-1.2.5-1.8.4-1.6.6-2.8.6-3.5s0-.7,0-.9v-.8c-.2-.1-.3-.1-.4,0-.2.2-.5.4-1,.7s-.8.6-1.2.8l-4.2,2.4c-.5.1-.9.3-1.2.6-.8.2-1.3.4-1.8.5-2,.6-3.4,1.1-4.1,1.4-.5.2-.9.3-1.2.3-.3,0-1.3.2-3,.4s-3.2.4-4.7.4h-1.3c-1.5,0-2.7,0-3.4-.2-.4,0-.7-.1-.9-.1-.7,0-1.3.3-1.9,1-.1.1-.3.3-.5.5-.2.2-.4.4-.5.6-.3.3-.8.8-1.2,1.6s-.9,1.3-1.3,1.6c-.1,0-.2,0-.2.2,0,.5-.4,1-1,1.6-.3.2-.6.4-.9.8l-2.7,4.1c-.2.3-.5.7-.9,1.3-.5.7-.8,1.2-1.1,1.7s-.4,1-.4,1.5c-.4.4-.6.9-.8,1.5,0,.3-.2.7-.3.9-.2.3-.3.5-.6.7,0,.1-.1.3-.1.5,0,.4-.2.8-.4,1.3-.2.3-.3.7-.4,1.1,0,.4-.2.7-.2.9-.3,1.2-.6,2-.9,2.4,0,.7,0,1.5-.4,2.4-.2,1-.4,1.7-.4,2.1-.2.2-.4.6-.4,1.1s0,.9-.1,1.1c0,.2,0,.6,0,1.2s0,.9,0,1.2c0,0,0,.2,0,.3,0,.1,0,.2,0,.3-.2.5-.2.9-.2,1.4s.1,1.5.4,2.6c0,.2,0,.5,0,.8s0,.5,0,.8c0,.5.2,1.4.6,2.5,0,.3.2.6.3.8.1.2.2.4.3.7.1.2.2.5.3.7,0,.2.2.4.2.6.2.8.6,1.4.9,1.8.4.5.9.9,1.3,1.4.5.5,1,.9,1.5,1.2.1,0,.5.3,1.2.8s1.4.7,2.2.9c.8,0,1.4.1,1.8.1h0ZM120.8,94.9c.7,0,1.2,0,1.5-.1,2-.3,3.8-.8,5.6-1.4,1.9-.8,3.9-1.9,6.1-3.4.9-.7,1.8-1.3,2.6-2.1.9-.7,1.6-1.4,2.3-2.1.6-.6,1-1.2,1.2-1.8v-.2c0-.4-.2-.5-.6-.4-.3,0-.9.2-1.8.4-1.2.2-2,.5-2.6.8-.8.4-1.5.6-2.1.8-.5,0-1,.2-1.4.5s-.7.4-.8.5c-.3.4-.7.8-1.2,1s-1,.5-1.7.8c-1.4.7-2.3,1.2-2.7,1.5-1.3,1.1-2.7,2.1-4.2,3-.7.4-1.3,1-1.8,1.7,0,0,0,.1,0,.2s.1.3.4.3h1.2Z"/>
            <path class="cls-1" d="M255.1,134.3c-.8-.2-1.4-.4-1.8-.5-.8-.2-1.5-.6-1.9-1.2-.7-.5-1.3-1.1-1.8-1.7-.4-.2-.6-.5-.8-.9,0-.2-.3-.8-.6-1.5-.3-.8-.5-1.5-.5-2.2v-1.5c-.1-.1-.1-.3-.2-.4s0-.3,0-.3c.2-.4.3-.9.3-1.4s0-.7-.1-1.2c0-.2,0-.4,0-.7s0-.6.2-1.4c.2-.3.3-.8.4-1.3.1-.5.2-.9.2-1.1,0,0,0-.2,0-.2s-.1,0-.2,0c-.1,0-.2,0-.2.1,0,.2-.2.4-.4.6-.2.2-.3.4-.4.6l-2.2,4.1c-.8,1-1.2,1.7-1.3,1.9-.6.7-1,1.3-1.2,1.7-.5.9-1.3,1.8-2.2,2.8,0,0-.2.2-.3.4s-.2.3-.3.4c-.3.5-.6.9-.8,1.1l-.9.9c-.5.3-.9.8-1.3,1.2-.3.4-.7.7-1.1.9-.4.2-.8.4-1.2.5s-.7.2-.8.2l-2.9.4c-1.4-.2-2.4-.4-3-.6-1.3-.3-2.4-1-3.1-2.2l-.8-.9c-.6-.5-1.1-1-1.4-1.7-.3-.6-.5-1.4-.8-2.3-.2-.7-.3-1.4-.4-2.3-.1-.9-.2-1.5-.2-1.9,0-.2,0-.4,0-.7s0-.4,0-.7c0-.6,0-1.1,0-1.4v-1.4c0-.6,0-1.1,0-1.4v-.3c.1-.4.3-.9.4-1.7.2-.8.3-1.5.5-2.1s.5-1.1.8-1.7c0,0,.1-.2.1-.4,0-.8.2-1.5.5-2.3s.6-1.3.7-1.6c.4-.5.6-1.1.8-1.7,0-.2.1-.4.2-.7.1-.3.2-.5.2-.6.3-.6.5-1.1.6-1.5,0-.2.2-.4.6-.6.2-.1.4-.3.5-.6s.3-.5.3-.6c0-.3.2-.6.4-.8.2-.2.4-.5.7-.7.1-.2.3-.4.6-.8s.5-.7.6-1.1c.3-1,.8-1.9,1.6-2.7l1.8-1.7c.8-.8,1.3-1.3,1.8-1.6.4-.4,1-.9,1.8-1.5l.5-.3c1-1,2.1-1.7,3.2-1.9.2,0,.3,0,.3-.3.3-.4.7-.6,1.1-.8.4-.2,1-.3,1.9-.4.4,0,.7,0,1.1-.3.2,0,.4,0,.7,0,.2,0,.5,0,.7,0,1.8,0,3.3,0,4.6.2,1.2,0,2.5.3,3.7.7.8.5,1.6.9,2.7,1.4l2.2,1.2s.1,0,.2,0c.2,0,.4-.1.5-.4.5-.8,1.5-1.8,3-2.8,0-.2.3-.3.8-.3.6-.1,1.1-.2,1.6-.2,1.2,0,2.3.3,3.4,1.1.5.4.8.8.8,1.1s0,.3-.1.7c0,.2,0,.3-.1.5s-.1.3-.2.4c-.4.4-.6.9-.6,1.5v.2c-.3.4-.6,1-.9,1.9,0,.5-.2,1-.4,1.4-1,1.9-1.7,3.3-2,4.2l-.4,1.2c-.2,1-.5,1.8-.9,2.4,0,.6-.2,1.4-.6,2.4-.2.5-.4,1.1-.6,1.7,0,.2,0,.3,0,.5s0,.4,0,.5c0,.8-.1,1.3-.3,1.6-.4.3-.6.7-.8,1.2s-.2.8-.2,1.1c0,.4-.2.8-.4,1.2-.2.4-.3.7-.3.9l-.5,2.1c0,0,0,.2-.1.4s-.1.4-.1.5c-.2.5-.3.9-.3,1.2v.4c0,.4-.1.8-.4,1.1,0,0,0,.2,0,.2s0,.1,0,.2c0,.2.1.5.1.6,0,.2,0,.6-.3,1.2-.2.5-.3.9-.3,1.2,0,.8-.1,1.8-.3,3,0,.2,0,.4,0,.7s0,.5,0,.8v1.2c0,.3,0,.5,0,.6,0,.2,0,.4.2.7.1.3.2.5.2.7.7,0,1.2-.2,1.5-.8.1-.2.6-.7,1.3-1.6.7-.7,1.3-1.4,1.7-2,.5-.8,1-1.6,1.7-2.5s1.1-1.4,1.2-1.6c0-.2.3-.7.8-1.4l1.9-3.2c.7-1.2,1.2-2.2,1.6-2.8.5-.7.7-1.1.8-1.2,1-1.6,1.5-2.4,1.6-2.6l.8-1.4c.9-1.5,1.4-2.3,1.5-2.6l.6-1.1c.5-1,.9-1.7,1.4-2.2.4-.4.6-.8.6-1.2.4-1,1.1-1.4,2.1-1.2.2,0,.6,0,1,.3.5.1.7.3.7.7,0,.5-.2,1.3-.7,2.2-1.5,3-2.9,5.7-4.2,8.1-.2.2-.8,1.4-1.9,3.5-.6,1.2-1.2,2.4-1.9,3.6-.7,1.3-1.1,2.1-1.2,2.4s-.4.8-.8,1.6c-.4.8-.9,1.6-1.3,2.3l-.6,1.1c-.4.8-.8,1.5-1.1,1.9-.3.5-.7.9-1.2,1.3-.2.2-.4.5-.6.9-.1.3-.3.6-.5.8s-.5.4-.9.7c-.2.2-.5.5-.9.8-.4.2-.7.5-.9.6-1.1,1-2.3,1.4-3.7,1.4s-.7,0-1.2-.1c-.6,0-1.3-.2-2.1-.4h0ZM233,127.8c2.7-3.2,4.6-5.4,5.6-6.6,1.8-2.2,3.2-4.1,4.1-5.7,1.1-2,2-3.7,2.9-4.9.8-1.4,2-3.4,3.6-6,.9-1.5,1.6-2.7,2.1-3.8.8-1.2,1.5-2.5,2.2-3.8,1.1-1.8,2-3.2,2.6-4.2.2-.5.2-.8,0-.9,0-.1-.2-.2-.3-.3-.1,0-.2-.2-.3-.2l-3.6-1.4c-.1,0-.3,0-.4-.1s-.4,0-.6-.2c-.1,0-.3.2-.5.2s-.3,0-.5.1c-.2,0-.5.3-1.1.5s-1.1.6-1.5.9c-.4.3-.8.7-1.1,1.1-.4.4-.7.6-1.1.8,0,.1-.2.3-.5.5s-.4.4-.4.5c-.4.7-.9,1.2-1.5,1.6-.2.2-.4.4-.6.7-.1.3-.2.4-.3.5s0,.2,0,.4,0,.3-.1.3c-.4.4-.8,1-1.1,1.8-.4.8-.8,1.4-1.2,1.7-.3.2-.4.5-.4.9,0,.6-.4,1.4-1.1,2.2-.7,1.1-1.1,2-1.2,2.8,0,1.1-.6,2.3-1.5,3.8v.8c0,0,0,.2,0,.4s0,.4,0,.5c0,.2-.1.5-.2,1s-.3,1-.5,1.3c-.4.7-.7,1.4-.9,2.3s-.3,1.4-.3,1.7c-.2.8-.4,1.7-.6,2.5l-.3,1.5c-.2,1-.3,2.6-.3,4.7s0,.4.2.4c.2,0,.3,0,.5,0l.4-.4h0Z"/>
            <path class="cls-1" d="M264.6,174.4c-.8-.2-1.3-.3-1.7-.3-.6-.1-1.1-.4-1.7-.8-.5-.4-1.1-1-1.8-1.7-.5-.5-.9-1.2-1.2-1.9-.1-.2-.2-.4-.4-.7-.1-.2-.3-.5-.5-.8-.1-.2-.2-.5-.2-.8,0-.8-.1-1.5-.4-2.1,0,0,0-.2,0-.3,0-.5,0-1.1.1-1.8v-1.8c0-.2.2-.5.4-1.1.2-1,.5-1.8.9-2.6s.9-1.8,1.7-3.1c1.4-2.3,3.1-4.6,4.9-6.9,1.5-1.8,3.4-3.6,5.6-5.7.8-.6,1.7-1.4,2.7-2.4l1.1-.9c.1,0,.2-.1.3-.3.1-.1.2-.2.3-.3,1.5-1,3.2-2.3,5.1-3.9,2.2-1.8,3.9-3,5.1-3.8.4-.3,2.4-1.8,5.8-4.4,1.1-.8,1.9-1.3,2.4-1.8.5-.3.8-.8.8-1.4v-1.3c-.1-.8-.2-1.4-.3-1.8-.2-.9-.4-1.7-.8-2.2l-.6-1.4c-.2-.6-.5-1-.6-1.3,0,0-.1-.3-.2-.6s-.3-.5-.5-.6c-.4-.5-.8-1-1.1-1.5-.3-.6-.8-1.1-1.4-1.4-.6-.3-1.3-.5-2-.5s-.6,0-1.1.1c-.9.3-1.8.6-2.9.8-.3.1-.6.2-1.1.2s-.9-.1-1.4-.4c-.4-.1-.6-.3-.6-.6s.1-.4.4-.7c.3-.4.8-.7,1.4-1.1,1.7-.7,3.9-1.8,6.6-3.3l.6-.6c.2-.3.4-.5.4-.5.3-.2.7-.5,1-.8.3-.3.6-.7.8-1,.4-.5.8-1,1.2-1.3.2-.1.3-.3.3-.4.2-.5.4-.9.8-1.3.3-.4.5-.7.6-.8.6-.8,1-1.5,1.2-1.9,0-.1.1-.2.2-.4,0-.1.1-.2.1-.4,0-.4,0-.7.1-.9.4-.6.7-1.7.9-3.1.2-.9.4-1.5.4-1.8,0-.5.1-.8.1-1,0-.4-.1-.9-.3-1.6-.1-.6-.6-.9-1.3-.9-.2,0-.5,0-.9,0-1.1,0-2.3.3-3.5.8-1.8.8-3.5,1.7-5.1,2.8l-1.3,1.4c-.7.8-1.5,1.2-2.5,1.2s-.8,0-1.2-.3c-.2,0-.5-.2-.6-.4-.1-.2-.2-.4-.2-.6s0-.4.2-.6c.4-.8.7-1.2,1.1-1.5,1.4-1.2,2.5-2.1,3.4-2.7.7-.4,1.6-.9,2.8-1.4l1.2-.6c1-.5,2.5-1,4.5-1.6.5-.3,1.2-.4,2.1-.4.4,0,1,0,1.8,0h3.4c.9,0,1.7.3,2.4.6s1.7.8,2.8,1.4c.2.2.5.4,1,.8s.9.8,1.1,1.3c.5.9.8,1.8.8,2.7s-.1,1.2-.3,1.6c-.2.7-.3,1.2-.3,1.5,0,.6-.4,1.5-1.1,2.6-.9,1.2-1.7,2.5-2.2,3.6-.2.5-.6.9-1,1.3-.4.4-.7.6-.8.7-.3.4-.8.9-1.3,1.3-.5.5-.9.8-1.2,1.1-.5.5-1.4,1.1-2.8,1.9-1.5,1-3.2,1.9-5.1,2.6l-.3.2c.2.2.4.3.4.3,1.1.2,1.9.5,2.6.9.4.2.7.3.9.6.3.2.6.5.9.9.7.7,1.2,1.1,1.6,1.4.4.2.7.5,1,.9s.5.7.5.8c.2.2.4.4.6.7s.4.5.6.7.2.4.2.7.1.3.3.4c0,.1.2.3.3.5.1.2.3.4.4.5.1,0,.2.1.3.1.2,0,.6-.2,1.2-.6,2.3-1.8,4.6-3.6,6.9-5.2,2.4-1.8,4.3-3.2,5.6-4.1l1-.9c.5-.5,1-.9,1.6-1.4l2.4-2.2c.6-.6,1.1-1.1,1.4-1.5.2-.3.5-.5,1-.7.5-.2.9-.2,1.4-.2s.7,0,.9.2c.2,0,.3.2.4.3s0,.4-.2.5c-.7.9-1.3,1.6-1.9,2.1l-4.2,3.8c-2.3,1.7-3.8,2.8-4.5,3.3l-3.8,3.1c-2.6,2.1-4.9,3.8-7.1,5.2-.2,0-.4.2-.8.4-.4.3-.6.7-.4,1.2l.9,3.5c0,.1.1.3.2.5s0,.4,0,.5c-.1.4-.2.9-.2,1.4s0,1,.2,1.6l-.2,1.1c0,.1,0,.3,0,.4s0,.3,0,.3c.2.3.2.7.2,1.2s-.1,1.1-.4,1.8c0,.1,0,.3-.1.4s0,.4,0,.6,0,.4.2.7h0c0,.3-.2.6-.3.9-.2.3-.3.6-.3.8s0,.4,0,.6c0,.2,0,.3,0,.5,0,.2,0,.5-.2.6,0,0-.1.2-.2.4,0,.2-.1.3-.1.5-.3,2-.8,3.8-1.5,5.4,0,0,0,.1,0,.2,0,0,0,.2,0,.2,0,.8-.1,1.4-.4,2s-.7,1.3-1.3,2.2c0,0-.1.2-.2.4s0,.3,0,.5c0,0-.1.3-.2.7s-.3.8-.5,1.1c-.2.2-.3.4-.3.4,0,.5,0,.9-.2,1.2s-.4.7-.8,1.2c-.6,1-1,1.8-1.2,2.2-.2.3-.5.8-.8,1.4-.4.6-.7,1.1-1.1,1.4-.3.3-.6.8-.9,1.3s-.5.8-.6,1c-.4.4-.9,1-1.4,1.7-.2.2-.6.5-1.1,1s-.9.9-1.2,1.4c0,.1-.2.2-.4.3-.2.1-.4.2-.5.3-.1.1-.3.3-.5.4s-.4.3-.4.4c-.5.6-1.2,1.2-2.2,1.8l-2.2,1.5c-.4.2-.9.5-1.6.9-.3.2-.5.3-.8.3s-.4.1-.6.2c-.5.2-1,.4-1.6.7-1.4.6-2.8,1-4.3,1.2s-3.2.4-5,.5c-1,0-2.4,0-4.2-.4h0ZM277.2,167.9c.3-.2.5-.4.6-.6.2-.2.4-.3.6-.5s.4-.4.6-.5c0-.1.4-.4,1.1-.9.6-.5,1.1-.9,1.4-1.4,0-.3.1-.4.4-.4.5-.3,1-1,1.6-2,.4-.6.7-1,.9-1.2.3-.2.6-.4.7-.7s.3-.7.6-1.2c.6-1.5,1.1-2.5,1.4-3,0-.2.2-.5.4-.9s.4-.8.7-1.1c.1-.3.3-.7.6-1.3.2-.6.5-1.2.6-1.7.1-.4.3-.9.5-1.7.2-.7.5-1.3.8-1.8,0-.4,0-.7.2-.9,0-.2.1-.5.3-.9.2-.2.3-.4.4-.8.1-.4.2-.7.3-1,0-.3.2-.9.4-1.6.2-.8.3-1.5.4-2.1,0-.4,0-.8.2-1.2.4-.8.6-1.6.6-2.6,0-1.8.1-3.4.4-4.8,0-.2,0-.6,0-1v-1.8c0-.1,0-.3,0-.5s0-.3,0-.4c0,0-.1-.1-.2-.1,0,0-.2,0-.3.2-.1.1-.3.2-.3.2s-.2.1-.3.2-.2.2-.3.2c-2,1.6-4.1,3.3-6.4,4.9-2.1,1.5-5.1,4-9.1,7.4-2.3,1.9-4.6,4.3-6.9,7.1-.2.2-.5.6-.9,1.1-.5.6-.9,1-.9,1.2-1.2,2-2.1,3.4-2.5,4.2-.8,1.2-1.2,2.5-1.5,3.6-.5,1.4-.7,2.6-.7,3.6s0,1,.2,1.5v.4c0,1,0,1.6.1,1.9,0,.3.4.8.8,1.4.4.8.8,1.4,1.2,1.9.5.6,1.1,1.2,2,1.7.9.5,1.8.7,2.7.7s1.4-.1,1.9-.4c1.6-.8,3.2-1.6,4.8-2.4h0Z"/>
            <path class="cls-1" d="M327.9,130.6c-.9-.1-1.7-.3-2.5-.5-.6-.2-1.1-.4-1.6-.8s-1-.7-1.4-1-.7-.6-.9-.7c-.5-.3-1.1-1-1.8-1.9l-.9-1.1c-.2-.2-.2-.3-.2-.6-.2-.9-.6-2.2-1.2-3.9,0-.2-.1-.7-.1-1.2s0-1,.1-1.8c0-.1.1-.3.2-.5s0-.4,0-.5c0-.3,0-.7,0-1.3,0-1,.2-2.1.5-3.2,0-.5,0-.8.1-1.1,0-.4,0-.7.2-.9.4-.5.6-1.1.8-1.8.2-.7.3-1.2.4-1.5.2-.8.4-1.3.6-1.5.5-.5.8-1.1,1.1-1.8s.5-1.2.5-1.5c.9-2,1.8-3.6,2.9-4.7.2-.2.5-.5.9-1s.8-1,1-1.5c.3-.5.7-1.1,1.2-1.6s.9-.8,1-1c.1-.2.4-.4.8-.8.4-.3.6-.7.8-.9,0,0,.2-.2.3-.3.2-.2.4-.2.7-.2.9-.5,1.8-1.1,2.5-1.8.6-.6,1.3-1.1,2.1-1.4.8-.3,1.7-.7,2.7-.9,1.6-.4,3.5-.7,5.7-.9,2.1-.1,4,.4,5.8,1.7.2,0,.5.3.9.8.3.4.6.9.9,1.6.3.7.5,1.2.7,1.6v.6c-.2,2.8-.7,4.9-1.6,6.6-.1.2-.4.6-.8,1.3-.2.5-.4.9-.7,1.2-.5.9-1.4,1.9-2.7,3-1.8,1.4-3.4,2.4-4.8,3.1-1.8.8-3.5,1.4-5.2,1.9-1.6.5-3.2.7-4.9.7h-.3c-.6,0-1.1.3-1.3,1.1,0,.1-.1.4-.2.8-.1.4-.3.8-.5,1-.1,0-.2.3-.2.6,0,.2.1.5.1.6,0,.4-.2.8-.6,1.4l-.4,1.8c0,.6,0,1.2,0,1.9,0,.6-.2,1.2-.4,1.6,0,.4.1,1,.1,1.8v1c0,.5,0,1,0,1.4,0,.4.2.8.3,1.1.1.2.3.5.4.8s.3.7.5.9.4.5.7.6c.2.2.4.4.6.5.2,0,.5,0,.9,0,.2,0,.6-.2,1.2-.3.6-.2,1.2-.4,1.8-.7,2.2-1.2,4.4-2.8,6.8-4.9l1.6-1.7c1.5-1.5,2.6-2.7,3.3-3.4,1.4-1.5,3.4-4,6-7.4.8-1,1.5-2.1,2.2-3.4l1.2-2c.6-1.1,1.4-1.7,2.3-1.7s.6,0,1,.2c.5,0,.8.4.8.9l-.4,1.1c-.3.6-.6,1-.8,1.3-1.2,2-2.3,3.8-3.4,5.3-1.2,1.7-2.3,3.1-3.5,4.3-.4.4-.8.9-1.1,1.4l-1.2,1.6-2.1,2.2-.4.5c-1.2,1.4-2.3,2.7-3.3,3.7s-2.2,2-3.4,2.7c0,0,0,.1-.1.1-.7.7-1.4,1.2-2.2,1.6-.8.4-1.8.8-3.1,1.3l-1.2.4c-1,.2-1.7.3-2,.3h-1.9c-.2,0-.8-.1-1.7-.2h0ZM333.5,105.8c.3,0,.5,0,.8,0,2.2-.4,4.4-1.3,6.4-2.7,1.2-.9,2.2-1.8,3-2.6s1.4-1.7,1.8-2.7c.9-1.7,1.3-3.5,1.3-5.2,0-.2,0-.4,0-.8,0-1.2-.5-2.2-1.4-3-.4-.4-.8-.6-1.1-.6s-.5,0-.6.2c-1,.6-1.8,1.1-2.4,1.6-.6.5-1.2,1-1.6,1.7-.5.8-1,1.5-1.5,2-1,.9-1.7,1.8-1.9,2.5,0,.2-.2.5-.4.8s-.4.5-.4.6c-.1.5-.3,1-.6,1.4s-.4.7-.5.8c-.3.3-.5.5-.7.8s-.2.5-.2.8c0,.2-.1.5-.2.8s-.2.4-.2.6c-.4.6-.6,1.1-.6,1.6s0,0-.1.2-.1.2-.2.2c0,.1-.2.3-.4.5-.2.2-.3.4-.2.7.1,0,.5.1,1.1.1s.6,0,.9,0h0Z"/>
            <path class="cls-1" d="M355.7,130.3c-.3-.3-.7-.6-1.2-.8-.1,0-.2,0-.3-.1-.1-.3-.2-.6-.4-.9s-.2-.6-.4-.9c-.4-.4-.8-.9-1.1-1.5-.2-.5-.3-1.2-.3-1.9v-.4c-.1-.5-.2-1-.2-1.4v-1.8c.1-.2.1-.5.2-.8,0-.3,0-.6,0-.8,0-.4,0-.8-.2-1.1v-.8l.2-1.2c.3-1.7.5-2.8.5-3.6,0-.6.2-1.8.6-3.6l.4-2.2c0-.2,0-.5.2-.9.6-1,.9-2.3.9-3.9s0-.4.1-.9.3-.9.6-1.3c.4-.4.6-.9.6-1.4s0-.4,0-.6c0,0,0-.1,0-.3s0-.2,0-.3c0-.2.2-.4.4-.7.2-.3.2-.5.2-.7,0-.7.1-1.2.3-1.6.3-.2.4-.4.4-.8,0-.8.1-1.4.4-2,.2-.6.6-1.4,1.1-2.3,0-.1.1-.3.2-.6.1-.3.1-.6,0-.9,0-.1,0-.3,0-.4,0-.4.2-.7.5-1.1.4-.4.6-.7.8-1s.2-.6,0-.9v-.6c.2-.2.5-.4.6-.7.1-.3.3-.6.3-.9.1-.6.4-1.1.8-1.5,0-.1.1-.4.1-.8.2-1,.7-2,1.5-3,0-.1.3-.5.7-1s.6-1.1.8-1.7c0-.3.1-.7.3-.9s.4-.5.4-.6c0,0,0-.2,0-.3,0-.3-.2-.4-.6-.3-1.3,0-2.7,0-4.2.3v-.2l-7.9.5h-6.6c-1.5,0-2.7,0-3.5,0-1.8,0-3.2.1-4.1.1-1.8,0-3.1,0-4,0h-4.3c-1.3-.1-3.6-.3-6.9-.6l-3.4-.2c-3.1-.2-7-.5-11.8-1.1l-7.5-.9c-.2,0-.8,0-1.8-.2l-3.5-.6-5.4-.9c-.4-.1-1.2-.3-2.3-.4-.4,0-1.6-.3-3.5-.7s-3.6-.9-5.2-1.4c-.8-.2-2.3-.6-4.7-1.2-1.6-.4-3.7-1.2-6.1-2.2-2.7-1.1-4.3-1.8-4.9-2.1-2-.9-3.6-1.9-4.8-3-.3-.1-.6-.3-.8-.4-.2-.2-.5-.4-1-.8s-.8-.7-1-1.1c0,0-.6-.5-1.8-1.6-1-1.1-1.8-2.1-2.3-3.2-.5-1-.8-2.1-.8-3.3v-.8c.3-1.1.6-2.1,1.2-3s1.3-1.8,2.2-2.7c1.5-1.2,3.6-2.5,6.4-3.8,2.4-1.1,5.2-2,8.6-2.7.2,0,2-.4,5.4-1.1l2.4-.5c1.4-.3,3-.5,4.7-.8,1.7-.2,2.8-.4,3.2-.5,1,0,1.8-.2,2.3-.2,2.5-.3,5.4-.5,8.6-.6,3.2,0,5.6-.1,7.2-.1s4,0,7.3.1c2.8,0,5.9.1,9.2.3.9.1,2.4.3,4.4.4l4.2.4c2.7.3,6.3.9,10.9,1.7,1.2.2,2,.3,2.6.4.3,0,.8.1,1.5.3.7.2,1.3.2,1.9.3l1.9.4c2.7.6,4.2,1,4.7,1.1l1.9.4,1.6.4,3.8.9h.2c1.5.4,3.6.9,6.3,1.5.4.2,1.2.3,2.4.6l8.4,2.2c.5.2,1.6.4,3.2.8l2.3.6c0,0,.2,0,.4,0s.5-.1.8-.4.6-.6,1-1,.8-.8,1.1-1.2.5-.8.8-1.2c0,0,0-.2.1-.2s0-.1.1-.2c.5-.2.9-.4,1.2-.8.4-.4.6-.7.8-.8.5-.6,1.2-1.5,2.3-2.7.8-.8,1.6-1.6,2.2-2.4,0-.2.4-.5.9-.8.4-.1.7-.4,1.1-.9.1-.1.2-.3.4-.4.1-.2.2-.3.4-.3.4-.1.8-.4,1.2-.8.4-.4.8-.8,1-1,.6-.6,1.1-1.1,1.6-1.4.4-.2,1.2-.8,2.3-1.7l1.8-1.3c.3-.2.8-.5,1.2-.8s.9-.6,1.3-.9c.1,0,.5-.3,1.1-.8s1.2-.7,1.8-.9c.2,0,.3,0,.3-.1.2-.4.5-.7.8-.9s.7-.4,1.2-.6c.5-.2.9-.3,1.2-.5.3-.2.7-.4,1.2-.6s.9-.5,1.1-.8c0,0,0-.2.2-.2.1,0,.2,0,.3,0l1.6-.7c1.8-.8,3-1.2,3.4-1.4,2.2-1,4-1.6,5.2-1.8.6-.4,1.2-.7,1.9-.8s1.2-.3,1.9-.4c.6-.1,1.1-.2,1.4-.2.8-.2,2.4-.4,4.8-.6.3,0,.7,0,1.3,0s1,0,1.2,0c.4,0,.9,0,1.6,0,1.3,0,2.8.1,4.2.4,1.2,0,2.9.4,4.8,1,2.4.7,4.3,1.6,5.9,2.8.3,0,.7.3,1,.8,1.2,1.2,2,2,2.2,2.5,1.5,1.4,2.5,3.1,2.8,5,0,.2.2.5.3.9.2.4.2.8,0,1.2.2.7.2,1.4.2,2.2,0,1.3-.3,3.1-.9,5.6-.3,1.4-.9,2.8-1.8,4.1-.1.2-.4.7-.7,1.4-.3.7-.7,1.4-1.1,2-.7,1.1-1.2,1.8-1.4,2.1,0,0-.1,0-.2.1,0,0-.1,0-.1.1-.3.7-.7,1.3-1.2,1.9-.5.6-1.2,1.3-2.2,2.1-.4.3-.7.6-.9.8-1.8,1.5-3.4,2.8-4.8,3.8-.6.5-1.4,1-2.6,1.6-1.4.8-2.4,1.4-3,2-.7.5-1.6,1-2.7,1.4-1,.5-1.7.8-1.9.9-.2,0-.4.2-.6.2-.2,0-.4.2-.6.3s-.3.3-.3.4c0,.2.3.3.8.3s.7,0,.8.1l4.5.9c.3,0,.7.2,1.2.2s.8.1,1.1.2l2.2.4,6.3.9c.9,0,2,0,3.4.2.6.2,1.4.3,2.4.3h1.8c1.6.2,3.3.3,5.2.3s3.1,0,3.6,0c1.7,0,3,0,3.9,0,.6,0,1.5,0,2.7-.2.2,0,.5,0,.8,0s.6,0,.9,0c.2,0,.6,0,1.1,0,1,0,2.3-.2,4.1-.5,1.7-.1,3.2-.3,4.4-.6.7,0,1.4-.2,1.9-.4.2,0,.4-.2.7-.3.3-.2.6-.2.8-.2,1.5-.2,3.3-.7,5.2-1.7l1.2-.4c1.6-.6,2.8-1,3.7-1.2,0,0,.1-.2.2-.2.1,0,.2,0,.2-.1.5-.5,1.2-1,2.1-1.4s1.4-.7,1.7-.8l1.9-1.1c2.8-1.5,4.9-2.9,6.3-4.3.5-.3,1-.7,1.5-1.3.7-.7,1.1-1,1.2-1.1.3-.2.6-.4.8-.7.2-.3.4-.5.4-.6.3-.4.8-.9,1.4-1.7,1.1-1.3,1.9-2.3,2.5-2.8.1-.1.2-.3.3-.6s.1-.4.2-.5c0-.2.4-.8,1.1-1.8l1.1-1.8s0,0,.1-.2c0,0,0-.1.2-.1.3-.2.6-.5.7-.7.1-.3.2-.6.3-1,.6-1.7,1.1-2.9,1.5-3.6.4-.9.7-1.9.9-3,.3-.8.4-1.7.4-2.6.1-.6.5-1,1.2-1.2.4-.1.8-.2,1.2-.2,1.1,0,2.1.3,3.1.8,1,.5,1.7,1.2,1.9,2.1.1.4.2.9.3,1.4,0,.5.1.9.2,1.2,0,.2,0,.4,0,.6s0,.4,0,.5c.2.3.2.6.2.9s0,.7-.2,1.3l-.4,3.1c0,.2-.1.5-.2,1-.1.5-.3.9-.4,1.2-.2.3-.4.7-.7,1-.2.2-.2.3-.2.6-.2.5-.5,1.2-1,1.9-.3.4-.6.8-.8,1.4-.3.5-.5.8-.8,1.1,0,.1-.2.2-.3.3,0,0-.2.2-.2.2-.2.8-.5,1.4-1,1.9-.4.5-1,1.1-1.8,1.8-.8.8-1.2,1.5-1.5,2.1,0,.1-.2.4-.5.7-.2.3-.5.7-.8.9-2.2,1.6-3.9,2.7-5.1,3.3-.3.2-.7.5-1.2.9s-1,.7-1.4.9c-.3.2-.7.5-1.1.7-.4.3-.8.5-1,.7-1.8.9-4.5,2-7.9,3.2l-2.8,1.1c-1.1.4-1.9.8-2.4,1-.8.3-1.7.6-2.7.8-1,.2-1.7.3-2,.4-.4,0-.8.2-1.3.4s-.9.3-1.2.3c-.6.2-1.3.3-2.1.3-.5,0-1.2.2-2.2.3-1.3.2-2.3.3-3,.3h-.3c-.4.2-.9.4-1.5.5s-1.2.1-1.7.1h-1.4c-1.2.2-3.1.2-5.6.2h-3.9c-1.9-.1-3.8-.2-5.8-.3-4.1-.1-8.4-.5-12.9-1.2-1.3,0-2.9-.3-4.7-.8-2-.4-4-.7-6-.9-2.7-.5-5.1-1.2-7.3-1.8-1.1-.2-2.8-.6-4.9-1.2-.1,0-.3,0-.6,0-.5,0-1,0-1.6.3-.7.2-1.7.6-2.9,1.1l-2.6.9-2.1.7c-1.2.3-2,.6-2.6.8-.5.1-1.4.3-2.7.6-1.6.4-2.9.7-4.1,1-1.2.4-3,.9-5.4,1.5-3,.6-5,1-6.1,1.2-.8.2-2.1.4-3.9.7l-1.7.2c-.4,0-2.6.3-6.7.9l-4,.6c-1,.1-1.7.5-2.2,1.2-.2.2-.2.3-.2.4,0,.4-.1.8-.4,1.2s-.5.7-.6.9c-.2.2-.3.4-.4.7-.1.3-.2.6-.3.8-.2.2-.3.5-.4,1-.1.5-.2.8-.3.9,0,.1-.2.4-.4.7s-.3.7-.3,1.1,0,0-.1.2-.1.2-.2.2c-.2.5-.4.8-.6,1.1-.3.2-.5.6-.5,1.1s-.1.9-.3,1.1c0,0-.2.3-.5.6s-.5.8-.5,1.3c0,.2-.2.5-.4.9s-.4.8-.5,1.1c-.2.5-.3.8-.3,1.1,0,.3-.1.6-.2,1-.1.3-.3.6-.5.8,0,0-.1.2-.1.2,0,.7-.3,1.5-.9,2.5-.4.6-.7,1.2-.9,1.8,0,.3-.2.8-.5,1.3s-.5,1-.6,1.4c0,.1-.1.4-.3.9-.2.5-.2,1-.2,1.5-.2,1.1-.6,2-1.1,2.7-.4.5-.6,1-.6,1.4s0,.3.1.7c0,.2-.1.5-.3,1.1-.4.7-.6,1.5-.8,2.5-.2,1-.3,1.7-.4,2h0c0,.4,0,.8-.4,1.2-.3.4-.4.8-.3,1.1v.6c0,.5-.1,1-.4,1.5-.3.3-.5.6-.6.8s-.1.6,0,1c0,0,.1.2.1.2s0,.2-.2.3-.2.2-.2.4c0,.2-.2.4-.3.7-.1.2-.2.5-.2.6,0,1.5-.5,3.2-1.4,5.2,0,.2,0,.6,0,1s0,.7-.2.8c-.2.3-.2.7-.2,1.1s0,.6,0,1,0,.7,0,.9c0,0,0,.2.2.2s.3,0,.5,0c.4-.4.9-.7,1.6-1.1,1-.6,1.7-1.1,2-1.5l3.6-3.1c0-.2.3-.5.6-.9s.6-.8.9-1.1c2.1-2.1,4.4-4.5,6.9-7.2l3.5-4.3.2-.5c1.7-2,3.2-4,4.4-6,.6-.8,1.3-1.2,2.1-1.5h.4c.5,0,1,.1,1.2.5.2.2.3.4.3.6s-.1.5-.3.9c-.6,1.5-1.7,3.2-3.3,5.2l-2.5,3.3-3.9,5.4c-1.6,2-3,3.8-4.1,5.2-1.1,1.4-2.4,2.7-3.7,4,0,0-.1,0-.1.2-.6.8-1.3,1.5-2,2.1-.7.6-1.6,1.3-2.7,2.2-1.7,1.3-3.8,1.9-6.2,1.9s-1.8,0-2.6-.2c-.6-.2-1.6-.8-3-1.6h0ZM344.2,69.1h3.2c0,0,3.4-.1,3.4-.1.8,0,1.9,0,3.3,0,2.5-.2,4.6-.3,6.3-.3,1.8-.2,3.6-.3,5.5-.3.3,0,.8-.1,1.4-.1.2,0,.4-.3.5-.6s.2-.5.3-.6l.3-.2c.7-.5,1.1-1.1,1.1-1.8s.1-1.2.4-1.7c.2-.5.6-1,1.1-1.5.5-.2.8-.6.8-1.2s0-.8,0-1.1.2-.5.5-.8c.4-.2.7-.5.9-.8s.5-.7.7-1.1c.2-.4.5-.8.7-1.1.4-.6.8-1.3,1.1-2.1.4-.8.6-1.3.8-1.7l.4-.6c.5-.5,1-1.1,1.4-1.8s.6-1.3.8-1.6c.1-.2.3-.5.6-.9.3-.4.6-.7,1-.9,0,0,.2-.1.4-.3.2-.2.4-.3.4-.5,0-.2.1-.4,0-.6,0-.2-.2-.3-.5-.3s-.5,0-.7-.1-.4,0-.5,0h-.3c-.8-.2-1.5-.4-2.2-.6l-1.9-.5c-2.6-.9-5.3-1.7-7.9-2.2-2-.4-4.2-1-6.6-1.7-1.9-.5-3.7-.9-5.3-1.2-.8-.2-1.6-.3-2.5-.6-.9-.2-1.8-.4-2.8-.7-1.7-.4-4.1-.8-7.2-1.4-2-.4-3.6-.7-4.8-.9-1-.1-2.1-.3-3.2-.6-2.7-.4-4.3-.7-5-.7-.5,0-.9,0-1.1-.1-.4,0-1.4-.2-3-.4s-3.2-.3-4.6-.3h-1.9c-.4-.1-.9-.1-1.6-.1-.6,0-1.4,0-2.2-.1-.9,0-1.6,0-2.1,0h-2.9c0-.1-4.6-.1-4.6-.1-2,0-3.4,0-4.4,0h-4.3c-.4.1-.9.2-1.5.2s-1.1,0-1.5.1c-1.1,0-2.3.2-3.4.4l-2.4.2-1.5.2c-2.1.2-3.7.5-4.6.7-1.4.2-3,.6-4.8.9l-2,.4c-.3,0-.7,0-1,.1-.3,0-.7,0-1,.1l-3.7,1.3c-1.1.3-1.9.6-2.4.8-1.7.6-3.1,1.2-4.3,1.8-1.2.6-2.3,1.4-3.3,2.3-.6.7-1.1,1.4-1.5,2s-.6,1.3-.6,1.9c0,.2,0,.5,0,1,0,1.9.7,3.5,2.2,5l.9.9c.6.6,1.3,1.2,2,1.8s1.4,1.1,2.1,1.5c2.8,1.7,5.3,3,7.7,3.8.3,0,.6.2.9.3.3,0,.6.2.9.3l3.6,1.1c1.2.4,1.9.6,2.1.7,0,.1.3.2.6.2,1,.2,1.8.3,2.2.6,1.1.2,2.5.5,4.1.9,2.4.5,4.2.8,5.5,1.1.8.2,1.9.4,3.5.7.8,0,1.3.2,1.8.2,1.6.3,3.8.7,6.4,1.1,1,.2,2.1.4,3.3.6,3.6.2,6.1.5,7.3.6,3.3.5,7.5.8,12.5.9,1.7.2,3.2.3,4.6.3.5,0,1.2,0,2.1,0h4.3c.4,0,.8,0,1.2,0s.8,0,1.2,0c1.4,0,2.4,0,3.2,0h0ZM384.2,66.4c1-.2,1.8-.2,2.2-.2,1.3,0,3.1-.3,5.6-.8,1.3-.2,2.3-.4,3-.5,1.3-.2,2.3-.3,3-.5l1.8-.4c.5,0,1.2-.2,2.3-.5s2-.5,3-.6l2.2-.6c.8-.2,1.5-.4,1.9-.5,1.9-.6,4.4-1.2,7.5-1.9l.6-.3,2.3-.9c.9-.3,1.7-.6,2.3-.8.4,0,1-.4,1.7-.9l-4.6-1.4c-.4-.1-.8-.3-1.2-.4s-.9-.3-1.5-.4c-.8-.3-2.1-.7-3.9-1.2l-3.1-.9c-.3,0-1.3-.4-2.9-.9-1.4-.5-2.5-.8-3.3-1.1-.4-.1-.8-.2-1.2-.4s-.9-.3-1.3-.5c-.4-.1-1.3-.4-2.5-.8-1.3-.4-2.5-.6-3.6-.7-.1,0-.3,0-.6,0-.4,0-.8.2-1.1.6-.3.8-.5,1.2-.5,1.2-1.1,1.3-1.9,2.9-2.5,4.6-.4,1-.8,1.8-1.2,2.1-.2,0-.4.4-.6.9-.5,1.3-1.1,2.3-1.7,2.9-.1.1-.2.2-.3.4s-.1.2-.2.4l-.8,1.2c0,.1-.1.3-.2.5-.1.2-.2.4-.2.5-.4,1.3-1,2.3-1.8,3,.6,0,1-.2,1.4-.2h0ZM428.3,54.9c.8,0,1.7-.2,2.5-.6,2.3-1.1,4.6-2.3,6.9-3.6,2.8-1.7,5.4-3.5,7.9-5.4,0,0,.1-.2.3-.2s.2-.2.3-.2c.3-.5.8-1.1,1.5-1.8.8-.8,1.3-1.4,1.5-1.8,1.2-1,2.5-2.7,3.9-5.1,1.3-2.5,2.1-4.6,2.4-6.3,0-.4.2-.9.4-1.5.2-.6.3-1.2.3-1.7s0-.5,0-.7c0-.3,0-.6.1-1.1,0-.4,0-.7,0-.9-.3-1.3-.6-2.4-.8-3.2-.3-.8-.7-1.6-1.2-2.3-.7-.9-1.8-2-3.3-3.2-1.5-1-3.3-1.8-5.4-2.2-.7-.1-1.4-.2-2.1-.2s-2.1.1-3.7.4c-.2,0-.7,0-1.2.1s-1.1.1-1.4.3l-2.2.6c-1.2.3-2.1.6-2.8.8-.7.2-1.3.5-1.9.9-.3,0-.7.3-1.3.8-.5.2-1,.4-1.2.4-1.3.3-2.4.9-3.2,1.8-.1,0-.3.1-.4.2-.2,0-.4.2-.6.2l-1.4.9c-.6.4-1.5,1-2.8,1.8-.2.2-.5.4-.9.8s-.8.5-1.1.6c-.2,0-.4,0-.5.2s-.2.3-.2.3l-.3.3c-.1.1-.3.2-.4.3-.2.2-.6.5-1.1.9-.9.7-1.5,1.1-1.9,1.2,0,0-.1.1-.2.2-.1,0-.2.2-.2.2-.1.4-.3.7-.6.9s-.6.5-1,.7c-.4.2-.8.5-1.1.8-1,.9-1.7,1.7-2.1,2.4,0,.2-.1.4-.3.6-.1.2-.2.3-.3.4-.5.4-1.2,1.1-2.1,2-.3.3-.7.7-1.2,1.1-.5.4-1,.9-1.3,1.3-.4.4-.6.9-.8,1.4l-.4.4c-.2.3-.6.7-1,1.3s-.9,1.1-1.4,1.5c-.4.3-.7.7-.9,1.2-.6.8-1,1.2-1.3,1.5,0,0-.1.2,0,.3,0,.1.1.2.2.2.2.1.5.2.8.3s.5.2.7.3c.9.2,2.1.5,3.6.9l1.4.4,2.1.6c3.2.9,5.1,1.5,5.7,1.7l2.4.8c1.6.5,2.6.8,2.9.9l1.6.4c1.3.5,2.3.8,2.9.9.5.2,1.4.4,2.6.7.2,0,.7.2,1.5.4s1.6.5,2.3.9c.7.2,1.3.3,1.7.3h0Z"/>
          </g>
          <g>
            <path class="cls-1" d="M40.2,337.8c-.4-.5-.7-1.1-1.1-1.9-.6-2.4-1-4.5-1.2-6.3-.1-.9-.2-1.9-.2-2.9v-3.6c0,0,0-3.4,0-3.4,0-.4-.2-.6-.4-.6l-2.8-.9-3.1-1.2-.4-.3c-1.7-.5-3.7-1.4-5.9-2.9l-.9-.4c-.9-.4-1.6-.9-2.1-1.5,0,0-.1-.1-.2-.2,0-.1-.2-.2-.4-.4-.6-.1-1.1-.4-1.6-.7-.5-.3-1-.8-1.6-1.3l-.9-.8c-.5-.5-1.6-1.5-3.2-3.2l-1.9-2.1c-.6-.5-1.1-1.1-1.5-1.7s-.7-1-.8-1.2l-.8-1.1c-.5-.5-.9-.9-1.1-1.2l-.4-.9s0,0,0,0,0,0-.1,0c-.9-1.9-1.5-3.3-1.6-4.1-.5-.3-.8-.8-1.1-1.5s-.4-1.1-.6-1.3c-.1-.4-.3-.9-.5-1.5s-.3-1.2-.4-1.7c0-.2-.2-.5-.3-.8-.2-.3-.2-.7,0-1,0,0,0,0,0,0s0-.1,0-.2c-.4-.3-.6-.7-.8-1.1-.2-.4-.3-.8-.3-1.2s-.2-.8-.2-1l-.8-3.3c0-.2-.1-.4-.2-.7,0-.3-.1-.5-.1-.8s0-.6.2-.8c-.5-.8-.7-1.9-.7-3.1v-2.2c0-.7,0-1.2,0-1.5,0,0,0-.1,0-.3s0-.4,0-.6c0-.2,0-.4.1-.6,0-.2,0-.5,0-.9v-.6c0-.6,0-1.1.2-1.5,0,0,0-.2,0-.4v-.8c0,0-.1-.2-.1-.3,0-.2,0-.5.2-.9,0-.2.1-.6.1-1.2s0-1.1.1-1.3c0-.1.1-.3.2-.6,0-.2.1-.5.1-.8s0-.5-.1-.6v-.8c.3-.5.6-1.1.7-2,0-.1,0-.4.2-.8,0-.4.2-.7.3-1l.4-1.5c0,0,0-.2,0-.2s0-.2,0-.2c0-.7,0-1.4.3-2.1.2-.7.5-1.5.9-2.4l.8-2.1c.4-1.1,1.1-2.7,2.1-4.7l.8-1.3c.5-.4.7-.8.7-1.4s.1-.6.4-.9c.3-.3.6-.7.9-1.2s.5-.9.6-1.1c.3-.7.6-1.2.8-1.5.4-.5.9-1.1,1.5-1.8.6-.7,1-1.1,1.3-1.4.5-.7,1.6-2.1,3.6-4.4,0,0,.4-.5,1.2-1.4l.5-.3c.5-.6,1.1-1.1,1.8-1.6.2-.2.5-.4.9-.6.4-.2.6-.4.8-.6.5-.6,1-1.1,1.6-1.3.3-.2.6-.5.8-.8s.5-.5.7-.8c.2,0,.5-.2.9-.4s.7-.4.9-.8v-.2l1.8-.9c.1-.1.3-.3.6-.7s.5-.5.8-.5l1.3-.8c1.2-.7,2-1.2,2.4-1.5.5-.2,1-.5,1.5-.8s1-.5,1.3-.6c.2,0,.7-.3,1.4-.8,0,0,.2-.1.3-.2.1,0,.3-.1.4-.1l3.6-1.2c1.3-.5,2.9-1,4.8-1.4,1.1-.2,2.3-.5,3.6-1,.3-.1.7-.2,1.2-.2s.9,0,1.2,0c1.3-.3,3.1-.4,5.2-.4h3.1c2.4.1,4.4.3,5.9.6,2,.2,3.7.5,5.1.9l1.5.4c1.1.4,2.1.7,3,.9.8.2,1.7.5,2.6.9.9.4,1.7.9,2.5,1.3l2.8,1.4c1.5.6,2.8,1.5,3.8,2.7h.3c.5.7,1.3,1.5,2.4,2.4l1,.9c.3.2.5.5.7.8s.3.6.3,1c0,.1,0,.3.1.5s.2.3.2.4l1.4,1.9c.1.2.3.4.6.8.3.4.5.7.6,1,.2.8.5,1.5,1,2.4.4.8.8,1.4,1,1.8.4.7.6,1.3.6,1.8s0,.4-.1.8c0,.5,0,.9.2,1.1.8,2.1,1.2,3.3,1.3,3.8.7-.4,1.5-.9,2.6-1.7.5-.4,1.1-.8,1.8-1.2.8-.4,1.8-1.1,2.9-2,.2-.2.6-.4,1.1-.8s1-.7,1.4-.9c.7-.4,1.2-1,1.4-1.8,0-.2,0-.6.2-1.1s.2-1,.3-1.4c.2-.6.3-1.4.3-2.4s0-.5.3-.8c.2-.2.4-.6.4-.9s0-.3-.1-.6c0-.4,0-.6.2-.8.2-.4.4-.8.4-1.2s0-.7.1-.9c0-.5.2-1,.3-1.5.1-.5.3-1,.6-1.3,0-.1,0-.3.2-.6,0-.3.2-.5.3-.8,0-.2.1-.4.1-.7v-.7c0-.4,0-.7.2-.9,0-.2.1-.5.2-1,.1-.5.2-.9.2-1.3s0-1.1.3-1.8.3-1.1.4-1.4c0-.3,0-.5.1-.6.3-.3.5-.7.5-1.1s0-.8,0-1.3,0-.7.1-.8c.2-.2.4-.4.5-.6s.2-.5.2-.8,0-.5,0-.6c0-.5.2-1.2.6-1.9,0-.2.2-.6.4-1s.3-.8.3-1.1,0-.4,0-.5c0,0,0-.1,0-.2s0-.2,0-.3,0-.2.1-.2c.4-1,.7-1.8.9-2.2l1.1-2.4c.5-.6.8-1.2.8-1.6v-.8c-.1-.1,0-.3,0-.4s.1-.3.2-.4c.5-.6.8-1.1.8-1.5s0-.3,0-.4c0-.1,0-.2,0-.2l.8-1.6c.6-1.2.9-1.9,1.1-2.1.3-.5.6-1.1.9-1.9.3-.8.5-1.3.6-1.5.2-.5.3-.9.6-1.1.5-.3.9-.9,1.2-1.8,0,0,0-.2,0-.2s0-.2,0-.2c.2-.3.6-.8,1.1-1.5s1-1.4,1.2-1.9c.3-.5.6-.8.9-1.1s.6-.5,1.1-.5c.2,0,.4-.2.5-.5s.2-.4.2-.5c0-.3.2-.6.5-.8l.5-.5c1.1-.8,2.2-1.8,3.2-2.9.2-.2.6-.5,1.2-1.1.6-.6,1.1-1.2,1.5-1.9,0,0,0-.2,0-.2s.1,0,.2,0l1.4-1c2.5-1.7,4.1-2.7,4.6-3v-.2c.8-.2,1.6-.6,2.5-1.1,1.6-.8,2.8-1.2,3.5-1.4.5,0,1.1-.1,1.8-.3.9-.2,1.7-.3,2.4-.3h.8c0,0,.8,0,.8,0,.7,0,1.1-.1,1.4-.1,1.5,0,3.3.4,5.6,1.2.8.2,1.4.7,2.1,1.3s.6.6,1.2,1c.5.4.9.8,1.1,1.2.6,1,1.1,1.8,1.4,2.5.3.7.4,1.4.4,2.3l.6,3.4c0,.2,0,.4,0,.7,0,.3,0,.5,0,.7,0,.3-.2.8-.2,1.5-.3,1.6-.5,2.6-.7,3.1-.2,1.3-.7,2.7-1.3,4.2-.2.8-.7,2-1.4,3.5l-.7,1.5c-.3.5-.8,1.1-1.4,2.1l-1.9,2.9c-.9,1.6-2.2,3.3-3.9,5.2-.2.5-.7,1.1-1.4,1.8l-3.6,3.9c-1.1,1.1-2.2,2.2-3.3,3.3l-1.6,1.6-3.3,2.9c-2.5,2.1-3.9,3.4-4.4,3.8l-1.2,1.1c-.6.6-1.2,1.1-1.8,1.6h-.1l-5.1,4.1-2.8,2.1c-1.6,1.3-3.5,2.7-5.6,4.1l-1.2,1.2c-.3.3-.5.6-.5.8,0,.4,0,.8-.2,1.2-.1.4-.2.7-.2.9,0,.1,0,.3,0,.6s0,.4,0,.6c0,.4-.2.8-.3,1.2-.2.8-.4,1.3-.4,1.6s0,.4,0,.6c-.2.3-.3.8-.4,1.4,0,0,0,.3,0,.6s-.2.6-.4.9c0,0-.1.2-.1.4s0,.4.1.4c.2.3.2.7.2,1s-.2.8-.4,1.1c0,0-.1.3-.1.6,0,.4,0,.9-.1,1.5s0,1.1-.2,1.5c0,.2,0,.5-.3.9-.5.6-.7,1.5-.7,2.6s0,.8.1,1.5c0,.3,0,.6,0,1.1,0,.4,0,.8,0,1.1s0,.5,0,.7c-.2.3-.3.7-.4,1.2,0,.5-.1.8-.2.9,0,.4,0,.8-.2,1.2-.2.5-.3,1-.3,1.4l-.2.4c0,.2-.1.3-.1.5,0,.4,0,.8-.2,1.4-.2.5-.3.9-.4,1.2,0,.2,0,.4-.2.6,0,.2-.2.4-.2.5,0,.2,0,.9-.1,2-.1.5-.2,1-.2,1.4s0,.5-.1.6c-.3.7-.5,1.5-.7,2.4-.2.9-.3,1.6-.4,1.9-.2.7-.5,1.2-.9,1.7-.5.6-.8,1.3-.8,2.1,0,0,0,.2,0,.4,0,.4-.2.8-.6,1.2,0,.1,0,.3-.2.6,0,.2-.2.5-.2.6,0,.4,0,.8-.2,1.2s-.3.7-.4.9l-1.3,2.1s0,0,0,.1,0,.1,0,.2c0,.1,0,.3,0,.5,0,.4-.2.8-.4,1.3s-.5.8-.5,1c-.2.4-.4.8-.6,1.1-.3.7-.7,1.1-.9,1.4,0,.1-.1.3-.1.6-.7,1.5-1.4,2.9-2.2,4.3-.9,1.1-1.5,2-1.7,2.9,0,.2,0,.4-.2.5s-.3.2-.5.4c-.7.6-1.1,1.2-1.3,1.8-.2.3-.4.8-.7,1.3-.3.5-.6,1.2-1,1.9-.2.5-.5.8-.8.8-.8.5-1.4,1.3-1.8,2.4-.5.7-.9,1.3-1.3,1.8-.4.5-.9.9-1.5,1.2-.6.3-1.3,1.1-2.1,2.2-.1.5-.4.9-.9,1.2-.6.5-1.5,1.5-2.7,2.9-.6.4-1,.7-1.2.9-.2.1-.3.2-.4.3s-.2.1-.3.2c-.7.8-1.7,1.8-3.1,2.8l-1.1.8c-.4.1-1.1.5-2.1,1.1-.3.3-.7.5-1.1.7-.2.4-.6.7-.9.8-.7.2-1.6.6-2.9,1.3-.7.4-1.4.8-2.2,1.1-.6.3-1.3.5-2.1.8-.4,0-.7,0-.9.1l-1.9.8c-.2,0-.5.2-.8.3-.3.1-.7.3-1.1.4l-1.4.3c-2.5.3-4.4.6-5.6.8-2.2.3-3.9.6-5,.7-1.1.2-2.1.3-2.8.3s-1.5-.1-2.3-.3c-.4-.1-.8-.1-1.1,0-1,0-2,0-3-.1s-2.2-.3-3.8-.6c-.3,0-.6,0-1-.2s-.6-.2-.8-.2c0,0-.2,0-.4,0-.4,0-.6.3-.6.8,0,.4,0,.8-.1,1.4,0,.6,0,1.2,0,2s0,1.2,0,1.5c0,0,0,.2,0,.4v1c0,.3,0,.8,0,1.4,0,.6.2,1.2.3,1.8.2.7.3,1.4.4,2.2,0,.8.2,1.3.2,1.7.1.6.3,1.2.6,1.7.2.7.5,1.2.8,1.6.2.5.4.8.4,1,0,.5-.5.8-1.4.8-1.4.1-2.5-.5-3.4-1.8h0ZM38.1,314.6c.2,0,.4-.2.6-.5l.6-3.1c.2-1.3.5-2.8,1-4.2.3-1.2.6-2.2.7-2.8,0-.2.2-.6.3-1.2.2-.7.5-1.3.8-1.9.6-1.4,1.1-2.7,1.5-4l.8-2c.2-.3.3-.7.5-1.2s.4-.8.5-1.1c.3-.5.7-1.1.9-1.9.4-1,.8-1.8,1.1-2.2,0,0,.1-.2.1-.3s0-.2-.2-.2c-.2-.1-.4-.2-.6-.3-.2,0-.3-.1-.3-.2-1.2-.2-2.4-.8-3.5-1.6-.2-.1-.5-.4-1-.8-.5-.4-1-.8-1.4-1-.5-.5-1.1-1-1.7-1.5-.6-.5-1-1-1.3-1.5,0-.3-.3-.9-.8-1.7-.3-.6-.6-1-.7-1.3l-.6-1.1c-.2-.5-.5-.9-.8-1.2,0-.2-.1-.5-.1-.9,0-.3,0-.8,0-1.4,0-1,0-1.8-.2-2.4-.2-.5-.4-1-.4-1.5s0-.7.2-1.4c.3-1,.5-2,.8-3.1.2-.7.4-1.3.6-1.8.5-1.2.8-2.2.9-3,0,0,0-.2.2-.3,0-.1.2-.3.2-.4.1-.2.3-.5.7-1,.3-.5.5-.9.5-1.3s0-.2.2-.3l3.2-3.9c.7-1,1.7-1.8,2.9-2.2,1.2-.8,2.5-1.2,3.8-1.2s.7,0,1.3.1c1.3.1,2.3.6,3,1.5,0,0,.1.2.1.3v.6c-.2.1-.5.4-.8.7-.3.3-.7.7-.9,1s-.4.7-.4,1c0,0,0,.1,0,.2,0,0-.1,0-.2.1-.2.2-.5.4-.6.7-.2.3-.3.6-.4.8,0,.2-.2.4-.2.6l-.8,1.7c-.6,1.2-.9,2-1,2.5l-.3.4c-.3.6-.5,1.1-.7,1.5,0,.4-.2.8-.2,1.3s0,.9,0,1.2c0,0,0,.1,0,.2,0,.1,0,.2,0,.2-.2.2-.2.5-.2.9v.6c0,.3,0,.5,0,.6,0,.2,0,.5,0,.8s0,.6,0,1v1.2c0,.3,0,.6.1.9.2.4.3.9.4,1.5,0,.6.2,1,.2,1.3,0,.9.3,1.7.9,2.2.4.4.6.8.6,1.1l.9,1.3c.4.2.6.6.6.9,0,.3.3.5.6.7s.5.3.6.3c.2.2.4.4.5.4.1,0,.2-.1.4-.4.3-.4.6-.8.8-1.4l1-1.6c1.6-2.2,2.8-3.8,3.8-4.9.1-.2.2-.4.4-.6s.2-.4.4-.6c.6-.6,1.4-1.5,2.5-2.8,1.3-1.5,2.3-2.6,3.1-3.2l1.4-1.4c.9-.9,1.8-1.7,2.6-2.4.4-.6,1-1.2,1.6-1.8.7-.6,1.3-1.2,1.9-1.8.3-.3.7-.5,1-.8s.6-.5.8-.7l1.9-1.6,3.9-3.3,2.5-1.9c.9-.8,1.8-1.6,2.9-2.3,1-.8,1.8-1.3,2.2-1.8.3-.2.7-.5,1.2-.9s.8-.6,1.2-.8c.2,0,.3-.2.4-.4,0-.2.1-.4.1-.5,0-.1,0-.3,0-.6v-1.1c0,0-.2-.9-.2-.9,0-.1,0-.3,0-.6s0-.5,0-.8,0-.5,0-.7c0-.4,0-.7.2-.9,0-.1,0-.2-.2-.3-.2-.4-.3-.8-.3-1.1s0-.5.2-.8v-.5c0-.3-.2-.7-.2-1.1,0-.4-.2-1-.4-1.6,0-.1,0-.3-.1-.4s0-.3-.2-.4c-.2-1.2-.4-2-.8-2.4,0-.1-.2-.4-.3-.9-.2-.5-.2-.9-.2-1.3s-.2-.9-.6-1.3c0-.2-.2-.5-.5-1s-.3-.9-.3-1.5l-.3-.4-1.6-2.2c-.6-.4-1.1-1.1-1.4-1.9l-.4-.4-1.8-1.8c-.2-.4-.3-.7-.6-.8-.4-.2-1.1-.5-2.1-1.1-.2,0-.5-.2-1-.5s-.9-.4-1.4-.6c-.9-.2-2-.5-3.1-.9-.2,0-.7-.2-1.6-.5-.9-.3-1.8-.5-2.8-.6-1.2-.1-3.2-.3-5.9-.4-.2,0-.6,0-1.1,0s-.9,0-1.1,0c-2.3.4-4.2.8-5.6,1.2l-2.2.6c-1.3.3-2.4.6-3.2.8-.9.3-1.7.7-2.5,1.2h-.3c-1.1.5-2.3,1-3.6,1.6l-1.2.6c-1.4.6-2.8,1.4-4.1,2.5-.2.1-.4.3-.6.5-.4,0-.7.2-.9.3s-.4.3-.4.6c-.2.2-.3.3-.5.3s-.3,0-.4.1c-.2.2-.6.5-1.2.9-.2,0-.4.2-.6.5s-.4.4-.5.5c-.5,0-.8.1-.9.3-.5.5-1.1,1.1-1.8,1.6-.5.3-1,.7-1.6,1.3-.1,0-.3.3-.7.5-.3.3-.5.6-.7,1,0,0,0,.1-.2.2-.1.1-.2.2-.2.2-.5.3-1,.7-1.4,1.2s-.8.9-1.1,1.3c-.3.4-.6.7-.7.9l-2.1,2.4c-.2.2-.4.5-.6.8s-.3.6-.5.7c-.1.2-.3.5-.7.9s-.5.8-.7,1.2c0,.1-.3.4-.7.8-.4.4-.6.9-.7,1.5,0,0,0,.2,0,.2s0,.1,0,.2c-1,.9-1.8,2.3-2.5,4.2-.2,1.2-.9,2.4-1.8,3.8-.7,1.3-1.1,2.6-1.2,3.8,0,.2-.1.5-.3,1.1-.2.4-.3.9-.4,1.6-.1.6-.2,1.1-.2,1.3,0,.4-.2.8-.3,1.2-.1.4-.2.8-.3,1.2l-.2,1.5c-.2,1.2-.4,2-.4,2.6,0,.5-.1,1.2-.3,2.2,0,.2,0,.7-.2,1.3,0,.6-.1,1.2-.1,1.8v1c0,.2,0,.4,0,.5,0,0,0,.2,0,.3v.6c0,0,0,1.3,0,1.3,0,.2,0,.5,0,.8s0,.6,0,.9c0,1.3,0,2.6.3,3.8.3,1.2.7,2.8,1.3,4.9.5,1.3.9,2.9,1.2,4.8l.5,1c0,.2.2.4.3.8s.3.7.4.9c.4,1.5,1.1,3.2,2.1,5.1l1,1.6c1.2,2,2.3,3.5,3.2,4.4l.9,1.2c.1.1.4.5.9,1.2s1,1.2,1.6,1.6c.5.3,1.3,1,2.4,2.1,1,1,1.9,1.8,2.6,2.2l1.2.9c.8.6,1.3.9,1.5,1.1.4.2,1.1.6,2.2,1.2,1.4.8,2.5,1.3,3.2,1.5.2,0,.4.1.6.3.4.2.8.3,1.3.4.5,0,.8.1,1,.2h.4c0,0,0,0,0,0ZM53.6,317.3c2-.2,3.5-.3,4.4-.5,3-.6,5.2-1.1,6.8-1.6.2,0,.5-.2,1-.3s.8-.2,1.1-.4c.3-.1.6-.3.8-.5.1-.2.5-.3,1.1-.3.5-.2.9-.4,1.2-.5.2,0,.5-.3,1.1-.5s1.1-.6,1.6-.9c.2-.1.6-.4,1.2-.8.8-.4,1.3-.7,1.6-.9,1.2-.8,2-1.4,2.4-1.9.5-.8,1.3-1.6,2.4-2.4l.2-.3c.1-.1.4-.4.8-.8.4-.4.8-.8,1.3-1,0,0,.2-.4.6-1.1.2-.2.5-.5.8-1s.6-.8,1-.9c.5-.3,1-.9,1.7-1.8.1-.3.3-.5.5-.8s.4-.4.7-.5c.3-.2.6-.4.7-.7.1-.2.2-.6.4-1,0-.6.4-1.2,1.1-1.8.5-.3,1-1,1.8-1.9l1.4-1.9.3-.4c.2-1.1.6-1.8,1.3-2.1,0,0,.2-.2.3-.4s.2-.3.2-.5c0-.5.2-1,.6-1.5.3-.5.6-.9.8-1.2.6-.8,1-1.6,1.2-2.4.2-.4.5-.6.6-.8.5-.3.8-.9,1.1-1.8,0-.4.3-.9.7-1.7,0-.1.2-.4.4-.7.2-.3.3-.7.4-1.1.7-.7,1.1-1.4,1.3-2.2,0-.2.2-.4.2-.8s.2-.6.3-.8c.2-.3.4-.8.7-1.4.3-.6.5-1.1.5-1.6.5-1.2,1-2.4,1.5-3.6l.4-1.8c.3-1.2.5-2.1.6-2.8,0-.1,0-.5.2-1.1.1,0,.2-.2.2-.6.2-.8.5-1.6.6-2.6.2-1.4.5-2.4.9-3h.1c0-.1,0-1.5,0-1.5,0-.6.1-1,.4-1.3,0-.1-.1-.2-.1-.3v-.9c0-.2,0-.5.2-.8,0-.3.2-.5.2-.6s.1-.4.2-.8.2-.9.2-1.3,0-.5,0-.7h.1c0-.4,0-.8,0-1.2,0-.4,0-.8,0-1.2s0-.6,0-.8v-.2c0-.2,0-.5.1-.8s.2-.5.2-.7c.2-.3.3-.8.3-1.6,0-1.3.2-2.3.4-3,0-.2.1-.5.2-1s.2-.8.4-1.2c0,0,0-.2-.2-.3h-.2l-3.8,2.6c-1.2.8-1.8,1.3-1.9,1.4-1.5,1.1-2.6,1.8-3.2,2.1,0,0-.2,0-.3.1s-.2.1-.2.2c0,.1-.2.5-.3,1s-.3,1.1-.3,1.5,0,.9.3,1.4c.2.4.2.6.1.8-.1.5-.2,1.1-.2,1.8s0,1,0,1.2c0,.3-.1.6-.1.9,0,.4,0,.8,0,1.3,0,.5,0,.9,0,1.2,0,.8,0,1.4-.3,1.8,0,.1,0,.3,0,.5s0,.4,0,.7c0,.9,0,1.6.2,2.1,0,.6,0,1-.2,1.1-.4.4-.6.9-.6,1.5-.2.5-.4,1.1-.4,1.6s0,.5,0,.6v.6c-.8,1.6-1.3,2.8-1.6,3.4,0,0-.1.3-.2.5-.1.3-.2.5,0,.7,0,.1,0,.3,0,.4,0,.5-.1.8-.4,1.1-.4.3-.7.6-.8,1-.2.4-.3.8-.3,1.3,0,.4,0,.7-.2.9-.5.8-1.1,1.8-1.6,2.8l-.9,1.9s-.1.2-.2.3c0,.2-.2.3-.4.4-.4.2-.8.5-1,1s-.5.8-.6.9c-1.3,1.8-2.7,3.1-3.9,4.1,0,0-.1,0-.2.2,0,0-.2.2-.2.3-.3.4-.8.9-1.6,1.4-.6.4-1,.8-1.2,1-.2.2-.7.5-1.4.9-.8.4-1.4.8-1.8,1.3l-1.2.4c-.1.1-.3.2-.6.4-.3.1-.5.2-.8.4-.2.1-.4.2-.8.4-.3.1-.6.2-.9.4l-3.3.9c-.6.1-1.2.3-1.6.4l-2.2.5c-1.2.2-3,.2-5.2.2s-.3,0-.5,0-.4,0-.5,0c-.6,0-1,.1-1.4.1s-.8,0-1.5-.1c-2.6-.6-5.3-1.1-8.1-1.4-.1,0-.3,0-.5,0-.3,0-.6.2-.8.5,0,.2-.2.6-.5,1.1s-.4.9-.5,1.1c-1,2.1-1.9,4.5-2.9,7.2l-.8,2c-.6,1.2-1,2.3-1.2,3.1-.3.8-.7,2-1.2,3.6-.3,1.6-.7,3.6-1.1,5.8,0,.2,0,.6,0,1s0,.8.3,1c.2.2.6.3,1.2.5h.2c0,.1,3.8.4,3.8.4h1.4c.2.1.5.1.8.1.3,0,.8,0,1.2.2.8,0,1.3-.1,1.8-.1h0ZM64.2,284.4l3.1-.6c.6-.2,1.2-.4,1.9-.8s1-.6,1.1-.7c.3-.2.8-.5,1.5-.9.2,0,.5-.3.9-.6s.9-.5,1.3-.6v-.2c.6-.4,1.2-.9,1.8-1.5.8-.8,1.5-1.2,1.9-1.5,0,0,0,0,0-.1s0-.1,0-.2c.3-.6.6-1,.8-1.3.2-.3.5-.5.9-.6.3-.1.6-.5.9-1.1.2-.6.5-1,.8-1.2h0c.1-.3.3-.5.6-.7s.4-.5.6-.7c.1-.2.2-.4.2-.7.1-.4.3-.8.7-1.2.3-.4.6-.8.7-1,0-.2.2-.4.3-.6.2-.2.2-.5.3-.7s0-.5,0-.8c0-.1,0-.3.2-.5s.2-.3.2-.4c0-.2.2-.5.5-.8s.4-.7.4-1c.2-.2.3-.6.3-1s0-.7.1-.8l.5-1.2c0-.2.2-.5.4-.9s.2-.8.2-1.2v-.2c0-.2,0-.6.3-1.2.3-.3.5-.9.7-1.6.2-.7.2-1.3.2-1.9s0-.7,0-1.4,0-1.4.3-1.9v-.6c-.1-.4-.3-.6-.6-.4l-.6.4c-.8.5-1.8,1.2-3.1,2.3-1.1.9-1.7,1.4-1.8,1.4l-2,1.8-2.5,2.2c-.8.5-1.8,1.4-3.2,2.7l-1.3,1.2c-3.2,3-5.8,5.5-7.8,7.5-2.8,3.2-4.8,5.6-6.1,7.4-.2.2-.5.5-.8,1s-.5.8-.6,1.1c-.8.8-1.4,1.8-1.9,2.8-.5,1-.9,1.7-1.1,2-.2.3-.3.5-.3.6,0,.1.2.2.6.4.7.3,1.7.5,3.1.7,1,0,1.7.2,2.1.3.7-.2,1.7-.4,3.1-.6h0ZM127.1,217.4c.2-.2.5-.4.7-.6.2-.2.4-.3.5-.5l2.4-1.8,3.2-2.4c.3-.3,1.2-1.1,2.7-2.2,2-1.6,3.6-3,4.6-4.1.1-.2.4-.3.7-.5.3-.1.6-.3.7-.4l4.2-4.1c.7-.6,1.9-1.8,3.6-3.6l1.3-1.3s.2-.3.9-1.1c.8-1,1.5-1.8,2.1-2.2l2.3-2.8,1.2-1.4c.8-1.2,2-3,3.5-5.6.2-.4.4-.7.6-1,.2-.3.3-.5.4-.8l.6-.9c0-.3.4-1.1.9-2.4,0-.2.3-.8.6-1.7s.5-1.7.6-2.5c0-.3.1-.6.3-1s.2-.7.2-1c.2-.5.3-1.2.4-1.9,0-.7,0-1.4,0-2.1,0-1.1-.1-2.4-.3-3.9-.2-1.2-.4-2.1-.6-2.6-.1-.3-.3-.7-.6-1.2-.3-.5-.5-.8-.6-1.1-.8-1-1.7-1.6-2.8-1.6s-.5,0-.7,0c-.3,0-.6.1-1,.3-.4.1-.7.3-1,.3s-.6.3-1.1.6c-.4.3-.8.5-1.2.8l-2.1,1.4c-.3.2-.5.3-.8.5s-.4.3-.6.5c-.8.8-1.5,1.2-2,1.4-.2,0-.4.2-.5.5s-.2.5-.3.7c-.2.6-.5,1-.8,1.1-.5.3-.9.6-1.2,1-.4.4-.7.8-1,1.3s-.6.8-.8,1.1c-.2.2-.5.7-1,1.3s-.9,1.1-1.4,1.5c-.4.3-.6.5-.8.8,0,.3-.2.6-.4.8-.2.3-.3.4-.4.5-.2.2-.4.5-.5.8-.1.3-.2.6-.3.8,0,0,0,.1-.1.2s-.1.2-.2.2c-.2,0-.4.1-.5.3-.1.1-.2.3-.2.5s0,.3,0,.4c-.2.6-.6,1.6-1.2,2.8-.2.2-.4.7-.6,1.2-.9,1.4-1.6,2.8-2.1,4.3l-.4.9c-.2.1-.3.3-.4.6s-.2.4-.3.5c-.2.5-.4,1.2-.5,2.1,0,.6-.2,1.2-.4,1.7,0,.1-.2.3-.3.7-.1.3-.2.5-.3.7-.3.2-.5.4-.6.7s-.1.4-.2.5c0,.4,0,.8-.2,1.4-.1.5-.2,1-.2,1.4-.5.4-.8.8-.9,1.3s-.3,1.2-.4,2.1c-.2,1.4-.4,2.3-.6,2.8-.5.9-1,2.4-1.7,4.4,0,.3-.1.7-.1,1.2l-.3.9-.8,2.1c-.2.8-.3,1.4-.3,1.9,0,.7-.2,1.4-.3,2.1-.2.7-.4,1.3-.7,1.9h0c0,.2,0,.3.1.4h.3,0Z"/>
            <path class="cls-1" d="M201.2,291.8c-.8-.2-1.5-.7-2-1.3s-1.1-1.4-1.7-2.3c0-.3-.2-.7-.2-1.2s-.2-.8-.3-1.1c-.1-.5-.2-1-.2-1.6s0-.9.1-1.6v-1.5c0-.2,0-.4.1-.7s0-.5,0-.7.1-.8.3-1.5c.4-.7.6-1.6.6-2.6,0,0,0-.2,0-.4s0-.3,0-.4c0-.1,0-.2.1-.4,0-.2,0-.4,0-.5s0-.2,0-.2c0-.4,0-.8,0-1.1.1-.3.2-.6.4-1,.2-.3.3-.6.4-.8.3-.5.5-1.2.7-1.9s.3-1.2.4-1.5c0-.3.1-.7.2-1,.1-.3.3-.6.5-.8.8-1.2,1.5-2.8,1.9-4.5.3-1.2.8-2.2,1.5-3,.2-.2.5-.7.7-1.2s.4-1,.5-1.3c.2-.3.3-.6.4-.9,0-.3.2-.6.4-.9.4-.7.7-1.5,1.1-2.4,0-.4.2-.9.4-1.3.2-.5.4-.8.5-1,.2-.4.3-.7.3-.9,0-.3-.1-.6-.4-.8-1.4-.8-2.4-1.4-3-1.6-.2,0-.6-.2-1.1-.4s-.9-.4-1.3-.6c-.4-.2-.7-.4-1-.7s-.4-.3-.6-.3c-.1,0-.2-.1-.4-.2-.1,0-.2,0-.4.2,0,.1-.1.2-.2.4-.1.1-.2.2-.2.4-.2.7-.5,1.4-.9,2.2s-.9,1.5-1.3,2.2c-.4.6-.8,1.2-1.2,1.9-2.4,4.2-4.2,7.4-5.4,9.6l-2.8,4.9-1.2,2.1c-.2.4-.2.7-.2.9-.5,1-1,2.1-1.7,3.2s-1.1,1.9-1.4,2.3c-.7,1-1.1,1.8-1.4,2.3-1.6,2.3-3.5,4.8-5.6,7.4-1.2,1.7-2.6,3.1-4.2,4.1-1.7.8-3.2,1.2-4.6,1.2s-2.2-.2-3.5-.8c-2.2-1-3.6-2.6-4.2-4.8-.3-1-.5-1.7-.6-1.9,0-.2,0-.5-.1-.9,0-.4-.1-.7-.2-.9h.2c0-.7,0-1.2-.2-1.5,0-.3,0-.6-.2-1,0-.4,0-.7,0-1,0-.5,0-.9.2-1.2,0-.3,0-.5-.1-.6,0-.3-.1-.5-.3-.6,0,0-.1,0-.3.2-.1,0-.2.2-.3.3-.5.5-.9,1-1.2,1.4-.3.4-.6.8-.9,1.1-.5.8-1.1,1.6-1.7,2.2,0,0-.5.6-1.6,1.8-1.7,1.9-3,3.2-3.9,4-.2.2-.3.4-.3.4-.8.8-1.6,1.4-2.4,1.8-.5.3-1,.6-1.5.8s-1,.5-1.5.5c-.7.1-1.3.2-2,.2-2.2,0-4-.8-5.4-2.3-.6-.7-1-1.3-1.3-1.7s-.6-1-.8-1.6c0-.1-.2-.2-.3-.4s-.2-.2-.2-.4c-.3-.4-.4-.8-.3-1.2,0-.2.1-.5.1-.8-.2-.5-.4-1.2-.4-2.1s0-1.5.2-2.1v-1.1c0-.2,0-.4,0-.6v-.6c0-.6.1-1,.4-1.4.1,0,.2-.3.2-.8,0-1.3.4-2.7,1.2-4.2l.4-1.6c0-.2.2-.5.3-.9.1-.4.3-.8.5-1,.2-.2.3-.5.3-.8,0-.3-.1-.5-.1-.6,0-.4.1-.8.4-1.1s.4-.6.5-.7l.3-.3c.2-.2.3-.4.3-.7,0-.5.2-1,.4-1.4s.4-.8.7-1.2c.2-.4.4-.6.5-.8,0-.1.1-.2.2-.3.1,0,.2-.2.2-.2,0-.4,0-.7.2-1s.4-.5.7-.8.5-.5.6-.7c.3-.4.6-.8.9-1.4.3-.5.6-.9.7-1.2.8-1.2,1.4-2.2,1.9-2.8.5-.6,1.1-1.1,1.8-1.6.1,0,.2,0,.3-.2s.2-.2.2-.3c.3-.6.7-1,1.2-1.4.5-.3,1.1-.7,1.8-1.1.3,0,.7-.3,1-.8.1,0,.2-.1.4-.2s.2-.2.4-.3c.3-.1.9-.4,1.7-.7.8-.3,1.6-.6,2.2-.7.7-.1,1.4-.2,2.1-.1.3,0,.8,0,1.6-.1,1,0,1.8-.1,2.4,0,2.5.5,4.5,1.2,6,1.9.5.3,1,.6,1.4.8.4.2.8.4,1,.6,0,0,.2,0,.3,0,.2,0,.4-.1.6-.4,0,0,0-.2.1-.2s.1-.1.1-.2c.2-.4.4-.8.7-1.1.3-.3.6-.7,1-1s.7-.7.9-1l.9-.5c1-.4,1.9-.6,2.8-.6s2.2.2,3.3.8c.2,0,.4.1.6.3.2.1.4.2.5.3,0,.2.2.3.2.4,0,.1.1.2.2.3,0,.3,0,.6,0,.8s0,.5,0,.6c0,.6-.1,1-.4,1.3-.2.3-.3.6-.4.9,0,.3-.2.6-.4.9,0,0-.2.3-.4.6s-.3.7-.3,1.1c0,0-.1.2-.2.3,0,.1-.2.3-.2.4-1,1.8-1.6,2.8-1.8,3.1,0,.1-.2.3-.2.5s-.1.3-.2.5c-.5.5-.8,1.2-.8,2.1s0,.3-.2.5c-.1.2-.2.4-.3.6-.2.4-.5.9-.9,1.6-.1.2-.3.5-.4.8s-.4.6-.6,1c-.2.2-.3.5-.3.7s0,.5-.1.6c0,.2-.2.3-.3.5s-.2.4-.3.6c0,0,0,.2-.1.2s-.1.1-.1.2c0,.3,0,.6,0,.8-.1.2-.2.5-.4.8s-.3.5-.4.7c0,0-.1.3-.3.5-.1.3-.2.5-.3.8s0,.5,0,.7c0,0,0,.1,0,.2,0,0,0,.2,0,.2-.5.7-1,1.5-1.2,2.2s-.5,1.6-.7,2.4-.3,1.4-.4,1.8l-.9,3.3c0,.3-.1.7-.1,1.2-.2.5-.3.9-.3,1.2,0,0-.1.2-.2.2s-.1.1-.1.2c0,.1,0,.3,0,.6s0,.7-.2,1.3-.2,1-.2,1.4c0,.7-.1,1.8-.1,3.3s0,.5.1.8c.2.5.5.6.8.3.2,0,.6-.2,1.1-.4.5-.2.9-.4,1.2-.7l1.2-1.2c1.5-1.5,2.7-2.8,3.4-3.6,1.8-2.2,3.1-3.9,3.9-5.1.7-.8,1.5-2,2.4-3.5,1-1.5,2-3.3,3.1-5.4l1.8-3.1,3.2-5.5c.7-1.2,1.7-3.1,3.1-5.5l1.5-2.3c.7-1,1.3-2,1.8-2.9.5-.8,1.1-1.9,1.8-3.5l.6-1.1s0-.1,0-.2c0-.1,0-.3,0-.5h-.2c-.4-.4-.7-.6-.9-1s-.5-.7-.8-1.2-.5-.9-.7-1.2c-.6-1-.9-2.1-.9-3.3s0-1.1.2-1.6c0-.1,0-.3.1-.5s.1-.4.2-.5c0-.5.1-.8.3-.9,0-.2.2-.4.4-.8.2-.4.3-.8.4-1.1.1-.3.3-.7.6-1.1.3-.4.5-.7.7-1,.9-1.4,2.1-2.6,3.8-3.6,1.4-.8,2.8-1.2,4.1-1.2s2.3.3,3.4.8c.7.3,1.2.8,1.5,1.5,0,.1,0,.3,0,.4s0,.3,0,.3c-.4.9-.7,1.7-1.1,2.2-.6,1.1-1,1.7-1.2,1.9-.2.2-.3.6-.5,1.1-.1.5-.3.8-.4,1.1-.3.4-.6.8-.7,1.2-.1.4-.3,1-.5,1.7-.1.3-.2.8-.3,1.2s-.1.9-.2,1.2c.1.1.2.2.2.3.1.2.4.7.7,1.5.4.8.8,1.3,1.3,1.7.8.6,1.4,1,1.7,1.3.2.2.5.4.9.6.7.2,1.7.6,3.1,1.4,1,.6,1.6.9,1.8.9,1.1.6,1.9,1.3,2.4,2.1.6.5,1.1,1.1,1.4,1.6.4.6.6,1.1.6,1.5-.2,1.3-.3,2.4-.4,3.1-.1.7-.4,1.4-.8,2.1-.3.5-.7,1.3-1,2.4,0,.2-.3.6-.6,1.3s-.7,1.3-1.1,1.9c-.2.2-.4.5-.5.9s-.2.8-.3,1c0,.1-.1.3-.2.5,0,.2,0,.3-.1.4,0,0-.2.2-.3.5s-.3.5-.4.9c0,.1,0,.2-.2.4s-.2.2-.2.4c-.7.8-1.1,1.7-1.2,2.7,0,.2-.1.6-.3,1-.2.4-.4.7-.4.8-.9,1.9-1.6,4.1-2.2,6.4,0,.2-.2.6-.2,1s-.2.7-.3,1-.3.5-.5.7c0,.1,0,.2-.2.3,0,.6-.2,1.6-.5,2.8-.3,1.3-.5,2.4-.5,3.1s0,.9-.2,1.4-.2,1-.3,1.2c0,.1,0,.2.2.3.1,0,.2.1.3.1,0,0,.2-.1.3-.2.1,0,.2-.1.3-.1.3-.2.8-.6,1.4-1.1.6-.5,1.2-1,1.6-1.4,1.9-1.7,3.6-3.7,5.1-6,0,0,0-.2.1-.2.7-.7,1.6-1.9,2.8-3.7.7-1.2,1.2-2,1.6-2.5.8-1.2,1.4-2.2,1.8-3.1.2-.4.6-.9,1.1-1.7.4-.4.7-.9.9-1.3,1.2-1.7,2.2-3.3,3-4.7,0,0,.2,0,.2-.1s.1,0,.2-.1c1.5-1.9,3.1-4,4.6-6.3.5-.6,1.1-.9,1.8-.9s.7.1,1.1.3c.5.3.6.7.3,1.1-.1.2-.4.8-.9,1.6s-.9,1.6-1.4,2.3-.9,1.3-1.4,1.8c-.6.7-1.1,1.4-1.3,2.1-1.3,2.5-2.8,4.9-4.5,7.2l-1.1,1.6-2.7,4.3c-.8,1.1-1.5,2.2-2.2,3.4-1.5,2.2-2.7,3.9-3.5,5-.2.3-.6.8-1.1,1.5-.5.7-1,1.4-1.5,1.9s-1,1-1.6,1.4c-2,1.5-4.1,2.2-6.1,2.2s-2.2-.2-3.2-.6c-.2-.2-.5-.3-.8-.3h0ZM144.1,283.1c.2-.2.4-.3.6-.5s.4-.4.6-.5c1-1,1.8-1.8,2.2-2.4l1.1-1.4c1.1-1.4,1.9-2.3,2.5-2.8.2,0,.4-.4.6-.9,1-1,1.9-2.3,2.9-3.9,0-.1.1-.2.3-.4.1-.1.3-.2.3-.2.2-.3.5-.7.8-1.2.4-.5.6-.9.8-1.2.5-.9,1.5-2.3,2.9-4.1.5-.7.9-1.4,1.2-1.9.2-.2.3-.6.5-1s.4-.7.7-1,.4-.5.5-.7.1-.5.2-.7c0-.2,0-.4,0-.5,0-.1,0-.3.2-.5s.2-.3.2-.5c.2-.1.3-.3.3-.6,0-.8.4-1.7,1.2-2.8,0-.1.2-.4.4-.7.2-.3.3-.7.2-1.1,0-.1,0-.3.2-.5.1-.2.2-.4.2-.5.2-.3.4-.6.7-.8.2-.2.4-.5.6-.8.2-.3.3-.6.3-.9,0-.2,0-.4.2-.5,0-.1,0-.3,0-.4s0-.2-.2-.3c-.1-.1-.3-.2-.5-.3-1.3-.8-2.6-1.4-3.9-1.7,0,0-.2,0-.3,0h-.9c0,0-.6,0-.6,0-.6,0-1,.1-1.2.4-.3.4-.7.8-1.2,1s-.8.4-.9.5c-1,.6-1.8,1.5-2.2,2.6-.2.5-.4.9-.5,1.1-.1.2-.4.4-.7.6-.2,0-.3.2-.4.4-.1.2-.2.3-.2.3-.3,1.2-.8,2.1-1.6,2.8-.6.6-.9,1.1-.9,1.7-.1.5-.4,1.1-.8,1.8-.3.5-.5,1-.7,1.4-.1.2-.3.6-.7,1.1s-.5,1-.5,1.6,0,.4,0,.6c0,0-.1.3-.4.8-.8.5-1.2,1.3-1.2,2.4s0,.5-.2.9c-.4.8-.8,1.7-1.2,2.8-.3.7-.4,1.3-.4,1.8,0,.3-.2.6-.5.9s-.5.5-.5.7v.3c-.2.2-.2.6-.2.9s0,.6,0,.8c-.2.4-.4,1-.6,2-.2.9-.4,1.5-.6,2,0,.1-.1.3-.1.5.2.3.2.6.2.9s-.1.9-.4,1.6c0,.2,0,.5,0,.7s0,.5,0,.7c.2.2.4.3.4.3.7-.2,1.2-.5,1.4-.6h0Z"/>
            <path class="cls-1" d="M259,288.7c-.8-.2-1.4-.4-1.8-.5-.8-.2-1.5-.6-1.9-1.2-.7-.5-1.3-1.1-1.8-1.7-.4-.2-.6-.5-.8-.9,0-.2-.3-.8-.6-1.5s-.5-1.5-.5-2.2v-1.5c-.1-.1-.1-.3-.2-.4s0-.3,0-.3c.2-.4.3-.9.3-1.4s0-.7-.1-1.2c0-.2,0-.4,0-.7s0-.6.2-1.4c.2-.3.3-.8.4-1.3.1-.5.2-.9.2-1.1,0,0,0-.2,0-.2s-.1,0-.2,0c-.1,0-.2,0-.2.1,0,.2-.2.4-.4.6-.2.2-.3.4-.4.6l-2.2,4.1c-.8,1-1.2,1.7-1.3,1.9-.6.7-1,1.3-1.2,1.7-.5.9-1.3,1.9-2.2,2.8,0,0-.2.2-.3.4s-.2.3-.3.4c-.3.5-.6.9-.8,1.1l-.9.9c-.5.3-.9.8-1.3,1.2-.3.4-.7.7-1.1.9-.4.2-.8.4-1.2.5s-.7.2-.8.2l-2.9.4c-1.4-.2-2.4-.4-3-.6-1.3-.3-2.4-1-3.1-2.2l-.8-.9c-.6-.5-1.1-1-1.4-1.7-.3-.6-.5-1.4-.8-2.3-.2-.7-.3-1.5-.4-2.3-.1-.9-.2-1.5-.2-1.9,0-.2,0-.4,0-.7s0-.5,0-.7c0-.6,0-1.1,0-1.4v-1.4c0-.6,0-1.1,0-1.4v-.3c.1-.4.3-.9.4-1.7.2-.8.3-1.5.5-2.1s.5-1.1.8-1.7c0,0,.1-.2.1-.4,0-.8.2-1.5.5-2.3s.6-1.3.7-1.6c.4-.5.6-1.1.8-1.7,0-.2.1-.5.2-.7.1-.3.2-.5.2-.6.3-.6.5-1.1.6-1.5,0-.2.2-.4.6-.6.2-.1.4-.3.5-.6.1-.3.3-.5.3-.6,0-.3.2-.6.4-.8.2-.2.4-.5.7-.7.1-.2.3-.4.6-.8s.5-.7.6-1.1c.3-1,.8-1.9,1.6-2.7l1.8-1.7c.8-.8,1.3-1.3,1.8-1.6.4-.4,1-.9,1.8-1.5l.5-.3c1-1,2.1-1.6,3.2-1.9.2,0,.3-.1.3-.3.3-.4.7-.6,1.1-.8.4-.1,1-.3,1.9-.4.4,0,.7-.1,1.1-.3.2,0,.4,0,.7,0,.2,0,.5,0,.7,0,1.8,0,3.3,0,4.6.2,1.2.1,2.5.3,3.7.7.8.5,1.6.9,2.7,1.4l2.2,1.2s.1,0,.2,0c.2,0,.4-.1.5-.4.5-.8,1.5-1.8,3-2.8,0-.2.3-.3.8-.3.6-.1,1.1-.2,1.6-.2,1.2,0,2.3.4,3.4,1.1.5.4.8.8.8,1.1s0,.4-.1.7c0,.2,0,.3-.1.5s-.1.3-.2.4c-.4.4-.6.9-.6,1.5v.2c-.3.4-.6,1-.9,1.9,0,.5-.2,1-.4,1.4-1,1.9-1.7,3.3-2,4.2l-.4,1.2c-.2,1-.5,1.8-.9,2.4,0,.6-.2,1.4-.6,2.4-.2.5-.4,1.1-.6,1.7,0,.2,0,.3,0,.5s0,.4,0,.5c0,.8-.1,1.3-.3,1.6-.4.3-.6.7-.8,1.2s-.2.9-.2,1.1c0,.4-.2.8-.4,1.2s-.3.7-.3.9l-.5,2.1c0,0,0,.2-.1.4s-.1.4-.1.5c-.2.5-.3.9-.3,1.2v.4c0,.4-.1.8-.4,1.1,0,0,0,.2,0,.2s0,.1,0,.2c0,.2.1.5.1.6,0,.2,0,.6-.3,1.2s-.3.9-.3,1.2c0,.8-.1,1.8-.3,3,0,.2,0,.4,0,.7s0,.5,0,.8v1.2c0,.3,0,.5,0,.6,0,.2,0,.4.2.7.1.3.2.5.2.7.7,0,1.2-.2,1.5-.8.1-.2.6-.7,1.3-1.6.7-.7,1.3-1.4,1.7-2,.5-.8,1-1.6,1.7-2.5s1.1-1.4,1.2-1.6c0-.2.3-.7.8-1.4l1.9-3.2c.7-1.2,1.2-2.2,1.6-2.8.5-.7.7-1.1.8-1.2,1-1.6,1.5-2.4,1.6-2.6l.8-1.4c.9-1.5,1.4-2.4,1.5-2.6l.6-1.1c.5-1,.9-1.7,1.4-2.2s.6-.8.6-1.2c.4-1,1.1-1.4,2.1-1.2.2,0,.6.1,1,.3.5.1.7.4.7.7,0,.5-.2,1.3-.7,2.2-1.5,3-2.9,5.7-4.2,8.1-.2.2-.8,1.4-1.9,3.5-.6,1.2-1.2,2.4-1.9,3.6-.7,1.3-1.1,2.1-1.2,2.4s-.4.8-.8,1.6c-.4.8-.9,1.6-1.3,2.3l-.6,1.1c-.4.8-.8,1.5-1.1,1.9s-.7.9-1.2,1.3c-.2.2-.4.5-.6.9-.1.3-.3.6-.5.8s-.5.4-.9.7c-.2.2-.5.5-.9.8-.4.2-.7.5-.9.6-1.1,1-2.3,1.4-3.7,1.4s-.7,0-1.2-.1c-.6,0-1.3-.2-2.1-.4h0ZM236.8,282.2c2.7-3.2,4.6-5.4,5.6-6.6,1.8-2.2,3.2-4.1,4.1-5.7,1.1-2,2-3.7,2.9-4.9.8-1.4,2-3.4,3.6-6,.9-1.5,1.6-2.7,2.1-3.8.8-1.2,1.5-2.5,2.2-3.8,1.1-1.8,2-3.1,2.6-4.2.2-.5.2-.8,0-.9,0-.1-.2-.2-.3-.3-.1-.1-.2-.2-.3-.2l-3.6-1.4c-.1,0-.3,0-.4-.1s-.4-.1-.6-.2c-.1,0-.3.1-.5.2-.2,0-.3,0-.5.1-.2,0-.5.3-1.1.5s-1.1.6-1.5.9c-.4.3-.8.7-1.1,1.1-.4.4-.7.6-1.1.8,0,.1-.2.3-.5.5s-.4.4-.4.5c-.4.7-.9,1.2-1.5,1.6-.2.2-.4.4-.6.7-.1.3-.2.4-.3.5s0,.2,0,.4,0,.3-.1.3c-.4.4-.8,1-1.1,1.8-.4.8-.8,1.4-1.2,1.7-.3.2-.4.5-.4.9,0,.6-.4,1.4-1.1,2.2-.7,1.1-1.1,2-1.2,2.8,0,1.1-.6,2.3-1.5,3.8v.8c0,0,0,.2,0,.4s0,.4,0,.5c0,.2-.1.5-.2,1s-.3,1-.5,1.3c-.4.7-.7,1.4-.9,2.3s-.3,1.4-.3,1.7c-.2.8-.4,1.7-.6,2.5l-.3,1.5c-.2,1-.3,2.6-.3,4.7s0,.4.2.4c.2,0,.3,0,.5,0l.4-.4h0Z"/>
            <path class="cls-1" d="M307.1,289.4c-1.5,0-2.8-.5-4-1.4-.5-.5-1-1-1.5-1.6s-1-1.4-1.5-2.3c0,0,0-.1,0-.2,0-.1,0-.3,0-.5-.2-.7-.5-1.2-.9-1.6-.2-.5-.4-.9-.5-1.4s0-1.1,0-1.8c0-.8.1-1.2.1-1.5s0-.7-.1-1.3c0-.6.1-1.2.3-1.8,0-.2,0-.4.2-.7,0-.2,0-.5,0-.7s0-.4-.1-.6c0,0,0-.2,0-.3,0-.1,0-.2,0-.3.5-1.1.7-1.7.8-1.9,0-.5,0-.9,0-1.2s.2-.5.5-.8c0-.1.1-.3.1-.5,0-.6,0-1.2.3-1.9s.5-1.2.5-1.6c0-.1.1-.4.3-.8s.2-.8.2-1.2.1-.6.3-1,.4-.7.4-.9c.2-.6.2-1,.2-1.2,0-.2.2-.5.3-.8.1-.3.2-.6.3-.8,0-.2.2-.4.3-.6s.3-.4.4-.6c.1-.2.1-.4,0-.7,0-.5.2-1.1.6-1.9,0-.2.2-.5.4-.9s.3-.8.4-1.1c0-.5.4-1.4,1.1-2.7.2-.3.2-.5.1-.8,0-.2.1-.7.3-1.4,0-.2,0-.4-.1-.4h-.5c-1.5,1.2-2.7,2.4-3.6,3.4l-1.5,1.8c-.8.8-1.4,1.5-1.7,2,0,.2-.5.7-1.1,1.6-.9,1-1.4,1.9-1.6,2.6-.2.7-.8,1.5-1.5,2.4-1.1,1.5-2.2,3.4-3.4,5.5l-.8,1.4c-.5.7-1,1.9-1.6,3.4-.2.2-.4.6-.6,1.1s-.5.9-.6,1.1c-.8,1.3-1.5,2.9-2.2,4.8-.2.5-.3,1-.5,1.3-.2.4-.3.7-.4,1-.4.8-.8,1.8-1.1,2.8-.2.6-.5,1-.8,1.3s-.6.3-1,.3-.4,0-.9-.1l-2.6-.4c-1-.3-1.8-.7-2.2-1.1s-.7-1.1-.7-2,0-.7,0-.9c0-.6,0-1-.1-1.2v-1.8c0-.4,0-.6,0-.8,0-.2,0-.5,0-.9,0-.7-.1-1.2-.4-1.6,0-.1-.1-.2-.2-.4,0-.1-.1-.2-.1-.4.1-.4.2-.9.2-1.6v-1.9c0-.4,0-.7,0-.9.2-1,.3-1.8.3-2.4s0-.7,0-.9c0,0,0-.1,0-.2s0,0,0-.1c0-.3.2-.9.2-1.6,0-1.1.2-1.9.5-2.4,0,0,0-.2.2-.3-.1-.3-.2-.6-.2-.8,0-.3,0-.7.2-1.1.1-.4.2-.7.3-.9,0-.3,0-.6.2-.9.1-.3.2-.6.2-.8.2-.5.4-1.4.6-2.7,0-.1,0-.3,0-.5,0-.2,0-.3,0-.4.5-.9.9-2.1,1.2-3.8,0-.3.1-.8.3-1.6,0,0,.1-.1.1-.3s0-.2,0-.3c.3-.3.6-.6.7-1,.1-.4.2-.7.2-1.2s0-.7.1-.9c0-.4.2-.9.6-1.7.2-.5.4-.9.4-1.2s0-.4,0-.6c0-.3.1-.7.3-1.2s.4-.7.4-.8c.3-.4.4-.9.4-1.3s0-.5.2-.6c.2-.2.4-.5.5-.8s.1-.7.2-1.1c0-.5.1-.8.2-1l.7-1.5.5-1.2c.1-.2.2-.5.2-.8.4-1.5.7-2.3.8-2.6.2-.9.4-1.4.4-1.5,0-.2.2-.6.4-1.1s.4-1,.8-1.4c0,0,.1-.1.2-.2,0-.1.1-.2.1-.3,0-.5,0-1,.2-1.5s.3-.9.5-1.3.3-.6.3-.8c.1-.3.3-.7.4-1.3.2-.8.4-1.4.6-1.7.1-.1.3-.3.4-.5s.3-.4.3-.5c.2-.3.3-.6.3-.8,0-.5,0-.9.2-1.2.1-.4.4-.8.8-1.3.2-.3.5-.7,1-1.3s.8-1.1,1-1.7c0-.1.1-.3.2-.6.1-.2.1-.5,0-.8,0-.4,0-.7.1-.8.6-1.1,1-1.9,1.4-2.4.4-.5.8-1,1.3-1.5.4-.6.7-1.1.9-1.5l1.3-2.2h.2c.1-.7.3-1.2.7-1.6s.8-1,1.3-1.6l1-1.1c.4-.5.8-1,1-1.7.5-.8,1-1.4,1.5-1.8.3-.1.5-.3.6-.4.2-.5.5-.9.9-1.2.4-.3.8-.6,1.2-.9.5-.3.9-.6,1.2-.8.3-.2.7-.6,1.2-1s.9-.8,1.2-1.1c.7-.7,1.9-1.6,3.4-2.6.2-.1.6-.4,1.3-.7.7-.4,1.2-.8,1.7-1.4.5-.2,1-.4,1.6-.8.4-.2.8-.4,1.2-.6.4-.2.8-.3,1.2-.4.3,0,.8-.1,1.5-.4,1.2-.5,2.2-.8,3.1-.9.7-.2,1.6-.4,2.6-.4s1.2,0,1.8,0,.9,0,1.3.1c.3,0,.8.1,1.5.3,2.7,1.2,4.8,2.5,6.2,4.1,0,0,.2.3.4.5s.3.6.3,1,.1.8.4,1.2c.6.8.9,1.9.9,3.2s0,1.1-.1,1.9c0,1,0,1.8-.1,2.2v1.1c-.2.8-.3,1.6-.3,2.2,0,0-.1.2-.2.4s0,.3-.1.5c-.2.4-.4.8-.5,1.4-.1.5-.2.9-.3,1.1,0,.5-.2,1.1-.4,1.6-.4,1.2-.9,2.6-1.7,4.2l-.7,1.4c-.4.9-.6,1.4-.8,1.6-.3.6-.7,1.3-1,2.1-.5,1.2-1,2.2-1.5,3-.4.6-.7,1-.8,1.3-.4.7-1.1,1.8-2.3,3.5l-1.2,1.6c-1.2,1.9-2.6,3.7-4,5.2-.2.2-.8.8-1.8,1.9l-1.8,1.9c-.2.2-.8.8-1.5,1.6s-1.5,1.5-2.3,2c0,0,0,.1-.1.2,0,0-.1.1-.2.1-.7.5-1.6,1.2-2.8,2.2-1.5,1.3-3,2.4-4.4,3.2-.2,0-.5.2-.8.5s-.6.4-.8.5c-1.4,1-2.5,1.7-3.4,2.2-.8.5-1.7.9-2.6,1.3,0,0-.2,0-.3,0-.1,0-.2,0-.3.2-1.2.8-2.5,1.4-3.9,1.8-1.4.5-3,.9-4.7,1.2-.5,0-.7.2-.8.2s0,.4,0,.8v.8c-.3.3-.5.7-.6,1.1-.1.4-.2.9-.2,1.3,0,.5,0,.9-.1,1.2-.2.7-.4,1.2-.6,1.5,0,0-.1.5-.4,1.5,0,.2-.1.6-.2,1.2,0,.6-.3,1-.6,1.4-.2,0-.3.4-.3,1,0,0,0,.1,0,.2v.5c0,.1,0,.3-.2.4s-.2.3-.2.4,0,.2.2.4c.4-.4.7-.7.8-.9.4-.8,1-1.8,1.9-3,.7-1,1.1-1.8,1.4-2.2,0,0,.4-.5,1.4-1.6.8-.8,1.3-1.5,1.6-1.9.5-.7,1-1.2,1.5-1.6l1.1-1.1c1.1-1.2,2.1-2.1,2.9-2.8.6-.5,1.3-.9,2-1.4s1.5-.9,2.2-1.2c1-.4,2-.6,3.1-.6s2.1.2,3.2.8c.2.2.5.3.8.5s.5.3.8.5c.7.3,1.1.8,1.2,1.3,0,.2.1.4.3.6.6.8.9,1.7.9,2.8s0,.9-.1,1.7v1.8c0,.8-.1,1.5-.4,2.2,0,0,0,.1-.1.3,0,.2-.1.3,0,.4,0,.7-.2,1.7-.6,3-.2.2-.3.6-.3,1s0,.7-.1.8c0,0,0,.4-.2,1s-.4,1.1-.8,1.5c-.1.2-.2.6-.3,1s-.1.7-.2.8v.4c-.6.9-.9,1.9-.9,3s-.2.7-.5,1.2c0,.3,0,.7-.2,1,0,.1,0,.2-.2.4-.1.1-.2.2-.2.2,0,.7-.3,1.6-.8,2.6,0,.2-.2.4-.3.6s-.2.5-.3.8c0,.2-.3.8-.6,1.9-.3,1.2-.6,2.2-.9,2.8,0,0-.1.3-.1.6,0,.7-.2,1.2-.2,1.6-.2,1-.2,1.8-.2,2.2s0,.8,0,1c-.2.3-.4.7-.4,1.2s0,.6.2,1.1c.1.4.2.8.2,1,0,.2,0,.5.2.8.1.3.2.5.2.6,0,.1.2.2.3.4s.2.2.2.4c.1.2.2.3.2.5,0,.2-.1.5-.4.7,0,0-.2,0-.2.1s-.2.1-.2.2c-.5.1-1.1.2-1.7.2h0ZM301.1,238.7c.3-.2,1-.6,2-1.2,1-.6,1.8-1.2,2.5-1.8.5-.5,1.2-1,2.2-1.5.8-.5,1.8-1.2,2.8-2,0,0,.3-.2,1.1-.9.7-.5,1.5-1.2,2.2-2s1.3-1.3,1.5-1.6l1.2-1.1c1.2-1.1,2.1-2.1,2.7-2.9.3-.3.6-.6.8-.9.3-.3.5-.6.8-.9-.1.1.6-.8,2.2-2.8l1.2-1.6,1.2-1.8c0-.1.5-.7,1.2-1.8,1-1.4,1.8-2.8,2.6-4.4.6-1.2,1.7-3.6,3.3-7.2l.4-1.1c.1-.4.2-.7.3-1s.1-.5.2-.7c.3-.5.5-1.2.7-2s.3-1.4.4-1.8c.3-1.5.6-3.3.8-5.4v-3.4c0-.5-.1-.8-.3-.9-.2-.6-.5-1.3-.9-1.9,0,0-.2-.2-.3-.5-.1-.2-.3-.4-.4-.6-.4-.5-.7-.9-.9-1.1-.2-.2-.5-.3-.8-.3s-.7.1-1.4.4l-4.5,2.2c-.2.1-.5.3-.9.5s-.8.5-.9.8c-.2.6-.8,1.1-1.7,1.5-.6.3-1,.8-1.3,1.4-.5.4-1,.9-1.5,1.3-.5.3-.8.6-1,.8s-.3.5-.4.9c0,.2-.2.3-.3.4s-.2.2-.2.3c-.3.1-.6.3-.8.5s-.4.5-.6.8c-.2.3-.4.5-.6.8,0,.2-.2.4-.4.6-.2.2-.3.4-.4.6-.2.5-.5.9-.9,1.2,0,.1,0,.3-.1.5s-.1.3-.2.4c-.4.3-.8.8-1.1,1.4-.4.6-.7,1-.8,1.1,0,.1-.1.3-.3.5-.1.2-.3.4-.3.6,0,.6-.4,1.4-1.1,2.2-.2.3-.4.7-.6,1-.2.4-.3.7-.4,1.1,0,.1,0,.2-.2.3-.3.1-.5.3-.7.5s-.3.5-.4.8-.3.6-.4.9-.4.8-.9,1.6-.8,1.6-1.1,2.5c0,.3-.3.8-.8,1.6,0,.2-.2.5-.3.7s-.2.3-.3.5c-.2.2-.4.6-.6,1.1,0,.5-.3,1.1-.6,1.6s-.5.8-.5.9c0,0,0,.2-.1.3s-.1.3-.2.4c-.2.5-.4,1.2-.6,2.1-.3.7-.6,1.8-1.1,3.2-.2.6-.4,1.1-.6,1.5-.3.4-.6.9-.7,1.5s-.2.9-.3,1-.1.4-.2.8c-.1.4-.3.8-.5,1,0,0-.1.2-.2.4s0,.3,0,.3c0,.4-.1.9-.3,1.4-.1.4-.3.9-.4,1.5s-.4,1.1-.8,1.5v.6c0,.2-.2.5-.3.8s-.2.5-.2.7c0,.2-.2.5-.5,1.1,0,.5-.2.9-.3,1.2s-.3.6-.6.9v.3c0,0,.2,0,.2,0s.1,0,.2,0c1.7-.5,3.7-1.4,6.2-2.7h0Z"/>
          </g>
          <g>
            <path class="cls-1" d="M113.3,464.8c-1.4-.2-2.3-.3-2.7-.3l-1.7-.5c-1.2-.1-2.5-.4-3.7-.9s-2.6-1.1-4.1-1.9c-.8-.5-1.7-1.2-2.7-2.4l-1.3-1.2c-.2-.2-.5-.4-.8-.7s-.5-.5-.6-.6l-1.5-2.2c-.7-1.4-1.3-2.6-1.7-3.7s-.7-2.3-.8-3.5c0-.4,0-.9-.2-1.4-.1-.6-.2-1-.2-1.4,0-.2,0-.4,0-.8v-1.5c0,0,0-2.9,0-2.9.2-.9.3-1.5.3-1.8,0-2.4.6-5.4,1.5-9,.2-.4.3-.8.3-1.2.3-1.6.6-2.9,1-3.9.2-.8.7-1.8,1.2-3.2.7-1.6,1.2-3,1.6-4.2,0-.2.2-.7.5-1.5s.7-1.5,1.1-2.2c.2-.3.4-.7.6-1.2.3-.8.7-1.4,1.1-1.8.2-.2.3-.5.3-.8.4-1.1.8-1.8,1.3-2.1.1,0,.2,0,.3-.2.2-.3.3-.6.5-.9.2-.3.2-.5.2-.6,0-.1-.1-.2-.4-.3-.2-.1-.6-.2-1.1-.3-1.1-.3-2.1-.7-3.1-1.2-1-.5-2.1-1.2-3.2-2l-1.2-.8c-1-.7-1.9-1.5-2.6-2.5-.7-.9-1.6-2.2-2.5-3.7-1-1.7-1.7-3.7-2.2-6,0-.3,0-.5-.1-.6-.5-1-.8-2.2-1.1-3.6s-.4-2.2-.5-2.6c-.2-.6-.2-1.4-.2-2.2s0-1.1,0-1.4v-1.1c0-.2,0-.4,0-.6-.2-.8-.3-1.6-.3-2.3s0-1.2.3-1.9c0-.1,0-.3,0-.6s0-.4,0-.5l.2-1.4c0-.8.2-1.5.2-1.9.4-.7.6-1.4.6-2.1s0-.4-.1-.8c0,0,0-.1,0-.2,0-.3,0-.5.2-.6.2-.3.4-.9.6-1.6.2-1,.3-1.9.6-2.6s.5-1.4.9-2.1h.1c.1-.5.3-1,.5-1.5.2-.5.4-.9.5-1.2l.9-1.9c0,0,.1-.3.2-.6,0-.3.3-.6.5-.8.1,0,.2-.2.2-.3.2-.2.5-.7.6-1.4.2-.8.5-1.4.9-1.7.5-.4.8-.9,1.1-1.5.3-.6.4-1,.5-1.2,0-.2,0-.4.3-.6l1.1-1.4c1.5-2,2.7-3.4,3.6-4.3.2,0,.3-.2.3-.3,0-.3,0-.6.2-.9.2-.2.4-.5.6-.7.2-.2.5-.5.6-.7l1.1-1.1s.2-.1.3-.2c.2,0,.2-.2.2-.4.2-.4.4-.8.8-1s.6-.4.7-.5c.4-.3,1-.8,1.7-1.5.7-.7,1.1-1.1,1.3-1.2.6-.3,1.1-.7,1.6-1.1l.9-.9c1.5-1.2,2.3-2,2.7-2.4l.9-.4c1-.3,2.1-1,3.3-2.1.1,0,.3-.1.5-.3.2-.2.4-.3.5-.4.2-.1.7-.4,1.4-.7.8-.3,1.3-.7,1.7-1.1.2,0,.3,0,.5-.1s.4,0,.5-.1c1-.3,1.8-.7,2.4-1.1.9-.7,2-1.2,3.2-1.5,1.6-.4,3.2-1,4.8-1.8.8-.3,1.6-.6,2.7-.8,3-.7,5.7-1.2,8-1.6.8-.2,1.5-.3,1.9-.3.3-.2.6-.3.8-.3.9,0,2.2,0,3.8-.2.3,0,.8,0,1.6,0s1.4,0,2,0c3.3,0,5.8,0,7.4.2,3.6.2,6.2.4,7.9.8h1.6c.4.1.9.2,1.6.2,4.2.8,7.2,1.5,9.2,2.1.1,0,.2.1.3.1,1.3.2,3.2.7,5.6,1.4.8.2,1.9.6,3.4,1l6.2,1.8c.5.2,1.2.4,2.1.6.4.2.8.3,1.1.4.4,0,.8.2,1.1.4l1.6.4c2.8.8,4.9,1.1,6.4,1.1s1.3,0,2.3.1h2.1c.9.1,1.7,0,2.4-.4s1.3-.8,2-1.6c.8-1,1.8-1.5,3.1-1.5s2.6,0,3.4.2c.2,0,.4,0,.6,0,.4,0,.8-.2,1.2-.5.3-.3.8-.4,1.5-.4s.9,0,1.3.2c.4.1.7.4.9.7.2.2.3.5.3,1s-.1.8-.3,1.1c-.3.5-.6.8-1.1.9-.3.2-.8.4-1.4.8-.6.4-1.2.6-1.7.8-1.1.5-1.8,1.1-2.2,1.9,0,.2-.1.4-.3.6-.4.3-.9,1-1.6,2-.1.2-.4.6-.7,1.1-.2.2-.4.5-.6.8s-.3.5-.4.7c-.4.8-.8,1.3-1.1,1.8-.5.5-.9,1.1-1.1,1.8-.2.6-.4,1-.5,1.2-.4.8-.7,1.3-1.1,1.7-.3.3-.6.7-.8,1.1-.2.4-.4.8-.5,1-.1,0-.2.1-.2.4-.4.3-.7.6-.9,1s-.5.9-.9,1.6l-.6,1.1c-.2.4-.5.8-.9,1.2s-.7.8-.9,1c-.2.3-.4.6-.8,1s-.5.8-.6,1.1c-.4.5-.7,1-1,1.8s-.6,1.2-.7,1.6c-.2.2-.5.7-.9,1.5s-.9,1.4-1.2,2.1c-.2.4-.7,1.1-1.5,2.1,0,.1-.2.4-.4.8-.2.4-.3.8-.3,1.2,0,.2-.2.5-.4.8-.2.3-.4.5-.5.7l-1.5,3-.2.2c-.4.3-.7.6-.8,1-.2.4-.4.7-.5,1.2-.2.4-.3.8-.4,1,0,.2-.2.6-.5,1.2-.3.6-.5,1.1-.5,1.4s-.1.2-.3.4c-.2.2-.5.6-.8,1.2-.2.6-.5,1-.8,1.3,0,0-.1.2-.2.3,0,.1,0,.2-.1.3,0,.6-.2,1.2-.8,1.8-.2.2-.3.5-.3.8-.1.2-.4.8-.8,1.5-.4.8-.6,1.5-.7,2.3,0,.3-.1.6-.3.9-.5.3-.8.8-1,1.2s-.4,1-.6,1.5c-.1.5-.3.8-.3,1-.1.6-.4,1.1-.8,1.5,0,0,0,.2,0,.2s0,.2,0,.2c0,.6-.4,1.4-.9,2.5s-.8,1.9-.9,2.6c-.1.8-.5,1.5-1.1,2.2-.2.4-.5.9-.7,1.5s-.4,1-.6,1.4c-.4.6-.7,1.1-.9,1.5s0,.2-.2.2-.1.1-.2.2c0,.8-.1,1.5-.4,2.2s-.6,1.3-.9,1.9c-.3.6-.6,1-.8,1.3-.2.3-.3.7-.4,1.2-.1.5-.2.8-.2.9-.2.9-.4,1.7-.8,2.2-1,1.2-1.4,2.2-1.3,3.1,0,.3-.1.5-.3.8-.3.2-.6.6-.7,1.1s-.3.8-.3.9c0,.4-.2.9-.6,1.4-.4.5-.6,1-.8,1.4l-.9,2.7c0,.4-.3.7-.6,1.1-.5.4-.9,1-1.3,1.9-.2.8-.6,1.3-.9,1.5-.2.2-.2.5-.2.6,0,.5,0,.9-.2,1.2-.2.3-.4.7-.7,1s-.5.6-.6.8c0,.1-.2.3-.4.5s-.3.5-.3.7c-.5,1-1,2.1-1.7,3.3-.2.2-.5.6-.9,1.2s-.8,1.2-1,1.9l-.3.5c-.2.2-.7.6-1.2,1.2-.6.5-1,1-1.3,1.5-.6,1.1-1.3,2-2.1,2.8-.1.2-.3.4-.5.6-.2.2-.4.6-.7.9-1.7,2.2-3,3.7-4.1,4.6-.6.5-1.4,1.2-2.4,2.2s-.4.3-.8.5c-.4.2-.7.5-.8.8-.4.3-1,.8-1.8,1.4-1.4,1.3-2.6,2.2-3.6,2.6-.3,0-.6.1-.8.4-.7.7-1.6,1.3-2.9,1.9l-1.5.9-1.6.8c-.5.3-1.1.6-1.8.9-.7.3-1.3.5-1.7.6-3.5,1.4-7.5,2.5-11.8,3.1-.4,0-.8,0-1.3.1s-1,.1-1.3.2v-.2c-.8,0-1.6,0-2.5.1s-1.6.1-2,.2c-1.2,0-2.6,0-4-.2h0ZM117.3,461.2l1.7-.2c2.3-.2,4.2-.5,5.6-1,.8-.2,1.3-.4,1.7-.5,1-.3,1.9-.6,2.5-.9l2.9-1.4c.2,0,.5-.1.9-.4,1.8-.9,3.2-1.9,4.2-2.8.1-.1.5-.3,1-.6.3-.2.7-.5,1.2-.8s.9-.6,1.2-.9c.3-.3.6-.7.8-1.1.2-.2.3-.4.3-.4.9-.7,1.6-1.3,2.1-1.8.1-.1.4-.4.9-.8.5-.4.8-.8.9-1.2.3-.7.6-1.2,1.1-1.7.4-.5,1-1,1.8-1.7l.4-.6c1-2,2.1-3.6,3.3-4.9.2-.2.4-.4.5-.7s.2-.5.2-.5l.4-1.1c.1-.4.5-1.1,1.1-1.9,0-.1.3-.4.6-.8.3-.4.5-.8.6-1.2,0-.1,0-.2.2-.4.1-.1.2-.2.2-.2l.9-1.2c.8-1.5,1.2-2.4,1.4-2.7l1.8-2.9c.2-.2.4-.6.6-1.1,0-.8.5-1.7,1.4-2.7.3-.5.6-1.1.9-1.9.3-.9.6-1.6.9-1.9,0-.4.1-.7.4-1.1.3-.4.4-.6.5-.7.1-.2.3-.4.4-.8s.3-.6.4-.8c.4-.4.6-.8.6-1.2.1-.5.4-1.1.8-1.6,0-.2.1-.5.3-.8.2-.3.2-.5.2-.7.1-.7.4-1.6.9-2.9s.8-2.2.9-2.8c0-.1.2-.2.3-.4s.2-.2.3-.4c.5-.8.8-1.5.9-2.2.2-.8.3-1.3.4-1.6.1-.3.3-.6.7-.9.5-.4.8-.8,1-1.4.2-.5.4-1.2.6-1.9.2-1.4.8-2.8,1.7-4.3,0,0,.1-.2.2-.5.1-.2.1-.4,0-.6,0-.3,0-.6.2-.9.1-.3.3-.6.5-.9.5-.6.8-1.2.8-1.8,0,0,0-.2,0-.2s.2-.1.2-.2c0,0,0-.1.2-.1.4-.3.6-.7.4-1.2,0-.3,0-.5.1-.8.2-.2.3-.5.4-.8.1-.2.2-.5.3-.6.3-.8.6-1.3.8-1.6.6-.8.9-1.6.9-2.5s.1-.6.3-.9c.5-.8.8-1.4,1-1.6.2-.3.5-.7.6-1.3.2-.6.3-1,.4-1.2s.3-.6.5-1.1.4-.9.6-1.2c.2-.3.5-.6.8-.9.1,0,.1-.2,0-.3,0-.3,0-.6.1-.9.1-.3.3-.5.4-.8s.3-.5.4-.6c.2-.4.4-.9.7-1.5.3-.6.6-1.2.9-1.7.3-.5.7-.9,1.2-1.2h0c.2-.4.5-1,.8-1.7.5-1.1,1-1.9,1.3-2.2,0-.2.1-.4.1-.5v-.2c0-.3,0-.5.2-.8s.3-.4.5-.6c.1-.2.4-.5.7-1,.3-.5.5-.9.5-1.3s0-.2.1-.3.1-.2.2-.2c.3-.2.5-.4.8-.7s.4-.6.5-.9c.1-.3.3-.6.3-.8.2-.2.5-.5.7-.9s.3-.7.4-.9c.2-.5.4-.9.6-1.2.2-.3.4-.5.8-.8.1-.2.2-.3.3-.5s.1-.3.2-.4c.5-1.1,1.4-2.5,2.7-4.2.2-.2.5-.5.9-1s.8-1,1-1.5c.4-.8,1-1.8,2-2.9l1.2-1.8c.1-.5.5-.9,1.2-1.2.8-.5,1.3-1.1,1.6-1.9.3-1,1-1.8,2-2.2.2-.2.4-.4.5-.7.1-.3.2-.5.2-.5v-.3c0-.1,0-.2-.1-.3-.1,0-.2-.1-.4-.2-.8,0-1.9-.2-3.5-.5l-1.9-.2c-.3,0-.8-.2-1.3-.2s-1-.2-1.4-.3l-6.4-1.8-2.3-.6c-.4-.2-.9-.3-1.4-.4-1.9-.4-4.7-1.1-8.2-2.1-.6-.2-1.8-.6-3.8-1.1l-2.9-.6c-1.4-.2-2.5-.5-3.1-.6-3-.7-6.6-1.1-10.7-1.2h-1.9c-.4-.1-1.1-.1-1.9-.1-.7,0-1.1.1-1.4.1h-1.4c-.3.1-1,.1-2.1,0-1.1,0-2.2,0-3.2.3-.6.2-1.3.3-1.9.3-.4,0-1,.1-2,.2-1,.1-1.8.3-2.6.5s-1.5.5-2.2.8c-.1,0-.4.1-.9.1,0,0-.2,0-.4,0s-.3,0-.5.1c-.6.2-1.6.6-2.8,1l-2.9,1.1-1.8,1.1c-.8.2-1.9.7-3.3,1.5l-1.4.8-1.3.8c-1.8.8-3.2,1.7-3.9,2.6-.9.9-1.7,1.4-2.4,1.6-.4.2-.9.5-1.4.9-.4.6-.9,1.2-1.6,1.8-1.1.7-2.1,1.6-3,2.7l-1.9,1.6c-.2.2-.5.4-.6.6-.2.5-.7,1-1.2,1.5-.5.1-.8.4-.9.9-.4.8-1,1.5-1.8,2.1l-1.4,1.8c-.2.5-.5.8-.8,1-.2.2-.4.5-.8,1s-.6.9-.8,1.3c-.8,1.5-1.7,2.8-2.6,3.6,0,.1-.3.4-.5.7s-.4.7-.5,1.1c0,0,0,.3-.3.6-.3.7-.6,1.3-1,1.8-.2.2-.4.5-.6.9-.2.4-.3.7-.4.9-.6.8-.9,1.6-.9,2.2s0,.3-.3.6c-.3.3-.6.9-.8,1.6,0,.3-.3.9-.8,1.8,0,.2-.2.5-.4.9s-.3.7-.4.9c0,1.2-.4,2.6-.9,4.3-.2.3-.3.7-.3,1.2,0,.1,0,.3,0,.4s0,.6-.2,1.1c0,.3-.2.9-.2,1.8l-.5,2.9v.4c.2,2,.3,3.8.3,5.4s0,1.4.3,2.2.3,1.2.3,1.3c0,.2.2.9.4,1.9s.5,1.9.8,2.8c.1.3.3.8.6,1.2s.4.9.5,1.3c.2.8.7,1.6,1.5,2.5,0,0,.3.3.6.8s.6.8.7,1.2c0,0,0,.2,0,.2s.1,0,.2,0c.8.5,1.9,1.2,3.3,2.2.3.2.7.3,1.1.4.5.1.8.2,1.1.3.3,0,.5,0,.6-.2,0,0,.3-.2.7-.4.3-.2.6-.5.7-.8,0-.4.3-.7.7-1.1.4-.3.6-.6.7-.8,0-.1.2-.3.5-.6s.4-.5.4-.8c0-.1.2-.3.6-.6l.9-.9c.5-.7,1-1.2,1.7-1.7.5-.4,1.2-1.1,2.2-2.1,1.5-1.5,2.7-2.6,3.6-3.2h.2c.4-.6.8-1,1.4-1.4.5-.4,1.1-.8,1.7-1.1l1.4-.9c.8-.6,1.6-1.1,2.4-1.6.8-.4,1.9-.9,3.3-1.6,2.2-1.1,4.1-1.7,5.8-1.7s.7,0,1.2-.2.8-.2,1.1-.2c1.1-.3,2.1-.5,3-.5s.9,0,1.1,0h1.4c.8.1,1.5.2,2.2.3.4,0,.8-.2,1.1-.6.2-.4.5-.7.7-.9s.4-.5.5-.6l1.8-2.5c.2-.1.4-.4.6-.8.2-.3.4-.8.6-1.4.3-.8.6-1.4.8-1.8.2-.4.6-.8,1-1.2,0,0,0-.1.1-.3,0-.2,0-.3.1-.4.2-.8.3-1.5.4-1.9.4-1.3.5-2.4.5-3.2,0-.2,0-.3,0-.4,0-.1,0-.2,0-.2.2-.3.3-.8.3-1.4,0-.4.1-1,.2-2,0-.9.1-1.8.1-2.5,0-1.3-.2-2.5-.8-3.4-.2-.2-.3-.4-.3-.7s0-.4-.1-.5c0-.2-.1-.6-.2-1.2-.1-.5-.3-1-.5-1.4s-.6-.7-1-.9l-.3-.4c-.3-.8-.9-1.4-1.6-1.8-.7-.3-1.6-.6-2.6-.7-.4,0-1.1,0-2,0s-1.7,0-2.2,0c-1.1-.2-2.1-.5-3-.9-.4-.3-.6-.6-.6-1.1s.2-.8.6-1c.3-.2.8-.4,1.5-.6.5-.2,1.2-.4,2.4-.6.2,0,.4,0,.6,0s.5,0,.6,0l2,.2c1.2,0,2,.2,2.6.2,2.7.6,5.3,1.5,7.9,2.6.4.2.8.4,1.3.8s.8.7,1.2,1.1c.9.8,1.6,1.3,2.2,1.6.2,0,.4.2.6.5s.4.4.6.6v.2c.6.8,1,1.4,1.3,1.9s.5,1,.6,1.6c0,.5.3,1,.9,1.6,0,0,.2.2.2.4s.2.4.2.5c0,.3,0,.8,0,1.5,0,.7.1,1.3.3,1.7,0,0,0,.2,0,.3,0,.1,0,.2,0,.3-.2,1-.2,1.7-.2,2.1s0,.7,0,.9c0,.4.1.8.1,1.1,0,.5,0,.9-.2,1.3-.3.6-.4,1.3-.4,2.1s-.2,2.2-.8,3.4c-1,2-1.8,3.8-2.2,5.2-.3.6-.7,1.3-1.2,1.9s-.9,1.1-1.1,1.4c-.9,1-1.5,1.9-1.8,2.7-.5.8-1.2,1.8-2.2,2.9-.3.2-.4.4-.4.6s.1.4.4.6c.6.6,1.1,1.4,1.6,2.4.1.3.3.8.6,1.2s.4.9.4,1.3c0,.4.1,1,.3,1.8l.2,1.8c.3,1,.5,2.2.6,3.6,0,0,0,.2,0,.3s0,.2,0,.2c-.2.4-.3.8-.3,1s0,.4,0,.5c0,.1,0,.3.1.4.1.4.2.8.2,1.3,0,.5,0,.9,0,1s0,.3-.1.4c-.3.4-.5.9-.6,1.3,0,.5-.1.8-.1.9,0,.5-.1.9-.2,1.2,0,.3,0,.6,0,.8,0,1.2-.1,2.2-.4,3h0c0,.1,0,.5,0,.5,0,.3,0,.6-.2.9s-.2.5-.3.5l-.9,2.1-.4,1.3c-.2.9-.5,1.6-.8,2.2-.3.6-.6,1.3-.8,2.1l-.6,1.1c-.2.5-.5.9-.9,1.4-.5.8-.9,1.5-1.1,2-.7,2-2,3.8-3.8,5.2-.2.2-.5.5-.9.6,0,0-.3.2-.5.3-.3.2-.5.4-.7.7-1,1.2-2.1,2.2-3.4,3-.8.6-1.4,1-1.8,1.4-1.5,1.1-2.7,1.9-3.8,2.4-.1,0-.3,0-.4.2-.1.1-.3.2-.3.3-1.6,1.4-3.5,2.3-5.9,2.8-.5.1-1.1.2-1.8.2s-1.6,0-2.4-.2c-.5,0-1.1-.2-1.8-.6-.4-.3-.6-.7-.4-1.2.2-.2.3-.6.6-.9s.4-.7.6-.9.4-.4.8-.6c.5-.2,1-.4,1.5-.8.5-.4.9-.6,1.2-.8l1.1-1,3.4-3.2.9-.9c1-1.4,1.9-2.5,2.8-3.4.2-.1.4-.4.6-.8.2-.4.4-.7.7-.8.2-.2.4-.5.5-.7s0-.6,0-1.1.1-.5.4-.8c.3-.3.6-.7.8-1.1.2-.4.3-.7.3-.8,0-.2.3-.6.6-1.2.2-.7.6-1.2.9-1.6.1,0,.2-.2.3-.5s.1-.6.1-.8c0-.6.2-1.1.6-1.5,0,0,0-.2.1-.3s.1-.3.2-.4l.8-1.8c0-.2.2-.5.3-.8.1-.3.3-.6.4-1,0-.3.2-.8.5-1.4.2-.6.4-1.2.4-1.7s0-.4-.1-.8c0-.2.1-.4.3-.8.5-1.6.7-3.1.7-4.6s0-1-.1-1.8c-.1-.8-.2-1.1-.2-1.2,0-.4.1-.8.4-1.1,0,0,.1-.3.1-.6l-.4-3c0-.1,0-.2-.2-.3s-.2,0-.2,0c-.5.3-.9.6-1.3.8-.8.3-1.3.7-1.6,1-1,.8-1.8,1.4-2.2,1.7-.5.3-1,.6-1.4.9-.8.4-1.3.7-1.7,1.1-.2.2-.6.4-1.1.6-.6.2-1,.4-1.2.6-.4.2-1,.5-1.8.9-.1,0-.4.1-.8.3-.4.1-.7.3-1,.5,0,0-.3.1-.8.1-.1,0-.3,0-.5.1s-.3.1-.4.2c-.7.4-1.6.7-2.6.9l-1.3.4c-.9.3-2.4.7-4.4,1.2l-3.7.9c-.5,0-.8,0-1.1.1-1.5,0-2.7,0-3.4.2h-1.1c-.2,0-.4,0-.6,0-.5-.1-.8,0-1.2.1-.3.2-.7.6-1.1,1.1l-1.3,2.2c-.5.8-1,1.6-1.2,2.2,0,.1-.2.3-.2.5s-.1.4-.2.5c-.4.4-.8,1.1-1.2,2l-.6,1.1c-.2.5-.4.9-.6,1.3-.2.4-.3.7-.3.9-.5,1.4-1,2.4-1.4,3.2,0,0-.1.2-.1.4-.1.3-.3.8-.4,1.5,0,.2-.2.6-.4,1.2-.2.6-.4,1.2-.7,1.8l-.5,1.6c-.2.6-.4,1.4-.5,2.4,0-.3,0,.5-.5,2.2-.3,1.1-.6,2.8-.8,5.1,0,.2,0,.4,0,.7s0,.6-.1.7c-.2.7-.2,1.4-.2,2.2s0,1,.1,1.6c0,0,0,.2,0,.5v1c0,.3,0,.6,0,.8,0,.2,0,.4,0,.6,0,.6.2,1.1.4,1.4,0,0,0,.1,0,.3s0,.2,0,.3c.3,1.5.7,2.8,1.1,4,.5,1.2,1.1,2.2,1.9,3.1.3.3.8.8,1.2,1.5.5,1,1.3,1.8,2.5,2.6,1.6.9,3.1,1.5,4.5,2,1.3.4,2.8.6,4.3.6h3.1ZM118.8,400.1c0,0,.2,0,.4-.1s.3-.1.4-.2c.7-.4,1.7-.8,3.1-1.3l1.6-.6c.2-.1.5-.2.8-.4s.6-.2.7-.4l2.3-1.4,1.8-1.3,1.4-.9c0,0,.3-.2.6-.3s.6-.4.8-.6.4-.4.4-.7c0-.1.1-.2.3-.3s.2-.2.3-.3c.2-.2.5-.4.8-.6.4-.2.6-.5.9-.8.2-.2.4-.5.5-.9,0,0,0,0,.1-.1s.1,0,.2-.1c.8-.3,1.4-.8,1.8-1.4.4-.2.7-.4,1-.7s.4-.6.6-1,.3-.7.5-.9c.2-.3,0-.4-.2-.4h-.5c-.2,0-.7,0-1.2.2s-1.1.2-1.5.3c-1.6.4-2.7.8-3.4,1.1l-1.8.9c-1.2.7-2.2,1.1-3.1,1.4l-.6.5c-.7.5-1.3.8-1.7,1-.1.1-.3.3-.5.4s-.3.3-.4.3c-.8.8-2.1,1.9-4.1,3.2l-.6.4c0,.3-.2.5-.5.8s-.5.4-.8.6c-.3.2-.5.3-.7.5l-.4.6c-.2.2-.5.6-.9,1.1s-.8.9-1.2,1.3c-.4.4-.8.7-1.2.9,0,0-.1.2-.2.3s-.2.2-.2.3c0,0,0,.1,0,.2,0,.1,0,.2,0,.2,0,0,.2.1.4.1l3.9-.9h0Z"/>
            <path class="cls-1" d="M200,428.9c-1,0-1.9-.1-2.8-.3-.9-.2-1.7-.5-2.4-.9,0,0-.2-.2-.5-.4s-.4-.4-.4-.5c-1.3-1.7-2.1-3.4-2.4-4.9,0-.4-.1-1.1-.1-1.9v-2.6c0-.6,0-1.1,0-1.4,0-.5,0-.8.1-1,.2-.4.3-1,.3-1.7,0-.3-.1-.5-.1-.6,0-.2,0-.4.1-.6.2-.4.4-.9.5-1.4s.2-.8.2-1c.2-1.2.5-2.2.8-2.8,0-.4,0-.9.4-1.4.3-.5.5-.9.6-1.1,0-.3.1-.8.1-1.4s0-.5.2-.8.2-.6.2-.8c.4-.7.7-1.3.8-1.8.2-.5.3-1.1.2-1.7,0,0,0-.2.2-.5.1-.2.2-.5.3-.7.6-.8.9-1.5.9-2.2v-.6c.9-.5,1.2-1.1,1-1.8,0-.1,0-.2.2-.3.3-.1.6-.3.7-.6s.3-.5.4-.9c.1-.4.2-.7.4-.9.2-.5.5-1,.8-1.4.3-.5.6-.9.7-1.2,0-.2.3-.5.6-1s.6-.9,1-1.2c.4-.3.8-.5,1.2-.6.8-.2,1.6-.3,2.4-.3.2,0,.7,0,1.2.1s1.1.1,1.5.3c.6.1,1.1.3,1.4.6.6.3.9.8.8,1.5-.4.8-.8,1.9-1.2,3.2,0,.2-.1.4-.2.6s-.1.4,0,.5c0,.4,0,.7,0,1.1s-.2.6-.2.8-.1.3-.2.4l-.8,1.9c0,.6-.4,1.5-1,2.8l-.3.6c-.1.3-.2.6-.2.9s0,.8-.2,1.2c-.2.2-.3.5-.4.8-.1.3-.1.6,0,.8,0,.2,0,.4-.1.4-.2.2-.4.4-.5.7s-.2.6-.2,1-.2.8-.3,1c-.1.2-.3.6-.7,1.2s-.5,1.1-.5,1.5-.2.9-.4,1.4c-.3.8-.4,1.4-.4,1.9,0,.2,0,.3-.1.4-.3.9-.8,1.8-1.2,2.7-.2.4-.2.8-.2,1.1l-.5,1.6c-.2,1-.5,1.8-.8,2.2-.2.2-.2.7-.2,1.4s0,.5-.1.9c0,.3-.1.6-.2.8-.1.3-.2.6-.2.9s0,.5.1.9.1.8.2,1.1h.6l3.6-2.4c.2-.1.5-.3.6-.6,1.3-.9,2.9-2.4,4.7-4.6l1.3-1.4c.8-.9,1.9-2.3,3.3-4.3l4.1-5.6c1.1-1.4,2.2-3.2,3.2-5.4.6-1,1.4-1.6,2.2-1.6s1,.1,1.5.4c.3.1.5.3.5.5s0,.3-.2.6c0,.3-.1.6-.3.9-1.2,2-2.1,3.5-2.7,4.4l-1.5,2.2c-.7.9-1.3,1.8-1.8,2.6-.6.9-2,2.8-4.1,5.6l-1.6,2.1c-.6,1-1.2,1.9-1.9,2.7l-1.1,1.3c-.5.6-1,1.2-1.6,1.8s-1.2,1.1-1.8,1.6c-.3.2-.8.6-1.4,1.1s-1.3.9-1.9,1.2c-.4.2-1,.4-1.8.6-.6.1-1.3.2-1.9.2h0ZM209.5,378.7c-.7-.5-1.2-1.1-1.5-1.7-.5-1-.8-1.9-.9-2.8,0-.2-.1-.6-.1-1.1,0-1.2.5-2.3,1.5-3.4.5-.7,1.1-1.1,1.9-1.1s1.1-.2,1.3-.8c.4-.4.8-.6,1.3-.6s.5,0,.8.1c.6.2,1.5.6,2.9,1.2.2.1.4.4.6.8.2.5.3,1.1.4,2,0,.7.2,1.2.2,1.6v1.8c0,.8-.1,1.6-.4,2.4-.8,1.4-2,2.3-3.6,2.6-1.4.1-2.9-.2-4.4-1.1h0Z"/>
            <path class="cls-1" d="M226.1,435.1c-.5,0-1.3,0-2.2-.2-.3,0-.8-.2-1.5-.2-.2,0-.4,0-.6-.2-.2-.1-.4-.2-.6-.2-.3-.2-.6-.4-1-.6-.4-.2-.7-.3-.9-.5-.5-.2-.9-.6-1.2-1.2-.2-.3-.4-.6-.5-1s-.2-.7-.3-.8c-.3-.8-.6-1.4-.9-1.8,0,0,0-.1,0-.3,0-.1,0-.2,0-.3,0,0,0-.2,0-.4s0-.4-.2-.7c-.1-.3-.2-.5-.2-.7,0-.3-.1-.9-.1-1.6s0-1.3.1-2.2c0,0,0-.2.1-.4s.1-.3,0-.5c0-1,0-2.2.4-3.8.2-.5.3-1,.3-1.4l.4-2.4c0-.1,0-.3.1-.4s.1-.3.2-.3c.4-.4.6-.9.4-1.5,0-.2-.1-.3-.1-.5s0-.3.1-.4c.3-.5.6-1.1.8-2.1.2-.8.4-1.3.6-1.7,0,0,0-.1.1-.3,0-.2,0-.3.1-.4.3-.4.6-.8.8-1.1s.2-.6.2-.9,0-.4,0-.5c0-.3,0-.5.1-.5.3-.3.5-.7.6-1.2s.2-.8.3-1.1l1.1-2.3c.3-.9.7-1.7,1-2.3.1-.3.3-.9.6-1.8,0-.7.4-1.5,1.1-2.4.3-.5.7-1.2,1-1.8s.5-1.2.6-1.4l.7-1.6c.2-.6.4-1,.6-1.2.4-.2.6-.6.7-1,.1-.4.2-.7.2-.8,0-.6.1-1.1.4-1.5.7-.9,1.1-1.7,1.3-2.6.1,0,0-.2-.1-.4-.2,0-.4,0-.8,0h-1.6c0,0,0,0,0,0-1.2,0-2.1,0-2.8.1h-.8c-1,0-1.8-.2-2.4-.6-.3,0-.5-.2-.5-.6s0-.4.2-.6c.7-.7,1.6-1.1,2.6-1.1,2-.2,3.9-.4,5.8-.6.2,0,.5,0,.8,0s.6,0,.9,0c.6,0,.9-.2.9-.8s0-.7.3-1.1.5-.8.9-1.3c0,0,.2-.4.4-.9.4-1,.8-1.8,1.4-2.2.2-.2.3-.4.3-.4,0-.4.2-.8.3-1.1.2-.3.4-.5.6-.8.2-.2.3-.4.4-.4.2-.6.6-1.1,1-1.6s.8-1,1.2-1.4.8-.8,1-1c1-.8,1.9-1.4,2.9-1.8,1-.4,2-.6,3.1-.4.5,0,.9,0,1.1.2,1,.2,1.6.8,1.6,1.8s0,.5,0,.6l-.9,3.3c0,.2-.1.4-.3.8,0,.2-.2.4-.5.7s-.4.5-.4.7c-.1.3-.3.7-.4,1.2-.1.5-.3.9-.5,1.2-.4,1-.7,1.8-.8,2.2,0,.3-.1.7-.3,1-.2.3-.4.5-.4.7,0,0,0,.2,0,.4s.2.5.6.6c1.6,0,2.8,0,3.6.2.5,0,1.1,0,1.9.2.1,0,.2,0,.4.2.1.1.2.3.2.4,0,.3-.2.5-.5.8-.5.3-1.3.4-2.4.4-1.1.1-2.7.2-4.9.2s-1.1.3-1.2.9c0,.3-.2.6-.3,1.1-.1.4-.2.8-.3,1.1-.2,1-.4,1.9-.7,2.6-.2.7-.6,1.3-1.2,1.9,0,0,0,.2-.1.2s-.1.2-.2.3c-.3,1.5-.8,2.7-1.6,3.6-.7.8-1.2,1.9-1.4,3.1l-.4,1.5c-.2.7-.4,1.2-.6,1.7,0,.3,0,.5-.2.6-.5.5-.8,1.1-1.1,1.8-.3.6-.6,1.4-.8,2.4l-.6,1.4c-.5,1-.7,1.8-.8,2.5,0,.5-.3,1.1-.9,1.9-.4.7-.7,1.4-.9,2.1-.2.7-.4,1.6-.6,2.7,0,.3-.1.7-.2,1.3-.1.6-.3,1.1-.4,1.6-.2.5-.4.9-.7,1.3-.2.2-.2.5-.2.8l-.5,3.6c0,.2,0,.3-.1.5s0,.3-.1.4c-.4,1-.6,1.9-.5,2.6,0,.4,0,.7-.1.9-.2.4-.4.8-.5,1.3s-.1.9-.2,1.4,0,.9,0,1.2c0,.5.1.9.3,1.3.2.4.4.7.4.8,0,0,.1.1.3.1.1,0,.3-.2.6-.4,1.1-1,1.9-1.8,2.5-2.4s1.1-1.2,1.6-2c1.4-1.6,2.4-2.8,3-3.6.8-1,1.9-2.5,3.3-4.5l2.1-3c1-1.4,1.7-2.5,2.1-3.2l2.1-3.9,1.2-2.1c.5-.9,1.1-2,1.9-3.2,0-.1.5-.7,1.2-1.8.5-.8,1.2-1.1,2.1-1.1s.6,0,1.1.2c.5.1.6.4.3.9,0,0-.1.2-.2.4s-.2.3-.3.3c-1.2,2-2.4,4.2-3.6,6.6-.4.9-1,1.9-1.7,3-.5.6-1,1.5-1.5,2.5-.4.8-.8,1.3-1,1.7-.9,1-1.9,2.4-2.9,4.2-.4.5-.9,1.2-1.6,2.2-.3.4-.8,1-1.4,1.8-.3.4-.6.8-1,1.3s-.8,1.1-1.3,1.8l-.9,1.1c-.8,1-1.6,2-2.4,2.9-.8,1.1-2.1,2.2-4.1,3.1l-1.9.4h-.7c0,0,0,0,0,0Z"/>
            <path class="cls-1" d="M271.4,428c-.5-.2-.9-.5-1.2-.9,0-.1-.2-.3-.4-.5s-.3-.5-.4-.7c0-.2-.1-.4,0-.6,0-.3,0-.5-.1-.6-.2-.4-.4-1.1-.4-1.9s0-1-.1-1.2c0-.2,0-.7,0-1.5s0-1.4.3-2c-.1-.5-.2-.9-.2-1.4v-1.3c.1-.6.2-1,.2-1.4v-.6c0-.3,0-.6.2-.8.2-.5.5-1.4.6-2.6,0-.7.2-1.2.2-1.5,0-.2,0-.5.2-.9s.2-.7.2-.9c0-.6,0-1.2,0-1.7s.3-1.2.5-1.9c.1-.4.2-.7.2-1s0-.5.1-.7c0-.1.1-.5.2-1.2.1-.6.3-1.2.6-1.8.2-.4.3-1,.3-1.8,0-.2,0-.5,0-.8,0-.4.1-.7.3-1,.2-.2.3-.6.4-.9.1-.4.2-.6.2-.8,0-.4.2-.8.2-1.3s.1-.9.2-1.3c0-.1,0-.2-.2-.3-.2,0-.2,0-.2.1l-1.6,1.4c-1.6,1.3-2.7,2.4-3.4,3.1-1,1.2-1.9,2.6-2.8,3.9-.7,1-1.2,1.7-1.6,2.2-.8,1.1-1.5,2.1-2.1,3.1-.5.8-1.1,1.9-1.8,3.5l-.6,1.1-2.2,5.1c-.2.4-.5,1.2-.9,2.3-.2.8-.5,1.5-.6,1.9-.2.4-.5.8-.7,1.4-.2.6-.4,1-.5,1.2-.5,1.3-.9,2.4-1.4,3.1,0,.1,0,.3-.1.5s-.1.4-.2.6c-.4,1.2-1.3,2.1-2.8,2.6-.7.2-1.2.2-1.7.2s-1,0-1.8-.2c-.8-.2-1.4-.6-1.8-1.1s-.8-1.2-.8-1.9c-.3-1.2-.4-2.2-.4-3.1s0-.7.1-1.3c0-.1,0-.3,0-.6s0-.6,0-.9,0-.6,0-.9c0-.9,0-1.6.1-1.9.3-1.6.5-3.1.5-4.7,0-.2,0-.5,0-.9,0-.8.2-2,.5-3.6,0,0,0-.1.1-.2,0-.1,0-.2,0-.2,0-.4,0-.8,0-1.3.1-.5.2-1,.3-1.4.3-.8.5-1.8.6-3,0-.2.1-.6.3-1.2.2-.5.2-1,.1-1.4,0-.8.2-2,.6-3.6,0-.2,0-.4.1-.8,0-.4.1-.7.3-.9,0-.1.1-.3.2-.4,0-.2,0-.3,0-.3v-.6c0-.7.2-1.2.5-1.6,0,0,.1-.1.1-.3,0-.2,0-.4,0-.8,0-.6,0-1.2.3-1.7s.5-1.3,1-2.3c0,0,0-.1,0-.2s0-.2,0-.4c0-.6,0-1.1.2-1.7.1-.5.4-1.2.7-1.9.2-.5.4-1.1.6-1.8,0-.2.1-.5.3-1,.2-.5.2-.8.2-1.1s.1-.4.3-.6c.4-.5.6-.9.6-1.2s0-.2-.1-.5c-.1-.3-.1-.5,0-.8.4-.5.7-1,1-1.7s.4-1.2.5-1.5c0,0,.1-.3.2-.7.1-.4.3-.8.5-1.1.2-.2.4-.4.5-.7s.1-.6,0-1c0,0,0-.1,0-.2s0-.2.2-.6c.2-.2.4-.6.6-1s.2-.7.4-.9l2.2-4.8s.1-.2.3-.5c.2-.3.2-.7.2-1.1.2-.4.4-.8.6-1.2.2-.4.4-.7.6-.9.5-.8,1.1-1.7,1.6-2.9.3-.8.7-1.4,1-1.9,0,0,.1-.2.2-.5.1-.2.2-.4.4-.4.5-.4.8-1,1.1-1.9,0-.3,0-.5.1-.6.3-.2.6-.6.8-1.2.3-.5.5-.9.7-1.1.5-.5,1-1,1.2-1.4s.5-.9.6-1.4c0,0,.1-.3.4-.6.5-.5.9-1.1,1.1-1.7,0-.3.1-.6.4-.8.7-.5,1.4-1.3,1.9-2.2.2-.3.5-.6.8-.9.2-.2.4-.3.6-.5.2-.2.3-.4.3-.7s0-.3.2-.4c.6-.5,1.1-1,1.6-1.6.5-.5,1-1.1,1.6-1.6s1.2-1,1.8-1.3c0,0,.3-.2.6-.4s.5-.4.7-.6c.4-.8,1.1-1.4,2.1-1.9,1.8-1,3.5-1.7,5.1-2.2s3.3-.8,5-.8c2.6,0,5.3.6,7.9,1.8,1.5.7,2.6,1.6,3.6,2.8,1.6,1.9,2.6,4.1,2.9,6.6.2,1.2.3,2.4.3,3.4s-.1,1.8-.3,3c-.2,1.8-.6,3.6-.9,5.4,0,.8-.2,1.3-.2,1.6-.6,2.8-1.6,5.6-3,8.2l-2.4,4.5c-.3.5-.7,1-1.2,1.5l-.9,1.4c-.9,1.4-1.4,2.2-1.7,2.5-.7,1-1.5,2-2.5,3.2,0,0-.2.2-.3.4s-.2.3-.3.5c-.5.5-1,1.1-1.6,1.9l-1.4,1.4c-.4.3-.9.7-1.5,1.3s-.3.3-.5.4-.4.3-.5.3c-.3.5-.8,1-1.2,1.4s-1,.8-1.5,1.1-.8.6-1,.7c-.2.2-.7.6-1.3,1.2-.6.6-1.3,1-2,1.4l-6.9,4c-.2.1-.5.3-.8.4s-.6.3-.8.3l-1.9.9c-2,1.1-3.6,1.8-4.8,2.1-1.7.4-3,.7-3.8.8-.5,0-.9.2-1.1.4-.2.2-.4.5-.4.9,0,.2-.2.6-.3,1.2-.2.6-.3,1-.3,1.4s0,.6.1.8c0,.4,0,.6-.1.8l-1.4,4.3v1.4c-.1.2-.2.7-.2,1.4,0,0,0,.2.1.2.2,0,.3,0,.3-.1.2,0,.4-.3.6-.8.7-.9,1.1-1.6,1.4-2.1.4-.6.8-1.2,1.1-1.7,1.7-2.1,3-3.7,3.9-4.8s2-2.2,3.2-3.3c1.4-1.3,2.5-2.2,3.4-2.8,1.5-1,3-1.5,4.6-1.5s2.1.2,3.1.6c2,.9,3.1,2.2,3.2,4.1,0,.2,0,.6,0,1.1v.6c0,.7,0,1.2.2,1.6.1.3.2.6.2.9s0,.8-.2,1.3-.2,1-.3,1.4l-.4,2.4c-.1,1.3-.4,2.8-.9,4.4-.1,0-.2.3-.2.8s0,.6-.1.8c-.3.3-.5.7-.5,1.1s0,.9,0,1.4,0,.4-.1.5c-.3.5-.5,1.2-.6,2s-.2,1.4-.3,1.8c-.5,1.5-.8,2.5-1.1,3.1,0,.2-.1.5-.2.8s0,.5-.1.8c0,1.4-.2,2.5-.8,3.3,0,0-.1.3-.1.8,0,.2,0,.5,0,.9,0,.8-.1,1.7-.4,2.6v.9c.1.5.4.6.8.3.6-.5,1.2-1.1,1.8-1.7.6-.6,1.1-1.2,1.5-1.8.1-.2.4-.5.8-.9.8-.6,1.5-1.6,2.2-2.9l4.3-7.2c.9-1.4,1.8-2.8,2.6-4.4.2-.4.8-1.4,1.8-3.2l1.3-2.2c.2-.3.5-.5.8-.7.4-.2.8-.2,1.2-.2s.9.1,1.4.3c.3.2.4.6.2.9,0,.1,0,.3-.1.4s-.1.3-.1.4l-3,5.7c-.8,1.5-1.5,2.8-2.1,4l-1.2,2.2-.8,1.4c-.6,1.2-1,1.9-1.1,2.1l-2,2.9-.9,1c-1,1.2-1.8,2.1-2.2,2.8-1.2,1.4-2.1,2.4-2.6,2.8-.1,0-.2.2-.4.3-.1.1-.2.2-.4.3-1.8.8-3.4,1.2-4.6,1.5-1.6.1-3.3-.3-4.9-1.4h0ZM262.2,386.7c.2,0,.4,0,.4-.1,4-1.8,7.4-3.5,10.1-4.9.2-.2.5-.3.9-.5.3-.2.6-.4.8-.5.2-.1.5-.3.7-.4s.5-.3.8-.4l.6-.6c2-1.2,3.4-2.2,4.2-2.9l.6-.4c.2-.2.6-.5,1.1-.9s1-.8,1.5-1.1c.2-.2.5-.5.8-.8.4-.3.7-.5.8-.7,2.1-2.2,3.6-4.1,4.7-5.6.2-.2.5-.6.9-1.1,0-.1.4-.5.9-1.2s.9-1.3,1.2-2.1c.2-.6.6-1.3,1.2-2.1,1-1.4,2.1-3.3,3.1-5.8l.9-2.4c0-.2.2-.4.2-.7,0-.3.1-.5.2-.7.2-1,.5-1.7.8-2.1v-.2c0-.5.1-1,.3-1.6.2-.8.3-1.5.2-1.9.3-.5.5-1.2.5-1.9s0-1.2,0-1.5c0-.6.1-1,.1-1.4v-1.6c-.1-1-.2-1.7-.1-2.1,0-.4.1-.7.1-.9,0-.8-.3-1.8-.9-2.9,0-.2-.1-.4-.1-.8-.5-1.4-1.3-2.6-2.4-3.6-.6-.4-1-.7-1.3-.8-.5-.2-1-.3-1.4-.3-.7,0-1.1-.1-1.4-.1-1.6,0-2.9.6-3.9,1.8l-.4.5c-.2.2-.5.5-.9.8-.9.8-1.5,1.4-1.9,1.9-1.3,1.6-2.2,2.6-2.8,3.1-.5.5-.8.9-.8,1.1-.1.4-.4.8-.7,1.2l-.8.8c-.2.2-.3.6-.5,1.1s-.4.9-.6,1.1h-.2c0,.2-.2.5-.4.8s-.4.4-.4.6c0,0-.2.2-.4.5s-.4.6-.5.9c0,0,0,.2-.1.3s-.1.2-.2.2c-.8,1.1-1.2,2-1.4,2.8,0,.1-.2.5-.3,1.2-.2.7-.5,1.2-.8,1.7-.5.6-1,1.6-1.6,3-.2.4-.4.8-.7,1.2s-.5.7-.6.8c-.5.8-.9,1.6-1.2,2.6-.2.5-.5,1.7-1.1,3.8,0,0,0,.2,0,.2s0,.1,0,.2c-.4.5-.8,1.4-1.2,2.6-.3.8-.5,1.4-.7,1.8,0,.2-.1.6-.4,1.1-.2.5-.4.9-.4,1.2,0,.5-.2,1.1-.5,1.8-.3.6-.5,1.2-.7,1.5-.3.4-.5.8-.6,1.3-.2.7-.5,1.4-.6,2.1-.1.8-.2,1.2-.3,1.5-.2,1.6-.6,2.9-1.2,3.9,0,.1-.2.3-.2.6s-.1.5-.2.7l-.4,1.8c0,.2-.1.6-.3,1.3-.1.7-.4,1.4-.7,2,0,0-.1.2,0,.3s0,.2,0,.3c.2,0,.4,0,.6-.2h0Z"/>
            <path class="cls-1" d="M299.2,428.9c-1,0-1.9-.1-2.8-.3-.9-.2-1.7-.5-2.4-.9,0,0-.2-.2-.5-.4s-.4-.4-.4-.5c-1.3-1.7-2.1-3.4-2.4-4.9,0-.4-.1-1.1-.1-1.9v-2.6c0-.6,0-1.1,0-1.4,0-.5,0-.8.1-1,.2-.4.3-1,.3-1.7,0-.3-.1-.5-.1-.6,0-.2,0-.4.1-.6.2-.4.4-.9.5-1.4s.2-.8.2-1c.2-1.2.5-2.2.8-2.8,0-.4,0-.9.4-1.4.3-.5.5-.9.6-1.1,0-.3.1-.8.1-1.4s0-.5.2-.8.2-.6.2-.8c.4-.7.7-1.3.8-1.8.2-.5.3-1.1.2-1.7,0,0,0-.2.2-.5.1-.2.2-.5.3-.7.6-.8.9-1.5.9-2.2v-.6c.9-.5,1.2-1.1,1-1.8,0-.1,0-.2.2-.3.3-.1.6-.3.7-.6s.3-.5.4-.9c.1-.4.2-.7.4-.9.2-.5.5-1,.8-1.4.3-.5.6-.9.7-1.2,0-.2.3-.5.6-1s.6-.9,1-1.2c.4-.3.8-.5,1.2-.6.8-.2,1.6-.3,2.4-.3.2,0,.7,0,1.2.1s1,.1,1.5.3c.6.1,1.1.3,1.4.6.6.3.9.8.8,1.5-.4.8-.8,1.9-1.2,3.2,0,.2-.1.4-.2.6s-.1.4,0,.5c0,.4,0,.7,0,1.1s-.2.6-.2.8-.1.3-.2.4l-.8,1.9c0,.6-.4,1.5-1,2.8l-.3.6c-.1.3-.2.6-.2.9s0,.8-.2,1.2c-.2.2-.3.5-.4.8-.1.3-.1.6,0,.8,0,.2,0,.4-.1.4-.2.2-.4.4-.5.7s-.2.6-.2,1-.2.8-.3,1c-.1.2-.3.6-.7,1.2s-.5,1.1-.5,1.5-.2.9-.4,1.4c-.3.8-.4,1.4-.4,1.9,0,.2,0,.3-.1.4-.3.9-.8,1.8-1.2,2.7-.2.4-.2.8-.2,1.1l-.5,1.6c-.2,1-.5,1.8-.8,2.2-.2.2-.2.7-.2,1.4s0,.5-.1.9c0,.3-.1.6-.2.8-.1.3-.2.6-.2.9s0,.5.1.9.1.8.2,1.1h.6l3.6-2.4c.2-.1.5-.3.6-.6,1.3-.9,2.9-2.4,4.7-4.6l1.3-1.4c.8-.9,1.9-2.3,3.3-4.3l4.1-5.6c1.1-1.4,2.2-3.2,3.2-5.4.6-1,1.4-1.6,2.2-1.6s1,.1,1.5.4c.3.1.5.3.5.5s0,.3-.2.6c0,.3-.1.6-.3.9-1.2,2-2.1,3.5-2.7,4.4l-1.5,2.2c-.7.9-1.3,1.8-1.8,2.6-.6.9-2,2.8-4.1,5.6l-1.6,2.1c-.6,1-1.2,1.9-1.9,2.7l-1.1,1.3c-.5.6-1,1.2-1.6,1.8s-1.2,1.1-1.8,1.6c-.3.2-.8.6-1.4,1.1s-1.3.9-1.9,1.2c-.4.2-1,.4-1.8.6-.6.1-1.3.2-1.9.2h0ZM308.7,378.7c-.7-.5-1.2-1.1-1.5-1.7-.5-1-.8-1.9-.9-2.8,0-.2-.1-.6-.1-1.1,0-1.2.5-2.3,1.5-3.4.5-.7,1.1-1.1,1.9-1.1s1.1-.2,1.3-.8c.4-.4.8-.6,1.3-.6s.5,0,.8.1c.6.2,1.5.6,2.9,1.2.2.1.4.4.6.8.2.5.3,1.1.4,2,0,.7.2,1.2.2,1.6v1.8c0,.8-.1,1.6-.4,2.4-.8,1.4-2,2.3-3.6,2.6-1.4.1-2.9-.2-4.4-1.1h0Z"/>
            <path class="cls-1" d="M386.1,531.2c-.8,0-1.3-.1-1.6-.1-2.1-.2-3.6-.3-4.7-.5-1.6-.3-3-.6-4.1-.8s-2.2-.6-3.2-1c-.8-.1-1.5-.3-2.2-.6-.2,0-.8-.2-1.9-.5s-2-.7-2.9-1.2c-.8-.5-2.2-1.2-4.1-1.9l-1.8-.8c-.1,0-.4-.2-.9-.5s-.9-.6-1.2-1c-.3-.1-.6-.3-1.1-.6-.1,0-.5-.3-1-.6s-1-.7-1.4-1.1c0,0-.2-.1-.3-.2s-.2-.2-.3-.2c-1.2-.7-2.6-1.9-4.4-3.6-.2-.3-.7-.8-1.3-1.4s-1.1-1.3-1.4-2c0,0-.1-.1-.2-.2-.1,0-.2-.2-.3-.4-.2-.1-.3-.3-.5-.6s-.4-.5-.5-.6c-.6-.7-1.1-1.5-1.7-2.4-.7-1.1-1.1-1.7-1.3-1.9,0-.1-.2-.3-.4-.6s-.3-.5-.3-.8c-.2-.6-.6-1.2-1.2-1.9-.1-.2-.3-.6-.7-1.2-.3-.5-.5-1-.6-1.4v-.4c-.4-.3-.7-.8-.8-1.4-.2-.6-.3-1-.5-1.3-.2-.5-.6-1.2-1.2-2.2,0,0-.2-.1-.3-.2-.1,0-.2,0-.3,0l-1.2.4c-1.3.3-2.3.7-2.8,1-.4.2-.9.4-1.5.6-.6.2-1,.4-1.2.4-2.4,1-4.2,1.7-5.4,2.1,0,0-.1,0-.2,0s0,0-.1,0c-.5,0-1.1.1-1.7.3-.6.2-.9.3-1,.4-.5.2-.9.4-1.2.5-.4,0-1,.2-1.9.4s-1.6.4-2.3.7c-.2,0-.6,0-1.2.2-.7.3-1.4.6-2.1.9-.7.3-1.4.5-2,.6l-1.8.6c-1.4.5-2.5.8-3.3.8-.5,0-1.1.3-1.8.8-.2,0-.3,0-.3.1,0,.2-.3.6-.6,1.1-.3.6-.6,1.1-.8,1.4-.5,2-1.2,3.7-2.2,5.1-.2.3-.7,1-1.4,2.1s-1.5,2.1-2.2,2.9c-.1.5-.3.8-.7,1.2s-.7.7-1.3,1.1c-.4.4-.7.8-.8,1.1-.5.9-1.2,1.6-2.2,2.2l-2.1,1.7c-.2.2-.4.2-.6.2-2,1-3.5,1.7-4.5,2.1-1.7.7-3.6,1.3-5.8,1.9-.8.2-1.5.4-2.2.4s-1.9-.2-3.3-.5l-.9-.4c-.3-.2-.5-.5-.5-.7s.1-.3.3-.6c.3-.5.7-.8,1.2-.9.6-.3,1.8-.8,3.8-1.5,1.4-.7,2.6-1.3,3.5-1.8s1.7-1.1,2.5-1.8c.2-.2.5-.5.9-.8s.7-.6.9-.9c0,0,.3-.2.5-.3.3-.2.5-.4.7-.6.2-.2.3-.4.3-.7,0-.2.1-.4.3-.6.4-.2.7-.5.9-.8s.4-.8.6-1.4c0-.1.2-.4.3-.8.1-.4.4-.7.7-.9,0,0,.2,0,.3-.2.1-.1.2-.2.2-.3,0-.4,0-.7.2-1,.2-.3.4-.6.8-1,0-.2.1-.3.3-.4.1-.2.3-.5.5-.8s.4-.6.4-.9c0-.3.1-.6,0-.9h-1.7c-.4,0-.9,0-1.3.1-1.1.5-2.2.8-3.3,1-1.1.2-2.6.5-4.4.7-.4,0-.7,0-.9.1-1.2.5-2.7.8-4.7,1l-1.4.2c-.7.2-1.5.3-2.3.4-.9,0-1.5.2-1.8.2-1.7.1-3.5.3-5.2.6h-.5c-1.1,0-2.4,0-3.9.2-1.5.2-2.6.2-3.3.2h-4.5c-2-.1-3.5-.2-4.5-.2h-3.8c-.4,0-.9,0-1.6,0s-1.3,0-2.3-.1h-1.3c-.7-.2-1.3-.3-1.9-.3-.5,0-1,0-1.3-.1l-3.1-.4c-1-.1-2.1-.3-3.3-.6l-1.9-.4c-.3,0-.9,0-1.6-.1s-1.4-.1-2-.3c-.8,0-1.6-.3-2.6-.6l-1.7-.4c-1-.2-2.3-.6-3.7-1.1l-1.6-.6c-.9-.4-1.8-.7-2.5-.9l-2.1-.9c-.2,0-.4,0-.4-.1-.4-.2-.9-.5-1.4-.7-.5-.2-.9-.4-1.1-.5-.7-.2-1.3-.5-2-.9-.6-.3-1.2-.7-1.8-1.1-.3-.3-.9-.6-1.8-1-.5-.2-.9-.4-1.2-.6s-.6-.5-.8-.8c-.3-.2-.6-.4-.8-.4-.9-.7-1.8-1.4-2.7-1.9-.7-.4-1-.6-1.1-.6-1.1-.8-2-1.6-2.7-2.4-1.5-1.8-2.8-3.2-3.8-4.1l-.8-.9c-.2-.3-.5-.8-1-1.6s-.9-1.5-1.1-2.2c0-.1-.2-.3-.4-.4s-.3-.3-.3-.4c0-.4-.1-.8-.4-1.3-.2-.6-.4-1-.4-1.4,0-.3-.1-.7-.3-1.1-.1-.5-.3-.8-.3-1.1-.2-1.4-.2-2.4-.2-3,0-.3,0-.8,0-1.4s0-1.2,0-1.6c0-.5.1-1.3.4-2.4,0-.3.2-.6.3-.9s.2-.5.2-.7c0-.9.4-2,1.1-3.3,1.1-2.2,2.1-3.9,3-5.1.2-.3.4-.5.5-.8.1-.2.3-.4.4-.6.3-.6.7-1.1,1-1.5l2.2-2.4c.5-.5,1-.9,1.2-1.1.8-.8,1.4-1.3,1.8-1.8.3-.3.8-.7,1.4-1.1.9-.6,1.6-1.2,1.9-1.8,0,0,.2,0,.3-.1s.2,0,.3-.1l1.8-1.2c.9-.5,1.7-1.1,2.6-1.8l.8-.5c.6-.1,1.1-.4,1.7-.8.5-.4.9-.6,1.1-.8.7-.3,1.1-.5,1.2-.6.5-.1,1.1-.4,1.7-.7.6-.3,1.1-.6,1.3-.7.8-.5,2-1,3.6-1.6,1.9-.7,3.5-1.3,4.8-1.7s2.6-.7,3.9-.9c1.7-.2,3-.4,3.9-.8.5-.2,1.1-.3,1.7-.3s1.1,0,1.4-.1h.8c1-.2,2.4-.3,4.4-.5,1.4,0,2.5-.2,3.2-.2h2.2c2.5.1,5,.3,7.5.6l1.9.2c1.9.2,3.4.4,4.4.8.7,0,1.5,0,2.2.2.8.2,1.3.3,1.5.3.9.2,1.7.4,2.4.5l1.8.4c1.8.7,3.9,1.4,6.4,2.3l4.5,1.6c.8.3,2.1,1,4.1,2.1.3.2.8.4,1.3.7s1,.5,1.4.7c1,.3,1.9.7,2.7,1.3.4.3,1,.7,1.9,1.2l1.1.6,1.5,1.1c1,.7,1.7,1.2,2.3,1.7s1,1,1.5,1.6c0,0,.1,0,.2,0s0,0,.1,0c.9.5,1.8,1.4,2.7,2.6.3.1.5.3.8.6.9.5,1.6,1,2.3,1.8.7.7,1.4,1.6,2.1,2.7.2.2.4.6.8,1.2.4.5.6,1.1.8,1.7,0,.2.5.7,1.2,1.4.6.5,1,1.3,1.2,2.4.1,1,.5,1.9,1,2.6.4.5.7,1.1.9,1.7.2.6.4,1.2.6,1.8.2.6.3,1,.3,1.3.1.5.2,1.1.3,2.1,0,.5.1,1.2.3,2.1.2.5.3,1.1.3,1.7,0,.6,0,1,0,1.1,0,.5,0,1,0,1.2,0,.6,0,1.2-.2,1.8,0,.8-.1,1.3-.1,1.7s0,.9.2,1.2v.6c-.1.5-.2,1.3-.3,2.4-.2,1.5-.4,2.7-.8,3.4,0,0,0,.2,0,.3,0,.3.2.4.5.3h.3c1-.4,1.7-.7,2.1-.8.3,0,.5-.2.8-.2s.4-.1.6-.2c.2,0,.6-.2,1.1-.3.5-.1.9-.3,1.2-.4l1.8-.6c1.6-.5,2.7-.9,3.4-1.2.4-.1.7-.2,1.1-.4.3-.1.7-.2,1.1-.4.2,0,.3,0,.5,0s.3,0,.4,0c1-.5,2.5-1.2,4.5-2,1.1-.3,2-.6,2.7-.8s1.4-.6,2.1-1.1c.7,0,1.3-.2,2-.6s1.2-.6,1.4-.7c.4-.1.7-.2.8-.3s.2-.3.2-.5,0-.5,0-.6c0-.6,0-1.2-.3-1.8s-.3-.9-.3-1c0-.2,0-.5-.2-.7,0-.3,0-.5,0-.7,0-.3,0-.5.1-.7,0,0,.1-.2.1-.4s0-.3-.1-.4c-.3-.5-.5-1.2-.5-2.1s0-1.1-.1-1.3c-.2-.6-.3-1.3-.4-1.9,0-.7,0-1.3,0-2s0-1.6,0-2.1v-2.1c-.3-1.4-.4-3.5-.4-6.1s0-.5.1-.6c0-.3.1-.9.1-1.6s0-1.2,0-1.6c0-1.9.1-3.7.4-5.4,0-.2,0-.6.2-1.2,0-.6.2-1.1.4-1.6,0,0,.1-.2,0-.3,0-.1,0-.2,0-.3,0-.1,0-.4,0-.7s0-.6.2-.8c.3-.5.5-1,.5-1.5s0-1.2,0-2.1,0-.1,0-.2c0,0,0-.2,0-.2.2-.4.4-.8.5-1.3s0-1.1,0-1.8l.5-1.4c.3-1.1.5-1.8.5-2.2.4-1.8.8-3.2,1.1-4.2,0-.5,0-1,.2-1.5s.3-.8.3-.9c.4-.8.6-1.6.6-2.2,0-.2.1-.5.3-1s.2-.8.2-1.2c0,0,0-.2,0-.3.3-.3.6-.8.7-1.4.1-.6.3-1,.3-1.3,0-.1,0-.3,0-.7s.1-.6.2-.8c0-.2.2-.5.4-.7s.1-.3.1-.6c.2-.7.3-1.3.3-1.8,0-1,.4-2,1.1-2.9.4-.5.6-1.1.6-1.6v-.3c0-.2,0-.4.1-.7s.1-.4.2-.5c.3-.4.5-.9.6-1.4s.2-.8.2-.9c.2-.8.3-1.2.4-1.4,0-.1,0-.3,0-.5,0-.4,0-.8.3-1.2.2-.4.4-.7.6-1s.4-.5.4-.6c.3-.6.4-1,.4-1.4,0-.6.2-1.2.4-1.8s.4-1.2.6-1.6.3-.8.5-1.1c0-.2.1-.4.2-.7s.2-.6.2-.8c.3-1.2.8-2.3,1.4-3.3.2-.4.2-.7.2-.9.1-.3.3-.7.4-1.2s.3-.9.3-1.2c.4-.6.7-1.5.9-2.7l.4-1.3c0-.2,0-.3-.1-.3,0,0,0-.1-.1,0s-.1,0-.2,0c-.2.2-.5.4-1,.7s-.9.5-1.2.8-.5.5-.7.8c-.7.3-1.4.9-2.3,1.8s-.8.8-1,.9c-1.6,1.5-2.9,2.8-3.8,4.1,0,0-.1.1-.2.3,0,.1-.2.2-.4.3-.5.4-1,.9-1.3,1.5-.4.6-.7.9-.8,1.1-.2.2-.5.8-1,1.7-.5.9-1.1,1.6-1.7,2.3-.2.2-.5.6-.8,1.1,0,.1-.3.4-.6.8-.3.4-.6.7-.9.9,0,.1-.1.3-.2.4,0,.2-.2.4-.2.6h-.2l-2.8,5.4c-.4.8-1.1,2-2.1,3.6-.2.3-.4.8-.6,1.4-.3.6-.6,1-.7,1.3,0,.1-.2.3-.2.5s-.2.4-.3.7c-.6,1.3-1,2.6-1.3,3.8-.2.8-.8,1.3-1.7,1.7-.5.2-1.1.2-1.8.2s-.8,0-1.4-.1c-.6-.2-1-.4-1.4-.7-.4-.3-.6-.7-.8-1.2-.5-1-.8-2.1-.8-3.4,0,0,0-.2,0-.4v-.9c0-.4,0-.7,0-.8.2-.4.3-.9.4-1.4,0-.5,0-1,.1-1.3,0-.2,0-.5,0-.8s0-.5,0-.8c0-.8.3-2.1.8-3.9,0-.2,0-.6.1-1.1s.2-.9.5-1.2c.2-.7.3-1.2.4-1.5.3-.9.5-1.6.6-2.1,0-.4,0-.8,0-1s.2-.5.4-.8c.2-.4.2-.8.2-1.1.6-1.9,1.2-3.4,2-4.6.5-1,1-2.1,1.3-3.1.4-1,.8-1.8,1.1-2.2,0,0,.1-.3.3-.6.3-1.3.9-2.4,1.6-3.3l.4-1.1c0-.5.1-.9.3-1.3.2-.4.5-.9.9-1.5.4-.8.7-1.2.8-1.4.1-.5.6-1,1.3-1.3,1-.4,2-.6,3-.6s2,.2,3,.6c.8.2,1.4.8,1.8,1.8,0,.2.1.6.1,1.1-.2.5-.3,1.1-.4,1.7-.4,1.4-.6,2.3-.8,2.7,0,.2-.2.8-.4,1.6,0,.2-.1.4-.2.8-.1.4-.2.7-.4,1.1-.1.5-.4,1-.8,1.5-.2.6-.4,1-.5,1.3,0,.1-.2.5-.3,1-.2.5-.5,1-.8,1.3h0c0,0,.3-.3.6-.5.2-.3.6-.7,1-1.3s.8-1,1.2-1.4l1.1-1.2c.7-.8,1.2-1.3,1.6-1.6.2-.2.7-.6,1.7-1.4s1.8-1.6,2.6-2.5l.6-.4,1.2-.9c.9-.9,2-1.5,3.2-1.8,0,0,.1-.1.2-.2.1,0,.2,0,.2-.1,1.1-.6,2.3-.9,3.5-.9s1.6.1,2.4.3c.8.2,1.7.5,2.8.9.3.1.6.3.9.6.3.3.5.6.7.9.2.3.4.6.6.8,0,0,.1.2.1.6,0,1.6,0,2.8.2,3.6.1,1.3-.2,2.8-.9,4.4-.2,1-.4,2.1-.6,3.1,0,.1-.1.3-.2.6s0,.5-.1.7c-.3.3-.5.7-.7,1-.1.4-.2.9-.4,1.7,0,.5,0,1-.2,1.5s-.4,1.1-.7,1.8c-.2.3-.3.6-.3.9,0,.8-.3,1.7-.9,2.7-.4.9-.7,1.9-.9,3,0,.1,0,.2,0,.4,0,.1,0,.2,0,.4,0,.2-.3.7-.5,1.4s-.5,1.4-.5,2c0,.5-.4,1.4-.9,2.6-.2.5-.4,1-.6,1.6,0,0,0,.2-.1.2,0,.5-.1,1.1-.3,1.6s-.5,1-.9,1.6c0,0-.1.3-.1.8,0,.2,0,.6-.1,1s-.1.7-.2,1c0,.2-.2.6-.5,1s-.3.8-.3,1.2,0,.4,0,.5c-.2.2-.4.5-.4.8,0,.3-.1.5-.1.6,0,.7-.2,1.2-.5,1.5-.2.2-.3.6-.4,1.1s-.1.8-.2,1c0,.2-.2.4-.2.7,0,.3-.1.5-.2.6-.4.8-.7,1.6-.9,2.2s-.3,1.3-.3,2c0,1-.2,1.9-.6,2.7-.4.9-.7,1.9-.9,3-.2,1.1-.3,1.8-.3,2,0,.5,0,1,0,1.3s-.2.7-.5.9v.3c0,.5-.1,1.4-.4,2.6-.2.7-.4,1.2-.4,1.5,0,.4-.2.9-.4,1.5s-.3,1.1-.4,1.5c-.2.4-.3.8-.2,1.1,0,.2,0,.6,0,1.1s0,1.4-.2,2.7c0,.4-.2,1-.2,1.9,0,0,0,.1,0,.2,0,.1,0,.2,0,.2.2.3.2.6.2,1s0,.5,0,.8-.1.6-.2.8c0,1.1,0,1.9.1,2.4v.4c0,.6,0,1.4,0,2.6s0,2.8.2,3.9c0,.4-.1.7-.1.9s0,.8.1,1.4c0,.6.1,1,.1,1.4,0,.2.1.7.2,1.4.1.8.3,1.5.5,2.1,0,0,0,.2.2.2.1,0,.2,0,.3,0,.3,0,.6-.1.9-.3.3-.2.5-.3.6-.3.3-.1.7-.2,1-.4.3-.1.7-.2,1-.4.4,0,.9-.2,1.4-.5.6-.3,1-.5,1.2-.5.2,0,.6-.3,1.3-.6s1.3-.5,1.8-.6c.5-.1,1-.3,1.5-.5s1-.5,1.5-.8c.8-.4,1.7-.7,2.6-1.1.9-.4,1.7-.6,2.5-.8,1.2-.5,2.1-.9,2.6-1.2.7-.4,1.4-.8,2.3-1.2.9-.4,1.4-.6,1.6-.7l1.4-.6c.3-.1.8-.3,1.4-.5s1.2-.5,1.6-.9c0,0,0,0,0-.1s0,0,0-.1c.6-.2,1.4-.5,2.4-1s1.8-.8,2.3-1c.5-.1,1.1-.3,1.8-.7.7-.3,1.2-.5,1.5-.7l5.2-2.2c.6-.2,1.3-.6,2-.9s1.2-.6,1.4-.8c.8-.2,1.4-.4,1.8-.6l2.4-.9c1.8-1,3.4-1.7,4.8-2.1.4-.1,1.3-.5,2.8-1.2l1.6-.7c.1,0,.3-.1.5-.2.2,0,.5-.2.8-.4.9-.2,1.8-.6,2.8-1.1s1.7-.8,2-.9c0,0,.2-.1.4-.2s.4-.2.6-.2c.7-.1,1.5-.4,2.2-.9.5-.2.9-.4,1.3-.5.4-.1.7-.2.9-.3l6.9-2.2c1.2-.4,3.7-1,7.4-2,.3,0,.8-.2,1.4-.4.6-.2,1.1-.3,1.6-.4l2-.4c2.9-.6,4.9-1,6.1-1.2,3.5-.5,5.9-.8,7.2-.9,1.9-.3,4-.4,6.2-.4s2.1,0,3.8.1h3.2c.6,0,1.6,0,2.9.2l2.1.2c1.8.1,3.5.5,5.2,1.1,2.4.6,4.2,1.1,5.2,1.6.8.3,1.8.8,3.2,1.6l1.1.6c1,.5,1.8,1.1,2.5,1.9.7.8,1.4,1.5,1.9,2.2.6.7,1,1.2,1.1,1.5,0,0,.3.4.6,1,.2.7.5,1.2.6,1.4,1.3,2.5,1.9,4.9,1.9,7.4v5.1c-.2.8-.4,1.5-.6,2.2-.2,1.2-.5,2.1-.8,2.7,0,.2-.2.5-.2.8s-.1.6-.2.9c0,.2-.2.7-.4,1.4-.3,1.1-.6,1.9-.9,2.4l-.8,1.7c-.5,1.1-.9,1.9-1.1,2.2-1.2,2.1-1.9,3.2-1.9,3.3-.5,1-1.5,2.3-2.8,3.9l-.9,1.2c-1.8,2.2-3.3,3.7-4.4,4.6-.8.8-1.3,1.4-1.6,1.9-.2.2-.8.8-1.9,1.8-.5.4-1,.8-1.4,1.2-.5.4-.9.8-1.2,1.2-.9.9-1.6,1.6-2.2,1.9-1.4,1-2.4,1.8-3,2.4-.8.6-1.8,1.3-3.2,2.1-.3.2-.8.6-1.5,1l-2.7,1.7c-1.2.8-2.1,1.3-2.7,1.6-.2,0-.6.2-1.1.4s-1,.4-1.3.6c-.8.5-1.8,1.1-3.1,1.6-.5.2-1,.4-1.5.6-.5.2-.9.4-1.2.5-1.2.5-2.3,1-3.3,1.3-.5,0-1.3.4-2.6.9-.1.2-.3.3-.4.3-.8.2-1.9.5-3.4,1.1-.2,0-.6.3-1.3.5-.7.3-1.4.5-2.1.6-1.9.5-3.6,1-5.1,1.5l-2.6.8c-.2,0-.5,0-.8.1s-.7,0-1.1.2c-1.1.3-2.8.7-5.2,1.1-.2,0-.4,0-.7.1s-.5,0-.7.1h-1c-1.2.4-2.5.7-3.8.8-1.3.2-2.9.3-4.8.3h-1.5c-.5.1-1.2.2-2.2.2-.3,0-.9.1-1.7.1h-3.9v.2c-1.5-.1-4.1-.3-7.8-.4h0ZM241.2,508.8h5.1c.1,0,.3,0,.5,0h.9c.4-.2.9-.2,1.4-.2s1.2,0,1.8.2h.9l4.5-.5h1.5c.3,0,.6,0,.8,0s.5,0,.7,0c1.8-.1,3.5-.3,5.1-.6,2.6-.2,5-.6,7.2-1l3-.4c.7-.2,1.3-.3,1.8-.3l4.7-.9c1.1-.3,1.8-.5,2.1-.6.2,0,.7-.2,1.4-.4s1.4-.4,2-.4c1.4-.2,2.5-.4,3.2-.8.8-.2,1.3-.3,1.5-.3.6,0,1,0,1.2-.1.6,0,.9-.2.9-.8s0-.2.2-.3c.1-.1.2-.3.2-.4,0-.8.1-1.4.4-1.9.1-.2.2-.4.2-.6v-.8c0-.2,0-.4.1-.7v-.2c0,0,0-.2,0-.4,0-.2,0-.4.2-.4.3-.3.5-.8.5-1.2s0-.9.1-1.1c.2-1.4.2-2.5.2-3.2s0-1.9-.2-3.4c-.1-.3-.2-.7-.2-1.3h.2v-1.4l-.6-1.3c0-.2-.1-.5-.2-.8,0-.4-.1-.6-.1-.8,0-.6,0-1.3-.2-2s-.4-1.2-.5-1.6c0-.2-.2-.5-.5-1s-.4-.8-.4-1c0-.6-.2-1.1-.4-1.6-.2-.5-.5-1.1-1-1.8-.5-.8-.8-1.5-1-1.9-.3-.7-.8-1.3-1.3-2s-.8-1.1-1-1.2c-.8-1.2-1.7-2.4-2.8-3.5-.2-.2-.8-.7-1.7-1.6-1.2-1.2-2.1-2-2.6-2.4-.2-.2-.4-.4-.6-.7s-.4-.5-.6-.7l-1.1-.8c-.5-.5-1.2-1-2.1-1.5l-4.9-3.1c-1.1-.8-2.2-1.3-3.1-1.5-.4-.1-1-.4-1.7-.9-1-.6-1.8-1-2.2-1.2-4.6-1.6-8.7-2.8-12.1-3.6-1-.3-1.5-.4-1.5-.4l-1.5-.4c-.2,0-.7-.1-1.2-.2s-1.1-.2-1.5-.2c-1.2-.1-2.5-.2-3.8-.2h-2.5c-.8-.1-1.4-.2-1.7-.2h-1.2c-.8.1-1.9.2-3.4.3-.3,0-.8,0-1.6.2-.8,0-1.5.2-2.1.3-2.5.4-4.4.8-5.7,1.1-1.3.3-2.6.7-4,1.3-1,.4-2.6.9-4.8,1.5-.2.1-.5.2-.8.4-.4.1-.6.2-.7.4-.5.4-1.2.8-2.3,1.4-1,.5-1.7.9-2.1,1.2-.4.3-1.3.9-2.8,1.8l-1.6.9c-1.1.6-2.2,1.3-3.2,2.2-.2.1-.6.5-1.3,1.2-.8.6-1.3,1.1-1.7,1.4l-.9.9c-.7,1.1-1.4,1.9-2.1,2.4-.2,0-.3.2-.4.3-.1.1-.2.2-.2.2l-1.5,2.2-1.5,2.2c0,.1-.1.2-.2.4s-.2.2-.2.4c0,.2-.3.7-.6,1.4s-.5,1.3-.4,1.8c0,0-.1.2-.1.2-.3.5-.6.9-.7,1.4-.1.5-.2,1.1-.4,2.1,0,.4-.1.9-.3,1.7,0,.2,0,.6,0,1s0,1,0,1.4,0,.7.1,1c0,.6.3,2,.8,4.2,0,0,0,.2,0,.2s0,.2,0,.2c.2.3.5.7.7,1s.3.6.5.8c.3.7.6,1.1.8,1.4.1.2.3.6.6,1s.5.8.7,1.1.5.5.8.8c.6,1,1.5,2,2.8,3.1.3,0,.6.3,1.1.8.5.6,1,1.1,1.3,1.4.4.3.8.6,1.3.7.1,0,.2.1.4.3.1.1.2.2.4.3.2.2.4.4.7.6s.5.4.7.6l1.2.8c1.2.7,1.9,1.1,2.2,1.4l.9.4c1.8.7,3.3,1.4,4.7,2.1.4.1.8.3,1.2.5s1,.4,1.6.6c.8.4,1.8.7,3,1l2.2.6c.8.2,1.5.4,1.9.5,0,0,.5.1,1.5.4,1,.4,2.5.6,4.4.8.4,0,1,.2,1.9.2.3,0,.7.1,1.2.2.5,0,.9,0,1.2.1.6,0,1.2.1,2,.2.7,0,1.3.1,1.7.2l2.2.2c.6,0,1.4,0,2.6,0h0ZM399.5,528c2.2-.2,4.4-.3,6.6-.4.5,0,.9,0,1.2-.3.2,0,.4,0,.7,0s.5,0,.7,0l2.6-.4c.2,0,.4-.2.6-.2s.4,0,.6-.1c.3,0,.9-.1,1.6-.2.8,0,1.4-.2,2-.4l10.2-2.7c1.4-.4,2.5-.8,3.1-1.1,1.2-.4,2.2-.8,2.8-1,.3-.1.7-.2,1.1-.4s.8-.3,1.2-.4c2.8-.9,6.4-2.5,10.8-4.6.6-.4,1.2-.7,1.8-.9,1.6-.8,2.8-1.5,3.6-2,.4-.2.9-.6,1.7-1.1.5-.4.9-.7,1.3-.9.6-.4,1.1-.7,1.4-.9.7-.4,1.1-.8,1.4-1,.4-.4,1-1,1.9-1.8,1-.7,1.8-1.4,2.2-2,0,0,0,0,.1,0s.1,0,.2,0c.5-.3,1.1-.9,1.9-1.7s2.2-2.1,3.6-3.3c.4-.5,1.1-1.2,2.1-2.2.2-.3.5-.7.9-1.2s.7-.9,1.1-1.2c.1-.2.3-.5.6-.7s.4-.5.6-.6c.5-.5.9-1.1,1.3-1.7l1.3-2c1.2-1.6,2-3,2.4-4.1,0-.3.2-.6.5-1s.5-.6.6-.8c.2-.6.5-1.2.8-1.7.1-.2.2-.5.3-.9.1-.3.2-.7.4-1.1,0,0,0-.2.2-.3s0-.3,0-.4c0-.6.3-1.5.7-2.6,0-.1.2-.5.4-1.2s.3-1.4.3-2c.3-.7.4-1.6.4-2.8s0-.5,0-.8c0-.3,0-.7.2-1.2,0-1.8-.5-4-1.4-6.6-.7-2-1.9-4-3.4-5.9-.8-.8-1.5-1.4-2.3-1.9s-1.9-1-3.2-1.7c-1-.4-2.4-.8-4.2-1.2-.8-.2-2-.4-3.6-.6-2.3-.2-4.4-.3-6.4-.3s-2.8,0-3.8.1c-.9,0-2,.1-3.1.3-1.8.2-2.9.3-3.3.3s-.2,0-.4,0c-.1,0-.2,0-.4,0l-2.6.6c-.9.2-1.7.4-2.3.5l-1.4.3c-3.2.6-5.6,1.2-7.3,1.6l-2.1.6c-.3.1-.7.3-1.3.4-.5.2-1.2.4-2.2.6l-2.2.6c-1.2.3-2.8,1-4.6,1.9-.4.2-.8.5-1.3.6-.5.1-.9.3-1.1.3-.7.1-1.2.3-1.8.6-1,.5-1.8.7-2.1.8-.6,0-1.1.2-1.5.6-.5.4-1.1.6-1.6.8-1.7.8-2.7,1.2-2.9,1.4-.6.3-1.2.6-1.9.8s-1.3.4-1.9.5c-.9.2-1.5.6-1.8.9l-.9.4c-.3.1-.5.2-.8.3s-.4.2-.6.3c-1.6.8-2.8,1.3-3.6,1.4l-1.6.7c-.2,0-.4.2-.6.3s-.5.2-.8.3c-.7.4-1.4.7-2.2,1l-1.4.6c-1.6.6-2.8,1.2-3.5,1.8,0,0,0,0-.2.1-.1,0-.2.1-.2.2-.6.2-1.4.6-2.5,1.1-.8.4-1.5.7-1.9.9-.2.1-.4.2-.7.3s-.4.1-.5.2c-2,.8-3.6,1.4-4.7,1.8,0,0,0,.1-.1.1-.2.3-.5.5-.9.7-.4.1-.7.3-1,.3s-.5.1-.6.2c-1.2.5-2.1.9-2.6,1.2,0,0-.2.1-.4.2-.2,0-.4.2-.6.2-.9.2-1.5.4-1.8.8s-.5.4-.9.6c-1.7.6-3.1,1.1-4.3,1.7-.4.1-1,.3-1.8.6s-1.6.6-2.3.9-1.3.7-1.8,1c-.5.3-.9.4-1.2.4-.8,0-1.4.2-2,.4s-1.3.6-2.2,1.1c-2.2,1-3.8,1.7-4.9,2.1-.2,0-.4.2-.7.3-.3.1-.5.2-.7.3-.3.2-.5.4-.6.6-.1.2-.1.5,0,.8.2.7.5,1.6.9,2.8,0,0,.2.3.4.6s.4.6.4.9c0,.3.1.6,0,.9,0,0,0,.2,0,.3s.1.2.2.3c.3.3.5.8.7,1.3s.3.8.3,1c0,.3.1.5.3.8.5.5,1.1,1.5,1.8,2.8l.8,1.4c.2.3.4.7.6,1.2.5,1.2,1,2,1.8,2.4.4.4.6.8.8,1.4.2.2.4.4.6.8s.4.6.5.8c.5.6,1.3,1.4,2.4,2.5,1.3,1.3,2.1,2.2,2.4,2.4l.6.4c.2.2.7.5,1.3.8.6.4,1.1.8,1.5,1.3.2.3.6.6,1.2.8.5.2.8.3,1,.4.4.3,1.1.7,2.1,1.1.2,0,.7.4,1.6.9,1.8.9,3.1,1.5,4.1,1.8.7.2,1.5.4,2.5.7.5.2,1.4.4,2.9.8l1.4.3c1.9.5,3.4.8,4.5.8,1.7,0,3.1.2,4.3.4,1.4.2,3,.3,4.8.3h2.7l4.4-.2h0Z"/>
          </g>
        </g>
      </g>
    </g>
  </g>
</svg>